<svg width="40" height="40" viewBox="0 0 40 40" fill="none" xmlns="http://www.w3.org/2000/svg">
<path d="M9.47423 14.8631C9.07071 14.6419 8.56415 14.7898 8.3429 15.1935L8.32618 15.2238C8.10501 15.6274 8.25282 16.1339 8.65657 16.3551C8.78368 16.4248 8.92095 16.4578 9.05634 16.4578C9.35087 16.4578 9.63634 16.3013 9.7879 16.0247L9.80462 15.9944C10.0258 15.5908 9.87782 15.0843 9.47423 14.8631Z" fill="#FF7C77"/>
<path d="M36.1428 17.5127C34.8323 12.4121 31.1581 8.17201 26.2004 6.19061C25.344 3.51623 22.8259 1.66647 20.0001 1.66647C17.102 1.66647 14.6411 3.57053 13.8002 6.19303C10.8143 7.38897 8.25734 9.40647 6.38664 12.0495C5.20484 13.7194 4.35281 15.5653 3.85391 17.513C1.70211 17.6737 0 19.4745 0 21.6666C0 23.86 1.70383 25.6618 3.85734 25.8207C5.70789 33.0075 12.2436 38.3334 20.0001 38.3334C27.7564 38.3334 34.2921 33.0075 36.1426 25.8207C38.2961 25.6618 40 23.86 40 21.6665C40 19.4733 38.2962 17.6718 36.1428 17.5127ZM1.6668 21.6665C1.6668 20.5165 2.4475 19.5455 3.50656 19.2552C3.435 19.7512 3.38516 20.2519 3.35813 20.7565C3.35766 20.7636 3.35742 20.7705 3.35703 20.7775C3.35219 20.8694 3.34789 20.9613 3.34461 21.0534C3.34328 21.0883 3.34258 21.1233 3.34164 21.1582C3.33961 21.2243 3.3375 21.2903 3.33625 21.3565C3.33445 21.4598 3.33336 21.5632 3.33336 21.6665C3.33336 21.7927 3.33531 21.9188 3.33828 22.0451C3.33914 22.0846 3.34023 22.124 3.34148 22.1633C3.34414 22.2551 3.34773 22.3469 3.35195 22.4387C3.35367 22.4776 3.35523 22.5165 3.35719 22.5555C3.36328 22.6701 3.37063 22.7844 3.37898 22.8988C3.38297 22.9526 3.38766 23.006 3.39203 23.0596C3.39773 23.1274 3.40367 23.1953 3.41016 23.263C3.41586 23.3227 3.42172 23.3825 3.42805 23.4419C3.43539 23.5116 3.44375 23.5812 3.45195 23.6508C3.46281 23.7419 3.47445 23.8327 3.48672 23.9233C3.49375 23.9751 3.50023 24.0269 3.50773 24.0785C2.44805 23.7886 1.6668 22.817 1.6668 21.6665ZM20.0001 3.33326C21.6506 3.33326 23.1602 4.18092 24.0413 5.50772C24.0248 5.50756 24.0081 5.50748 23.9915 5.50748C23.9807 5.50748 23.9702 5.50826 23.9595 5.50834C23.9553 5.5085 23.9511 5.50842 23.9469 5.50865C21.3521 5.53279 19.2487 7.65014 19.2487 10.2504C19.2487 11.2622 19.5666 12.2243 20.1377 13.018C20.0919 13.0193 20.0459 13.02 20.0001 13.02C17.3295 13.02 15.1569 10.8473 15.1569 8.17678C15.1568 5.506 17.3295 3.33326 20.0001 3.33326ZM34.9946 22.0614C34.9941 22.0817 34.993 22.1019 34.9923 22.1222C34.9889 22.2338 34.9848 22.3455 34.979 22.4572C34.978 22.4771 34.9764 22.497 34.9752 22.5169C34.9689 22.6284 34.9619 22.74 34.9531 22.8514C34.9514 22.8739 34.949 22.8962 34.9471 22.9187C34.9382 23.0264 34.9284 23.134 34.9173 23.2414C34.9142 23.2713 34.9103 23.3011 34.907 23.3309C34.8961 23.4294 34.8847 23.5276 34.8719 23.6258C34.8665 23.6669 34.8604 23.7078 34.8546 23.7487C34.8429 23.8337 34.8309 23.9185 34.8175 24.0031C34.8088 24.0582 34.7995 24.1129 34.7902 24.1678C34.7787 24.2363 34.7672 24.3047 34.7547 24.373C34.742 24.4425 34.7285 24.5115 34.7148 24.5805C34.7047 24.6322 34.6945 24.684 34.6838 24.7357C33.2635 31.5397 27.2193 36.6666 19.9999 36.6666C12.7752 36.6666 6.72742 31.5324 5.31289 24.721C5.30008 24.6593 5.28828 24.5972 5.27633 24.5351C5.26477 24.4759 5.25297 24.4167 5.24219 24.3572C5.22687 24.273 5.21289 24.1884 5.19898 24.1039C5.19266 24.0651 5.1857 24.0263 5.17969 23.9874C5.16313 23.8804 5.14797 23.7732 5.13359 23.6658C5.13117 23.6476 5.1282 23.6294 5.12594 23.6112C5.10953 23.4847 5.09453 23.3579 5.08133 23.231C5.08133 23.2304 5.08117 23.2297 5.08117 23.2292C5.02719 22.7105 4.99992 22.1885 4.99992 21.6668C4.99992 21.549 5.00187 21.4312 5.00469 21.3135C5.0057 21.2748 5.00687 21.2362 5.00812 21.1976C5.01055 21.1184 5.01383 21.0392 5.01758 20.96C5.01969 20.9139 5.02172 20.8677 5.0243 20.8217C5.02828 20.7515 5.03328 20.6814 5.0382 20.6113C5.04688 20.4902 5.05664 20.3694 5.06813 20.2488C5.06945 20.235 5.07055 20.2212 5.07187 20.2074C5.58406 15.0207 8.79633 10.4179 13.4907 8.15053C13.4907 8.15936 13.4901 8.16803 13.4901 8.17686C13.4901 8.77342 13.5723 9.35076 13.7233 9.89998C12.2275 10.6965 10.914 11.7577 9.81297 13.0625C9.51609 13.4143 9.5607 13.9401 9.9125 14.2368C10.0689 14.3688 10.2597 14.4332 10.4495 14.4332C10.6866 14.4332 10.922 14.3326 11.0868 14.1372C12.0169 13.0351 13.1201 12.1318 14.3727 11.4437C15.5018 13.3809 17.6007 14.6868 20.0001 14.6868C20.7359 14.6868 21.4588 14.5644 22.1485 14.3233C22.4489 14.2182 22.6633 13.9512 22.7009 13.6351C22.7386 13.3191 22.5929 13.0092 22.3255 12.8366C21.4426 12.2662 20.9154 11.2995 20.9154 10.2505C20.9154 8.58873 22.2402 7.23147 23.8891 7.17701C29.4245 8.65803 33.5413 13.1339 34.6819 18.589C34.7007 18.6793 34.7191 18.7697 34.7362 18.8603C34.7451 18.9076 34.7533 18.9553 34.762 19.0028C34.7752 19.0769 34.7883 19.1512 34.8005 19.2256C34.8078 19.2701 34.8148 19.3147 34.8217 19.3594C34.8346 19.4431 34.847 19.5269 34.8584 19.6108C34.8632 19.6457 34.8682 19.6806 34.8728 19.7156C34.9045 19.9592 34.9304 20.2037 34.9503 20.4487C34.9526 20.4768 34.9544 20.5051 34.9565 20.5333C34.9637 20.6275 34.9698 20.7219 34.9752 20.8162C34.9773 20.8529 34.9792 20.8897 34.981 20.9264C34.9855 21.0162 34.9889 21.1062 34.9917 21.196C34.9929 21.2308 34.9941 21.2655 34.9951 21.3002C34.998 21.4224 34.9999 21.5446 34.9999 21.6666C34.9998 21.7983 34.998 21.9299 34.9946 22.0614ZM36.4923 24.0785C36.5014 24.0155 36.5097 23.9522 36.5181 23.889C36.527 23.8223 36.5356 23.7555 36.5438 23.6884C36.5541 23.6044 36.5638 23.5201 36.5728 23.4359C36.5787 23.3808 36.5841 23.3255 36.5892 23.2701C36.5963 23.1975 36.6027 23.1249 36.6087 23.0523C36.6128 23.002 36.6173 22.9519 36.6209 22.9014C36.6295 22.7857 36.6369 22.67 36.643 22.554C36.6452 22.5167 36.6464 22.4793 36.6482 22.4419C36.6524 22.3487 36.656 22.2555 36.6587 22.1622C36.6599 22.1234 36.661 22.0845 36.662 22.0456C36.6648 21.9193 36.6668 21.7929 36.6668 21.6665C36.6668 21.5565 36.6655 21.4466 36.6634 21.3367C36.6625 21.2968 36.6612 21.2569 36.6601 21.217C36.6583 21.148 36.6562 21.079 36.6536 21.01C36.6516 20.9609 36.6491 20.9119 36.647 20.8629C36.6441 20.8035 36.6411 20.7443 36.6375 20.6851C36.6345 20.6318 36.6311 20.5787 36.6274 20.5255C36.6237 20.4708 36.6196 20.4163 36.6153 20.3617C36.611 20.3063 36.6067 20.2508 36.6018 20.1956C36.597 20.1422 36.5918 20.089 36.5866 20.0356C36.5812 19.9807 36.5761 19.9257 36.5702 19.8708C36.5636 19.8087 36.556 19.747 36.5486 19.6851C36.5404 19.6162 36.532 19.5476 36.523 19.479C36.513 19.4041 36.5033 19.3293 36.4924 19.2547C37.5523 19.5445 38.3334 20.5159 38.3334 21.6663C38.3332 22.8172 37.5521 23.7886 36.4923 24.0785Z" fill="#FF7C77"/>
<path d="M17.0355 22.6312C16.6457 21.1765 15.3218 20.1605 13.8158 20.1605C12.31 20.1605 10.9859 21.1765 10.596 22.6312C10.4769 23.0758 10.7407 23.5327 11.1852 23.6519C11.6299 23.7708 12.0868 23.5072 12.2059 23.0626C12.4009 22.3352 13.0629 21.8272 13.8157 21.8272C14.5686 21.8272 15.2305 22.3352 15.4255 23.0626C15.5252 23.4349 15.862 23.6805 16.2299 23.6805C16.3012 23.6805 16.3739 23.6712 16.4462 23.6519C16.8909 23.5327 17.1547 23.0758 17.0355 22.6312Z" fill="#FF7C77"/>
<path d="M26.1845 20.1605C24.6784 20.1605 23.3544 21.1766 22.9646 22.6312C22.8456 23.0759 23.1094 23.5328 23.554 23.6519C23.9984 23.7711 24.4555 23.5071 24.5745 23.0626C24.7695 22.3352 25.4314 21.8272 26.1844 21.8272C26.9373 21.8272 27.5992 22.3352 27.7941 23.0626C27.8939 23.4349 28.2305 23.6805 28.5986 23.6805C28.6699 23.6805 28.7426 23.6712 28.8148 23.6519C29.2595 23.5327 29.5232 23.0757 29.4041 22.6312C29.0142 21.1766 27.6903 20.1605 26.1845 20.1605Z" fill="#FF7C77"/>
<path d="M22.6306 28.4782C22.1862 28.3592 21.7291 28.6228 21.6099 29.0675C21.4149 29.7949 20.753 30.303 20.0002 30.303C19.2472 30.303 18.5852 29.7949 18.3904 29.0675C18.2713 28.6229 17.8143 28.3591 17.3697 28.4782C16.9251 28.5974 16.6613 29.0543 16.7805 29.4989C17.1703 30.9538 18.4942 31.9697 20.0002 31.9697C21.5061 31.9697 22.8302 30.9537 23.22 29.4989C23.339 29.0544 23.0752 28.5974 22.6306 28.4782Z" fill="#FF7C77"/>
</svg>
