<svg width="40" height="40" viewBox="0 0 40 40" fill="none" xmlns="http://www.w3.org/2000/svg">
<g clip-path="url(#clip0)">
<path d="M39.1179 34.8554L31.8757 27.6132C32.0748 27.3102 32.0412 26.8991 31.7747 26.6326C31.5083 26.3662 31.097 26.3325 30.7941 26.5316L28.8615 24.599C30.306 22.4547 31.2152 19.9711 31.4783 17.3807C31.8385 13.8328 30.9806 10.2365 29.0627 7.25394C28.8293 6.89105 28.346 6.78613 27.9831 7.01941C27.6203 7.25277 27.5153 7.73613 27.7486 8.09894C31.3354 13.6764 30.5299 21.1336 25.8332 25.8303C20.2902 31.3732 11.2712 31.3732 5.72814 25.8303C0.185174 20.2874 0.185174 11.2683 5.72814 5.72527C10.4298 1.02363 17.6495 0.190737 23.2852 3.69941C23.6513 3.9273 24.1331 3.81542 24.3611 3.44917C24.5892 3.083 24.477 2.60128 24.1109 2.37324C21.1368 0.521675 17.5703 -0.288482 14.0677 0.0917528C10.5117 0.477925 7.15775 2.08636 4.62338 4.62058C-1.52865 10.7727 -1.52865 20.7829 4.62338 26.935C7.69947 30.011 11.74 31.549 15.7806 31.549C18.859 31.549 21.9367 30.6553 24.5885 28.87L26.5114 30.7928C26.2225 31.0989 26.2271 31.581 26.5267 31.8807C26.6792 32.0332 26.8791 32.1095 27.079 32.1095C27.2718 32.1095 27.4642 32.0378 27.6145 31.896L34.846 39.1275C35.428 39.7095 36.1931 40 36.9604 40C37.7347 40 38.5112 39.7039 39.1028 39.1122C40.2805 37.9344 40.2874 36.0248 39.1179 34.8554ZM26.2004 28.2726L28.2631 26.21L29.6779 27.6248L27.6153 29.6875L26.2004 28.2726ZM37.9981 38.0075C37.4293 38.5762 36.5109 38.5831 35.9506 38.0227L28.7199 30.792L30.7826 28.7293L38.0132 35.96C38.5735 36.5204 38.5667 37.4389 37.9981 38.0075Z" fill="#FF7C77"/>
<path d="M26.9566 4.63912L26.9396 4.62216C26.6356 4.31623 26.141 4.31474 25.8349 4.6188C25.529 4.92287 25.5274 5.41748 25.8316 5.72349L25.8519 5.74388C26.0045 5.89646 26.2043 5.97271 26.4042 5.97271C26.6042 5.97271 26.8041 5.89646 26.9566 5.74388C27.2616 5.43888 27.2616 4.94427 26.9566 4.63912Z" fill="#FF7C77"/>
<path d="M15.7807 3.74854C9.1477 3.74854 3.75137 9.14487 3.75137 15.7778C3.75137 22.4108 9.1477 27.8071 15.7807 27.8071C22.4136 27.8071 27.81 22.4108 27.81 15.7778C27.81 9.14487 22.4136 3.74854 15.7807 3.74854ZM15.7807 26.2449C10.0091 26.2449 5.31364 21.5494 5.31364 15.7778C5.31364 10.0063 10.0091 5.31081 15.7807 5.31081C21.5522 5.31081 26.2477 10.0063 26.2477 15.7778C26.2477 21.5494 21.5522 26.2449 15.7807 26.2449Z" fill="#FF7C77"/>
<path d="M18.7532 14.7628C19.2397 14.1303 19.53 13.3393 19.53 12.4815V11.4583C19.53 9.39091 17.8481 7.70895 15.7807 7.70895C13.7133 7.70895 12.0313 9.39091 12.0313 11.4583V12.4815C12.0313 13.3393 12.3215 14.1304 12.8082 14.7628C10.3238 15.2313 8.4381 17.4164 8.4381 20.035V20.4386C8.4381 20.87 8.78778 21.2197 9.21919 21.2197H22.342C22.7734 21.2197 23.1231 20.87 23.1231 20.4386V20.035C23.1233 17.4165 21.2375 15.2314 18.7532 14.7628ZM13.5936 11.4583C13.5936 10.2524 14.5747 9.27122 15.7807 9.27122C16.9866 9.27122 17.9678 10.2524 17.9678 11.4583V12.4815C17.9678 13.6874 16.9866 14.6686 15.7807 14.6686C14.5747 14.6686 13.5936 13.6874 13.5936 12.4815V11.4583ZM10.019 19.6574C10.2091 17.7364 11.8343 16.2308 13.8045 16.2308H17.7569C19.7272 16.2308 21.3523 17.7364 21.5425 19.6574H10.019Z" fill="#FF7C77"/>
</g>
<defs>
<clipPath id="clip0">
<rect width="40" height="40" fill="white"/>
</clipPath>
</defs>
</svg>
