<svg width="40" height="40" viewBox="0 0 40 40" fill="none" xmlns="http://www.w3.org/2000/svg">
<path d="M36.5437 6.88283C36.3976 6.73674 36.1969 6.65384 35.9913 6.65384C35.7851 6.65384 35.5843 6.73674 35.4381 6.88283C35.2929 7.02806 35.21 7.22892 35.21 7.43517C35.21 7.64064 35.2929 7.84228 35.4381 7.98759C35.5842 8.13291 35.785 8.2165 35.9913 8.2165C36.1968 8.2165 36.3976 8.13299 36.5437 7.98759C36.6891 7.84228 36.7719 7.64072 36.7719 7.43517C36.7719 7.22892 36.6891 7.02806 36.5437 6.88283Z" fill="#FF7C77"/>
<path d="M18.5993 25.2832C18.4533 25.1371 18.2524 25.0543 18.0469 25.0543C17.8406 25.0543 17.6398 25.1371 17.4937 25.2832C17.3484 25.4285 17.2655 25.6293 17.2655 25.8356C17.2655 26.041 17.3484 26.2426 17.4937 26.388C17.6398 26.5333 17.8405 26.6169 18.0469 26.6169C18.2523 26.6169 18.4532 26.5334 18.5993 26.388C18.7446 26.2427 18.8274 26.0411 18.8274 25.8356C18.8275 25.6293 18.7447 25.4285 18.5993 25.2832Z" fill="#FF7C77"/>
<path d="M38.4362 9.47758C38.2229 9.10242 37.7457 8.97133 37.3708 9.18461C36.9957 9.39789 36.8645 9.87492 37.0779 10.25C39.3987 14.3311 38.698 19.503 35.374 22.827L34.7816 23.4194C34.6384 23.0438 34.4167 22.6916 34.1146 22.3895L26.0868 14.3618C26.6118 14.1035 27.0969 13.7589 27.5227 13.333L29.0624 11.7933C29.3675 11.4882 29.3675 10.9934 29.0624 10.6884C28.7573 10.3833 28.2627 10.3833 27.9574 10.6884L26.4177 12.2281C25.6944 12.9514 24.7327 13.3498 23.7098 13.3498H20.632C20.4248 13.3498 20.2261 13.4321 20.0795 13.5786L17.7232 15.9348C17.0235 16.6346 15.885 16.6346 15.1853 15.9348C14.4855 15.2352 14.4855 14.0966 15.1853 13.397L20.5647 8.01765C23.8521 4.73015 28.9844 4.00718 33.0449 6.25953C33.4223 6.46867 33.8979 6.33265 34.1072 5.95523C34.3165 5.57789 34.1802 5.10226 33.8029 4.89297C31.5632 3.65086 28.9245 3.15375 26.3723 3.49367C23.9838 3.81171 21.7977 4.81179 20.0056 6.39867C17.8041 4.44703 15.0016 3.37976 12.0344 3.37976C8.81984 3.37976 5.79781 4.63156 3.52477 6.90453C1.25172 9.1775 0 12.1998 0 15.4142C0 18.6287 1.2518 21.6508 3.52477 23.9238L3.81922 24.2183C3.87047 24.2695 3.92734 24.3113 3.98742 24.3453C4.03969 25.0213 4.32289 25.6825 4.83875 26.1983C5.41289 26.7723 6.16664 27.0592 6.92062 27.0592C6.95977 27.0592 6.99898 27.058 7.03813 27.0564C7.03656 27.0959 7.03523 27.1355 7.03523 27.1752C7.03523 27.9616 7.34148 28.701 7.89758 29.2571C8.47172 29.8312 9.22547 30.1181 9.97945 30.118C10.0186 30.118 10.0578 30.1168 10.097 30.1152C10.0954 30.1548 10.0941 30.1943 10.0941 30.2341C10.0941 31.0205 10.4003 31.7598 10.9565 32.3159C11.5305 32.8899 12.2845 33.1769 13.0384 33.1769C13.078 33.1769 13.1176 33.1756 13.1572 33.1741C13.1255 33.9671 13.4112 34.7707 14.0153 35.3749C14.5715 35.931 15.3109 36.2373 16.0972 36.2373C16.8837 36.2373 17.623 35.931 18.1791 35.3749L19.271 34.2829L20.7459 35.7577C21.302 36.3138 22.0414 36.6201 22.8278 36.6201C23.6142 36.6201 24.3536 36.3138 24.9097 35.7577C25.5211 35.1463 25.8067 34.3306 25.7669 33.5283C25.8159 33.5307 25.8652 33.5321 25.9143 33.5321C26.6683 33.5321 27.4223 33.2452 27.9963 32.6711C28.6002 32.0673 28.8859 31.2643 28.8545 30.4716C28.894 30.4732 28.9335 30.4745 28.9733 30.4745C29.7597 30.4745 30.4991 30.1683 31.0552 29.6122C31.659 29.0084 31.9447 28.2054 31.9133 27.4127C31.9528 27.4143 31.9923 27.4156 32.0321 27.4156C32.8185 27.4156 33.5579 27.1094 34.114 26.5533C34.3964 26.2709 34.6091 25.9446 34.7525 25.5964C34.8285 25.5594 34.9 25.5101 34.9632 25.447L36.4784 23.9318C40.2988 20.1122 41.1036 14.1683 38.4362 9.47758ZM6.9207 25.498C6.55164 25.498 6.20469 25.3543 5.94367 25.0933C5.68273 24.8323 5.53898 24.4854 5.53898 24.1163C5.53898 23.7473 5.68266 23.4003 5.94367 23.1394L7.29008 21.793C7.55102 21.532 7.89805 21.3883 8.26711 21.3883C8.63609 21.3883 8.98312 21.532 9.24406 21.793C9.78281 22.3317 9.78281 23.2082 9.24406 23.7469L7.89766 25.0934C7.63672 25.3542 7.28984 25.498 6.9207 25.498ZM9.00273 28.1523C8.74172 27.8913 8.59805 27.5443 8.59805 27.1753C8.59805 26.8063 8.74172 26.4593 9.00273 26.1984L10.3492 24.8519C10.3492 24.8519 10.3492 24.8519 10.3492 24.8518C10.6102 24.5909 10.9571 24.4471 11.3262 24.4471C11.6952 24.4471 12.0422 24.5908 12.3031 24.8518C12.8419 25.3905 12.8419 26.267 12.3031 26.8057L10.9567 28.1522C10.4179 28.6909 9.54117 28.6909 9.00273 28.1523ZM12.0616 31.2111C11.8005 30.9502 11.6569 30.6031 11.6569 30.2341C11.6569 29.8651 11.8005 29.5181 12.0616 29.2572L13.408 27.9107C13.408 27.9107 13.408 27.9107 13.408 27.9106C13.669 27.6497 14.0159 27.5059 14.385 27.5059C14.7541 27.5059 15.101 27.6496 15.362 27.9106C15.9007 28.4495 15.9007 29.3259 15.362 29.8646L14.0155 31.2111C13.4768 31.7498 12.6003 31.7498 12.0616 31.2111ZM18.4209 32.9236L17.0744 34.2702C16.8134 34.5311 16.4665 34.6748 16.0974 34.6748C15.7284 34.6748 15.3814 34.5312 15.1205 34.2702C14.5817 33.7313 14.5817 32.8548 15.1205 32.3162L16.467 30.9697C16.467 30.9697 16.467 30.9697 16.467 30.9696C16.7279 30.7087 17.0748 30.5649 17.4439 30.5649C17.8129 30.5649 18.1599 30.7086 18.4209 30.9696C18.6819 31.2305 18.8255 31.5776 18.8255 31.9466C18.8256 32.3158 18.6819 32.6627 18.4209 32.9236ZM33.0096 25.4484C32.7487 25.7094 32.4016 25.853 32.0327 25.853C31.6636 25.853 31.3166 25.7094 31.0557 25.4484L27.8036 22.1962C27.8034 22.1961 27.8034 22.196 27.8032 22.1959L24.7446 19.1373C24.4395 18.8322 23.9448 18.8322 23.6396 19.1373C23.3345 19.4423 23.3345 19.9371 23.6396 20.2422L29.9507 26.5531C30.4895 27.092 30.4895 27.9684 29.9507 28.5071C29.6898 28.7681 29.3427 28.9118 28.9738 28.9118C28.6047 28.9118 28.2577 28.7681 27.9968 28.5071L21.6857 22.1961C21.3805 21.8911 20.8859 21.8911 20.5807 22.1961C20.2756 22.5012 20.2756 22.9959 20.5807 23.3011L23.639 26.3593C23.6392 26.3595 23.6395 26.3598 23.6397 26.3601L26.8919 29.6121C27.4306 30.1509 27.4306 31.0275 26.892 31.5662C26.3531 32.1049 25.4765 32.1049 24.938 31.5662L21.6858 28.314C21.6256 28.2539 21.558 28.2061 21.4861 28.1697L20.5585 27.2421C20.2534 26.9371 19.7588 26.9371 19.4535 27.2421C19.1484 27.5472 19.1484 28.042 19.4535 28.3471L23.8052 32.6987C24.344 33.2375 24.344 34.114 23.8052 34.6527C23.5443 34.9137 23.1973 35.0573 22.8283 35.0573C22.4592 35.0573 22.1123 34.9137 21.8513 34.6527L20.1954 32.9968C20.3216 32.6658 20.3883 32.3113 20.3883 31.9465C20.3883 31.1601 20.082 30.4207 19.5259 29.8646C18.9698 29.3085 18.2304 29.0023 17.4441 29.0023C17.4043 29.0023 17.3648 29.0036 17.3252 29.0052C17.3566 28.2125 17.0709 27.4095 16.4671 26.8057C15.9109 26.2496 15.1716 25.9434 14.3852 25.9434C14.3455 25.9434 14.3059 25.9447 14.2664 25.9463C14.2978 25.1536 14.0121 24.3506 13.4083 23.7468C12.8521 23.1907 12.1127 22.8845 11.3264 22.8845C11.2866 22.8845 11.2471 22.8858 11.2076 22.8873C11.239 22.0947 10.9533 21.2917 10.3495 20.6879C9.20148 19.5399 7.33344 19.54 6.18547 20.6879L4.83906 22.0343C4.66922 22.2041 4.52523 22.39 4.40555 22.5867C2.57031 20.6374 1.56297 18.1033 1.56297 15.4141C1.56297 12.617 2.65219 9.98718 4.63016 8.00937C6.60797 6.03156 9.23781 4.94226 12.0348 4.94226C14.5767 4.94226 16.9803 5.84195 18.882 7.49054L14.0807 12.2919C13.4466 12.926 13.0974 13.7691 13.0974 14.6658C13.0974 15.5626 13.4466 16.4056 14.0807 17.0398C14.7352 17.6942 15.595 18.0215 16.4547 18.0215C17.3144 18.0215 18.1741 17.6943 18.8287 17.0398L20.9562 14.9123H23.7103C23.9377 14.9123 24.1627 14.8967 24.3848 14.8691L33.0101 23.4942C33.5483 24.0332 33.5483 24.9098 33.0096 25.4484Z" fill="#FF7C77"/>
</svg>
