<svg width="40" height="40" viewBox="0 0 40 40" fill="none" xmlns="http://www.w3.org/2000/svg">
<path fill-rule="evenodd" clip-rule="evenodd" d="M10.4516 13.3063C10.8615 13.4418 11.3034 13.2196 11.4385 12.8098C12.665 9.10036 16.1157 6.6083 20.0253 6.6083C25.0109 6.6083 29.0673 10.6644 29.0673 15.6504C29.0673 19.5038 27.3413 21.8061 25.9545 23.656C24.9456 25.0015 24.0743 26.164 24.0743 27.5736C24.0743 27.6663 24.0731 27.7582 24.071 27.8494H20.8065V26.0547C20.8065 25.6232 20.4568 25.2735 20.0253 25.2735C19.5938 25.2735 19.244 25.6232 19.244 26.0547V27.8494H15.9793C15.9771 27.7582 15.9759 27.6663 15.9759 27.5736C15.9759 26.1637 15.1046 25.0015 14.0957 23.6557C13.0743 22.2931 11.9168 20.7486 11.3427 18.5541C11.2335 18.1366 10.8062 17.8867 10.389 17.9959C9.97187 18.1049 9.72193 18.5321 9.83119 18.9493C10.4827 21.4405 11.7929 23.1885 12.8457 24.5929C13.7216 25.7614 14.4134 26.6843 14.4134 27.5736C14.4134 27.9477 14.4293 28.3127 14.4601 28.6609V35.2692C14.4601 35.2902 14.4616 35.3107 14.4631 35.3311C14.4638 35.336 14.4634 35.3412 14.4641 35.3461C14.4668 35.3751 14.4714 35.4032 14.4772 35.4312V35.4318C14.7485 36.7044 15.4431 37.8617 16.4337 38.6902C17.4432 39.5349 18.7188 40 20.0253 40C21.3317 40 22.6071 39.5349 23.6169 38.6902C24.6072 37.8617 25.3021 36.7044 25.5731 35.4318C25.5731 35.4315 25.5734 35.4312 25.5734 35.4309C25.5792 35.4032 25.5834 35.3751 25.5865 35.3461C25.5868 35.3412 25.5868 35.336 25.5871 35.3311C25.5886 35.3104 25.5902 35.2899 25.5902 35.2689V28.6609C25.621 28.3127 25.6372 27.9477 25.6372 27.5736C25.6372 26.6843 26.329 25.7614 27.2048 24.5929C28.6502 22.6648 30.6298 20.0244 30.6298 15.6504C30.6298 9.80288 25.8724 5.0458 20.0253 5.0458C15.4403 5.0458 11.3937 7.96877 9.95509 12.3194C9.81959 12.7289 10.0421 13.1708 10.4516 13.3063ZM20.0253 38.4375C18.4368 38.4375 17.0043 37.4768 16.3256 36.0501H23.7249C23.0459 37.4768 21.6134 38.4375 20.0253 38.4375ZM24.028 34.4876H16.0226V32.731H24.028V34.4876ZM24.028 31.1685H16.0226V29.4119H24.028V31.1685Z" fill="#FF7C77"/>
<path fill-rule="evenodd" clip-rule="evenodd" d="M20.0253 3.6441C20.4568 3.6441 20.8066 3.29437 20.8066 2.86285V0.78125C20.8066 0.349731 20.4568 0 20.0253 0C19.5938 0 19.2441 0.349731 19.2441 0.78125V2.86285C19.2441 3.29437 19.5938 3.6441 20.0253 3.6441Z" fill="#FF7C77"/>
<path fill-rule="evenodd" clip-rule="evenodd" d="M5.15625 16.4316H7.23785C7.66937 16.4316 8.0191 16.0819 8.0191 15.6503C8.0191 15.2188 7.66937 14.8691 7.23785 14.8691H5.15625C4.72473 14.8691 4.375 15.2188 4.375 15.6503C4.375 16.0819 4.72473 16.4316 5.15625 16.4316Z" fill="#FF7C77"/>
<path fill-rule="evenodd" clip-rule="evenodd" d="M23.6023 17.2287C23.6023 16.7972 23.2526 16.4475 22.821 16.4475H17.2296C16.7981 16.4475 16.4484 16.7972 16.4484 17.2287C16.4484 17.6602 16.7981 18.01 17.2296 18.01H19.2441V19.8047C19.2441 20.2362 19.5938 20.5859 20.0253 20.5859C20.4568 20.5859 20.8066 20.2362 20.8066 19.8047V18.01H22.821C23.2526 18.01 23.6023 17.6602 23.6023 17.2287Z" fill="#FF7C77"/>
<path fill-rule="evenodd" clip-rule="evenodd" d="M10.4309 7.16066C10.5835 7.31324 10.7834 7.38954 10.9833 7.38954C11.1832 7.38954 11.3831 7.31324 11.5357 7.16066C11.8408 6.85548 11.8408 6.36079 11.5357 6.05592L10.0638 4.58406C9.75862 4.27888 9.26393 4.27888 8.95876 4.58406C8.65388 4.88893 8.65388 5.38362 8.95876 5.68879L10.4309 7.16066Z" fill="#FF7C77"/>
<path fill-rule="evenodd" clip-rule="evenodd" d="M8.97249 27.4845C9.17238 27.4845 9.37227 27.4082 9.52486 27.2556L10.9967 25.7837C11.3019 25.4785 11.3019 24.9842 10.9967 24.679C10.6915 24.3738 10.1969 24.3738 9.89198 24.679L8.41982 26.1508C8.11494 26.456 8.11494 26.9507 8.41982 27.2556C8.5724 27.4082 8.77229 27.4845 8.97249 27.4845Z" fill="#FF7C77"/>
<path fill-rule="evenodd" clip-rule="evenodd" d="M29.0674 7.38952C29.2673 7.38952 29.4672 7.31323 29.6198 7.16064L31.0916 5.68878C31.3968 5.3836 31.3968 4.88891 31.0916 4.58374C30.7868 4.27856 30.2921 4.27887 29.9869 4.58374L28.515 6.0556C28.2098 6.36077 28.2098 6.85546 28.5147 7.16064C28.6673 7.31323 28.8675 7.38952 29.0674 7.38952Z" fill="#FF7C77"/>
<path fill-rule="evenodd" clip-rule="evenodd" d="M29.054 24.679C28.7488 24.9838 28.7488 25.4785 29.054 25.7837L30.5258 27.2556C30.6784 27.4082 30.8783 27.4845 31.0782 27.4845C31.2781 27.4845 31.478 27.4082 31.6306 27.2556C31.9357 26.9507 31.9357 26.456 31.6306 26.1508L30.1587 24.679C29.8535 24.3738 29.3588 24.3738 29.054 24.679Z" fill="#FF7C77"/>
<path fill-rule="evenodd" clip-rule="evenodd" d="M32.8128 16.4316H34.8944C35.3259 16.4316 35.6757 16.0819 35.6757 15.6503C35.6757 15.2188 35.3259 14.8691 34.8944 14.8691H32.8128C32.3813 14.8691 32.0316 15.2188 32.0316 15.6503C32.0316 16.0819 32.3813 16.4316 32.8128 16.4316Z" fill="#FF7C77"/>
<path fill-rule="evenodd" clip-rule="evenodd" d="M20.0253 22.1484C19.595 22.1484 19.2441 22.4994 19.2441 22.9297C19.2441 23.36 19.595 23.7109 20.0253 23.7109C20.4556 23.7109 20.8066 23.36 20.8066 22.9297C20.8066 22.4994 20.4556 22.1484 20.0253 22.1484Z" fill="#FF7C77"/>
<path fill-rule="evenodd" clip-rule="evenodd" d="M10.9833 15.6503C10.9833 15.22 10.6323 14.8691 10.202 14.8691C9.77142 14.8691 9.42078 15.22 9.42078 15.6503C9.42078 16.0806 9.77142 16.4316 10.202 16.4316C10.6323 16.4316 10.9833 16.0806 10.9833 15.6503Z" fill="#FF7C77"/>
</svg>
