<svg width="40" height="40" viewBox="0 0 40 40" fill="none" xmlns="http://www.w3.org/2000/svg">
<g clip-path="url(#clip0)">
<path d="M7.71689 16.2824C7.5708 16.1363 7.37002 16.0535 7.16385 16.0535C6.95838 16.0535 6.75689 16.1363 6.61158 16.2824C6.46634 16.4277 6.38345 16.6285 6.38345 16.8347C6.38345 17.0401 6.46634 17.2416 6.61158 17.3869C6.75689 17.5322 6.95845 17.6158 7.16385 17.6158C7.3701 17.6158 7.5708 17.5322 7.71689 17.3869C7.86221 17.2408 7.9458 17.0401 7.9458 16.8347C7.9458 16.6293 7.86228 16.4277 7.71689 16.2824Z" fill="#FF7C77"/>
<path d="M39.3797 23.9453L36.3301 20.8957C36.339 20.8821 36.3531 20.8679 36.3737 20.8613C37.0165 20.6525 37.6158 20.2825 38.1074 19.791L38.2034 19.695C39.7837 18.1148 39.9018 15.6618 38.4669 14.2269C37.0321 12.7919 34.579 12.9102 32.9987 14.4905L32.9027 14.5865C32.4115 15.0778 32.0414 15.6774 31.8326 16.3201C31.8259 16.3406 31.8117 16.3548 31.7981 16.3637L28.7486 13.314C28.3551 12.9206 27.8384 12.717 27.3029 12.6979C27.2835 12.1442 27.0683 11.6378 26.6841 11.2537L23.653 8.22258C23.3059 7.87554 22.8007 7.73148 22.3017 7.83687C21.7561 7.95226 21.31 8.33281 21.1082 8.855C20.9682 9.21734 20.7528 9.54562 20.4675 9.83094L20.3714 9.92695C19.4003 10.8981 17.9385 11.0163 17.1128 10.1905C16.7255 9.8032 16.5321 9.26062 16.5682 8.66281C16.6064 8.02945 16.8934 7.41468 17.3764 6.93171L17.4724 6.8357C17.7575 6.55054 18.0858 6.33499 18.4482 6.19499C18.9703 5.9932 19.351 5.5471 19.4663 5.00155C19.5718 4.50249 19.4276 3.99733 19.0805 3.6503L16.0528 0.622483C15.179 -0.251269 13.6978 -0.191738 12.751 0.755139L9.28814 4.21811C9.13189 3.62952 8.82845 3.09874 8.40439 2.67467L8.31908 2.58928C6.88423 1.15436 4.4311 1.27264 2.85078 2.85288C1.27055 4.43312 1.15242 6.88609 2.58742 8.32109L2.67243 8.40601C3.09672 8.83039 3.62758 9.13375 4.21618 9.29L0.753125 12.753C0.306952 13.1992 0.0410138 13.7786 0.00437313 14.3843C-0.0342988 15.0256 0.18453 15.6188 0.620468 16.0548L3.59805 19.0324C3.58993 19.0446 3.57704 19.0576 3.55735 19.0652C2.99047 19.2842 2.47985 19.6185 2.03985 20.0585L1.94383 20.1545C1.19078 20.9077 0.742343 21.8813 0.681015 22.8961C0.617577 23.9466 0.9725 24.9149 1.68039 25.6227C2.38828 26.3306 3.35586 26.6855 4.40696 26.6221C5.4218 26.5607 6.3954 26.1123 7.14853 25.3592L7.24454 25.2632C7.68478 24.8229 8.01892 24.3123 8.2379 23.7457C8.24548 23.726 8.25845 23.7132 8.27064 23.705L11.2517 26.6861C11.6451 27.0796 12.1618 27.2833 12.6974 27.3025C12.7167 27.856 12.9321 28.3623 13.3161 28.7464L16.3452 31.7755L16.3657 31.796C16.3568 31.8096 16.3427 31.8238 16.3221 31.8304C15.6793 32.0392 15.0799 32.4092 14.5885 32.9005L14.4924 32.9966C12.9122 34.5768 12.7941 37.0298 14.2289 38.4647C14.9368 39.1726 15.9045 39.5273 16.9555 39.464C17.9703 39.4027 18.9439 38.9543 19.6971 38.2012L19.7931 38.1052C20.2843 37.6139 20.6544 37.0143 20.8632 36.3715C20.8699 36.351 20.8841 36.3368 20.8977 36.3279L23.9472 39.3776C24.3611 39.7914 24.9112 39.9959 25.4762 39.9959C26.1041 39.9959 26.7506 39.7433 27.249 39.245L30.6386 35.8554C30.8065 36.362 31.0891 36.8228 31.4623 37.196L31.5473 37.281C32.9822 38.7159 35.4352 38.5976 37.0155 37.0175C38.5957 35.4372 38.7139 32.9843 37.2789 31.5491L37.1939 31.4641C36.8208 31.0911 36.3601 30.8084 35.8534 30.6406L39.2469 27.2471C39.693 26.8009 39.959 26.2215 39.9956 25.6158C40.0344 24.9745 39.8156 24.3812 39.3797 23.9453ZM13.4484 25.4447C13.4376 25.4555 13.4274 25.4667 13.4169 25.4776C13.0854 25.7834 12.6081 25.8335 12.356 25.5814L9.32525 22.5503C9.05306 22.278 8.68353 22.1306 8.29595 22.1306C8.18939 22.1306 8.0815 22.1417 7.97384 22.1645C7.42829 22.2798 6.98212 22.6603 6.7804 23.1826C6.6404 23.5449 6.42493 23.8732 6.1397 24.1585L6.04368 24.2545C5.56087 24.7373 4.9461 25.0243 4.31266 25.0626C3.71454 25.0989 3.17219 24.9053 2.785 24.5181C2.39774 24.1308 2.2043 23.5882 2.24039 22.9904C2.27867 22.357 2.56563 21.7422 3.04852 21.2594L3.14454 21.1633C3.42961 20.8781 3.75797 20.6626 4.12032 20.5226C4.64251 20.3208 5.02313 19.8747 5.13845 19.3292C5.24399 18.8301 5.09977 18.3249 4.75266 17.9779L1.725 14.9502C1.56922 14.7945 1.55711 14.5879 1.56367 14.4787C1.57727 14.2544 1.68164 14.0341 1.85774 13.858L2.47016 13.2456L4.80868 15.5842C4.96126 15.7367 5.16118 15.813 5.36102 15.813C5.56087 15.813 5.76079 15.7367 5.91337 15.5842C6.21845 15.2791 6.21845 14.7845 5.91337 14.4795L3.57493 12.1406L5.35595 10.3596C5.77876 9.93672 5.94087 9.33398 5.77876 8.78672C5.62899 8.28094 5.23079 7.9132 4.71344 7.80312C4.34704 7.72515 4.03188 7.55632 3.7768 7.30125L3.6918 7.21625C2.86602 6.39054 2.98422 4.92866 3.95532 3.95757C4.92634 2.98647 6.38821 2.86827 7.21384 3.69374L7.29923 3.77921C7.55423 4.03413 7.72298 4.34921 7.80095 4.71569C7.91095 5.23296 8.27861 5.63124 8.78455 5.78093C9.33166 5.94304 9.93447 5.78093 10.3576 5.35796L13.8556 1.85991C14.1877 1.52788 14.6879 1.46725 14.9479 1.72725L17.9255 4.70483C17.9174 4.71702 17.9045 4.72999 17.8848 4.73757C17.3179 4.95663 16.8073 5.29085 16.3672 5.73101L16.2712 5.82702C15.5182 6.58007 15.0697 7.55375 15.0084 8.56859C14.9449 9.61906 15.2999 10.5873 16.0078 11.2952C17.4426 12.73 19.8957 12.6118 21.4761 11.0315L21.5721 10.9355C22.0123 10.4952 22.3464 9.98461 22.5654 9.41797C22.573 9.39836 22.586 9.38547 22.5982 9.37734L25.5792 12.3584C25.735 12.5141 25.7471 12.7208 25.7405 12.8299C25.7277 13.0409 25.6338 13.2479 25.4762 13.4183C25.4664 13.4278 25.4563 13.4369 25.4465 13.4466C25.4334 13.4598 25.4216 13.4737 25.4096 13.4875L21.9482 16.9488C21.5254 17.3717 21.3633 17.9745 21.5254 18.5217C21.6752 19.0275 22.0734 19.3953 22.5907 19.5053C22.9571 19.5833 23.2723 19.7521 23.5272 20.0071L23.6124 20.0922C24.4382 20.918 24.32 22.3798 23.3489 23.3509C22.3778 24.3219 20.916 24.4402 20.0902 23.6146L20.005 23.5293C19.75 23.2743 19.5812 22.9592 19.5032 22.5928C19.3932 22.0755 19.0256 21.6772 18.5196 21.5275C17.9725 21.3655 17.3696 21.5274 16.9467 21.9503L13.489 25.4081C13.4751 25.4201 13.4614 25.4317 13.4484 25.4447ZM38.4362 25.5216C38.4226 25.7459 38.3182 25.9662 38.1421 26.1423L34.7214 29.563C34.3127 29.9717 34.1459 30.5575 34.2862 31.0918C34.4155 31.5845 34.7851 31.9604 35.2748 32.097C35.5901 32.1849 35.864 32.3437 36.0894 32.5689L36.1744 32.654C37.0001 33.4797 36.8819 34.9415 35.9108 35.9126C34.9398 36.8836 33.4779 37.0019 32.6519 36.1761L32.5669 36.0911C32.3418 35.866 32.1831 35.592 32.0951 35.2768C31.9584 34.787 31.5826 34.4174 31.0899 34.2881C30.5558 34.1478 29.9699 34.3147 29.5611 34.7234L26.1443 38.1403C25.8123 38.4723 25.3122 38.5329 25.0522 38.2729L24.0135 37.2343L27.0013 34.2465C27.3064 33.9414 27.3064 33.4468 27.0013 33.1416C26.6961 32.8365 26.2017 32.8365 25.8965 33.1416L22.9087 36.1294L21.9524 35.1731C21.5935 34.8142 21.0725 34.6736 20.5589 34.7969C20.0057 34.9297 19.5529 35.3481 19.3774 35.889C19.2444 36.2983 19.0062 36.6827 18.6885 37.0004L18.5925 37.0965C18.1096 37.5793 17.4949 37.8663 16.8614 37.9046C16.2642 37.9408 15.721 37.7473 15.3338 37.3601C14.508 36.5343 14.6262 35.0725 15.5973 34.1013L15.6933 34.0053C16.0111 33.6875 16.3955 33.4493 16.8048 33.3164C17.3455 33.1407 17.7639 32.6881 17.8968 32.1349C18.0202 31.6212 17.8796 31.1002 17.5208 30.7414L14.421 27.6416C14.2653 27.4859 14.2531 27.2793 14.2597 27.1701C14.2725 26.9587 14.3668 26.7513 14.525 26.5807C14.5346 26.5714 14.5443 26.5628 14.5537 26.5533L18.0166 23.0903C18.1728 23.6789 18.4762 24.2097 18.9005 24.6339L18.9857 24.7192C20.4207 26.154 22.8736 26.0359 24.4539 24.4556C26.0342 22.8753 26.1523 20.4224 24.7175 18.9874L24.6323 18.9024C24.208 18.4781 23.6771 18.1746 23.0886 18.0184L26.5515 14.5554C26.5622 14.5446 26.5724 14.5334 26.5829 14.5226C26.9144 14.2168 27.3918 14.1666 27.6439 14.4187L30.7436 17.5185C31.1026 17.8773 31.6234 18.0179 32.1371 17.8946C32.6903 17.7618 33.1431 17.3435 33.3187 16.8026C33.4516 16.3932 33.6899 16.0088 34.0076 15.6911L34.1037 15.5951C35.0747 14.624 36.5365 14.5058 37.3623 15.3316C38.1881 16.1574 38.0699 17.6192 37.0987 18.5903L37.0028 18.6863C36.685 19.0041 36.3006 19.2422 35.8912 19.3752C35.3506 19.5508 34.9322 20.0035 34.7993 20.5567C34.6759 21.0703 34.8165 21.5913 35.1753 21.9502L38.2751 25.05C38.4306 25.2057 38.4427 25.4124 38.4362 25.5216Z" fill="#FF7C77"/>
<path d="M29.2912 30.852C29.1451 30.7066 28.9445 30.6231 28.7382 30.6231C28.5327 30.6231 28.3312 30.7066 28.186 30.852C28.0407 30.9973 27.957 31.1988 27.957 31.4042C27.957 31.6097 28.0406 31.8112 28.186 31.9565C28.3312 32.1018 28.5328 32.1854 28.7382 32.1854C28.9445 32.1854 29.1451 32.1018 29.2912 31.9565C29.4365 31.8112 29.5202 31.6096 29.5202 31.4042C29.5201 31.1988 29.4365 30.9973 29.2912 30.852Z" fill="#FF7C77"/>
</g>
<defs>
<clipPath id="clip0">
<rect width="40" height="40" fill="white"/>
</clipPath>
</defs>
</svg>
