<svg width="40" height="40" viewBox="0 0 40 40" fill="none" xmlns="http://www.w3.org/2000/svg">
<path d="M11.1719 3.59375C11.1719 4.02527 10.8221 4.375 10.3906 4.375C9.95911 4.375 9.60938 4.02527 9.60938 3.59375C9.60938 3.16223 9.95911 2.8125 10.3906 2.8125C10.8221 2.8125 11.1719 3.16223 11.1719 3.59375Z" fill="#FF7C77"/>
<path d="M29.6094 2.8125C25.1715 2.8125 21.9156 5.78705 20.0018 9.73236C19.0857 7.83691 17.2592 4.97498 14.1495 3.59589C13.7552 3.42102 13.2935 3.59894 13.1186 3.99323C12.9437 4.38782 13.1216 4.84924 13.5159 5.02411C17.63 6.84875 19.2368 11.9727 19.2523 12.0233C19.3518 12.3523 19.6552 12.5772 19.9991 12.5775H20C20.3436 12.5775 20.647 12.3529 20.7474 12.0242C21.6739 8.97186 24.6866 4.375 29.6094 4.375C34.5596 4.375 38.4375 8.54523 38.4375 13.8687C38.4375 16.4893 37.4594 18.8745 35.2747 21.5625H29.0329L26.6125 12.7615C26.5213 12.4301 26.2241 12.197 25.8801 12.1878C25.5386 12.1771 25.2271 12.3953 25.1181 12.7219L21.1719 24.5609L19.5694 19.7531C19.4629 19.4339 19.1644 19.2188 18.8281 19.2188H14.7037L12.5381 12.7219C12.4292 12.3953 12.1213 12.1753 11.7761 12.1878C11.4322 12.197 11.1346 12.4301 11.0437 12.7615L8.62335 21.5625H4.72534C2.54059 18.8745 1.5625 16.4893 1.5625 13.8687C1.5625 9.84161 3.78571 6.35071 7.22626 4.97528C7.62695 4.81506 7.82196 4.36035 7.66174 3.95966C7.50183 3.55896 7.04712 3.36395 6.64642 3.52448C2.69379 5.10437 0 9.16077 0 13.8687C0 16.4993 0.882263 18.9755 2.75635 21.5625H0.78125C0.349731 21.5625 0 21.9122 0 22.3438C0 22.7753 0.349731 23.125 0.78125 23.125H3.99536C7.46582 27.1613 12.9935 31.3141 19.4855 36.9943C19.6329 37.1231 19.8163 37.1875 20 37.1875C20.1837 37.1875 20.3671 37.1231 20.5145 36.9943C26.9989 31.3208 32.5363 27.1591 36.0046 23.125H39.2188C39.6503 23.125 40 22.7753 40 22.3438C40 21.9122 39.6503 21.5625 39.2188 21.5625H37.2437C39.1177 18.9752 40 16.4993 40 13.8687C40 7.88391 35.6107 2.8125 29.6094 2.8125ZM20 35.3696C14.3115 30.4224 9.41589 26.6522 6.09833 23.125H9.21875C9.57031 23.125 9.87885 22.89 9.97192 22.551L11.8686 15.6543L13.3994 20.2469C13.5059 20.5661 13.8043 20.7812 14.1406 20.7812H18.2651L20.4306 27.2781C20.5368 27.5974 20.8356 27.8125 21.1719 27.8125C21.5082 27.8125 21.8066 27.5974 21.9128 27.2781L25.7877 15.6543L27.684 22.551C27.7774 22.89 28.0856 23.1241 28.4375 23.1241H33.9017C30.5853 26.6501 25.6808 30.4291 20 35.3696Z" fill="#FF7C77"/>
</svg>
