<svg width="40" height="40" viewBox="0 0 40 40" fill="none" xmlns="http://www.w3.org/2000/svg">
<path d="M39.5908 17.6589L38.1866 15.6537C37.9382 15.2989 37.4491 15.2126 37.0941 15.4611C36.7394 15.7095 36.6531 16.1986 36.9016 16.5535L38.3054 18.5583C38.3878 18.6762 38.4313 18.8138 38.4313 18.956C38.4313 19.1826 38.3205 19.3955 38.1348 19.5256C37.9829 19.632 37.7987 19.673 37.6166 19.6407C37.4341 19.6085 37.275 19.5072 37.1687 19.3556L33.9467 14.7532C33.7503 14.4728 33.395 14.3522 33.0683 14.455C32.7419 14.558 32.5198 14.8607 32.5198 15.2031V23.488V32.4538H30.4123V23.4878C30.4123 23.0547 30.0611 22.7035 29.628 22.7035C29.1949 22.7035 28.8437 23.0548 28.8437 23.4878V32.4536H26.7362V29.286C26.8819 29.2268 27.0215 29.1511 27.1526 29.0591C27.7121 28.6672 28.0462 28.025 28.0462 27.3414C28.0462 26.9179 27.9197 26.5097 27.6803 26.1596L26.7364 24.6546V15.2046C26.7364 14.8624 26.5144 14.5595 26.1879 14.4566C25.8613 14.3537 25.5058 14.4743 25.3096 14.7548L23.4961 17.3449C23.3951 16.8065 23.1702 16.2994 22.8385 15.864L26.1022 11.2033C26.2641 10.9717 26.5297 10.8335 26.8126 10.8335H32.4448C32.7276 10.8335 32.9932 10.9717 33.1554 11.2035L34.4662 13.0752C34.7147 13.43 35.2036 13.5163 35.5586 13.2678C35.9134 13.0194 35.9996 12.5303 35.7512 12.1754L34.4405 10.3039C34.0346 9.72376 33.3972 9.3529 32.7006 9.27923C33.169 8.64532 33.4466 7.86227 33.4466 7.01539C33.4466 4.90961 31.7337 3.19648 29.6283 3.19648C27.523 3.19648 25.8102 4.90969 25.8102 7.01539C25.8102 7.86227 26.0878 8.64532 26.5561 9.2793C25.8599 9.35313 25.2229 9.72384 24.8172 10.3036L21.629 14.8565C21.1405 14.6092 20.5975 14.4767 20.0415 14.4767C19.4601 14.4767 18.8957 14.6201 18.3927 14.8878L15.1828 10.3039C14.7769 9.72376 14.1396 9.3529 13.4431 9.27923C13.9114 8.64532 14.1889 7.86227 14.1889 7.01539C14.1889 4.90961 12.4761 3.19648 10.3708 3.19648C8.26502 3.19648 6.55189 4.90969 6.55189 7.01539C6.55189 7.86235 6.82955 8.6454 7.29806 9.2793C6.60166 9.35329 5.96455 9.72391 5.55892 10.3037L0.408362 17.6592C-0.30703 18.6815 -0.0575764 20.0952 0.963363 20.8096C1.34594 21.0784 1.79477 21.2203 2.26118 21.2203C2.99821 21.2203 3.69126 20.8598 4.11548 20.2552L5.90994 17.6922V23.4878V33.2379C5.90994 33.671 6.26119 34.0222 6.69423 34.0222H10.3704H14.0457C14.4789 34.0222 14.83 33.6709 14.83 33.2379V29.3175C15.2362 29.1737 15.5946 28.9069 15.8481 28.545C15.8628 28.5239 15.8764 28.5021 15.8891 28.4798L15.997 28.2881V30.0793V36.0191C15.997 36.4522 16.3482 36.8034 16.7813 36.8034H20.0411H23.3008C23.7339 36.8034 24.085 36.4522 24.085 36.0191V30.0793V28.288L24.1929 28.4797C24.2055 28.5021 24.2192 28.5239 24.234 28.545C24.4697 28.8814 24.7961 29.1356 25.1673 29.2853V33.2379C25.1673 33.671 25.5186 34.0222 25.9516 34.0222H29.6278H33.304C33.7371 34.0222 34.0883 33.6709 34.0883 33.2379V23.4878V17.691L35.8837 20.2555C36.2303 20.7503 36.749 21.0807 37.3439 21.1855C37.9392 21.2906 38.5398 21.1572 39.0348 20.8103C39.639 20.3871 39.9998 19.6939 39.9998 18.956C40.0001 18.4905 39.8587 18.0422 39.5908 17.6589ZM29.6281 4.76508C30.8684 4.76508 31.8776 5.77453 31.8776 7.01531C31.8776 8.25563 30.8685 9.26477 29.6281 9.26477C28.3877 9.26477 27.3787 8.25571 27.3787 7.01531C27.3787 5.77453 28.3877 4.76508 29.6281 4.76508ZM25.1676 17.6924V22.1517L24.4031 20.9324C24.3959 20.921 24.3884 20.9097 24.3808 20.8986C24.144 20.5612 23.8227 20.3002 23.4565 20.1364L25.1676 17.6924ZM18.7279 16.5555C19.0869 16.2265 19.5533 16.0453 20.0412 16.0453C20.511 16.0453 20.9646 16.2151 21.3182 16.5231C21.3184 16.5232 21.3186 16.5234 21.3188 16.5236C21.7445 16.8937 21.9887 17.4292 21.9887 17.9928C21.9887 18.7042 21.6004 19.3592 20.976 19.7017C20.6867 19.8601 20.3723 19.9403 20.0412 19.9403C19.7132 19.9403 19.3889 19.8574 19.1043 19.7011C18.4805 19.3577 18.0929 18.703 18.0929 17.9928C18.0929 17.4474 18.3239 16.9239 18.7279 16.5555ZM10.3704 4.76508C11.6107 4.76508 12.6199 5.77453 12.6199 7.01531C12.6199 8.25563 11.6108 9.26477 10.3704 9.26477C9.12963 9.26477 8.12017 8.25571 8.12017 7.01531C8.12017 5.77453 9.12955 4.76508 10.3704 4.76508ZM13.2615 15.2031V24.79L12.4034 26.1592C12.0915 26.6139 11.9727 27.1625 12.0685 27.7066C12.1657 28.2581 12.4717 28.7384 12.9285 29.0581C13.0338 29.1322 13.1456 29.195 13.2615 29.2482V32.4537H11.1547V23.4878C11.1547 23.0547 10.8035 22.7035 10.3704 22.7035C9.93737 22.7035 9.58604 23.0547 9.58604 23.4878V32.4536H7.47853V23.4878V15.2046C7.47853 14.8624 7.2565 14.5595 6.93002 14.4566C6.60353 14.3537 6.24806 14.4743 6.05173 14.7548L2.83095 19.3549C2.70048 19.5407 2.48758 19.6517 2.2611 19.6517C2.11899 19.6517 1.98196 19.6081 1.86376 19.5252C1.71188 19.419 1.61055 19.2599 1.57844 19.0775C1.54625 18.895 1.58704 18.7107 1.69344 18.5589L6.84353 11.2033C7.00549 10.9717 7.27134 10.8335 7.55463 10.8335H13.1869C13.4696 10.8335 13.7353 10.9717 13.8975 11.2035L17.2012 15.9215C16.8746 16.3696 16.6568 16.89 16.5687 17.4386L14.6882 14.7531C14.4917 14.4727 14.136 14.3522 13.81 14.455C13.4835 14.558 13.2615 14.8607 13.2615 15.2031ZM16.5637 20.1663C16.2229 20.3312 15.924 20.5809 15.7011 20.8995C15.6935 20.9103 15.6863 20.9212 15.6793 20.9324L14.8301 22.2873V17.6905L16.5637 20.1663ZM26.2516 27.7747C26.1638 27.8364 26.0611 27.8691 25.9547 27.8697C25.9537 27.8697 25.9528 27.8696 25.9518 27.8696C25.9506 27.8696 25.9494 27.8697 25.9483 27.8697C25.7872 27.8686 25.6358 27.7945 25.5368 27.6691L23.9843 24.9103C23.8095 24.5996 23.4474 24.446 23.102 24.5362C22.7572 24.6267 22.5165 24.9383 22.5165 25.295V30.0793V35.2347H20.8255V30.0793C20.8255 29.6462 20.4743 29.295 20.0412 29.295C19.6081 29.295 19.2569 29.6463 19.2569 30.0793V35.2347H17.5657V30.0793V25.2966C17.5657 24.94 17.3253 24.6282 16.9803 24.5379C16.6354 24.4472 16.2728 24.6011 16.098 24.9118L14.5455 27.6692C14.4458 27.7954 14.2931 27.87 14.1312 27.87C14.124 27.87 14.117 27.8701 14.1097 27.8695C14.1051 27.8691 14.1007 27.8688 14.096 27.8685C13.9994 27.8623 13.9103 27.8309 13.8296 27.774C13.7145 27.6936 13.6377 27.5729 13.6133 27.4344C13.5889 27.2957 13.6198 27.1561 13.7005 27.041C13.7082 27.0299 13.7157 27.0187 13.7228 27.0072L16.9958 21.7856C17.1233 21.6121 17.3271 21.5091 17.5439 21.5091H22.5385C22.7548 21.5091 22.9585 21.6123 23.0868 21.7861L25.2743 25.275C25.2786 25.2824 25.2829 25.2896 25.2875 25.2968L26.3605 27.0075C26.3674 27.0186 26.3747 27.0293 26.382 27.04C26.4444 27.1294 26.4775 27.2336 26.4775 27.3413C26.4773 27.5137 26.3932 27.6756 26.2516 27.7747Z" fill="#FF7C77"/>
<path d="M36.2745 13.6076C35.2651 13.6076 35.2634 15.1763 36.2745 15.1763C37.2838 15.1763 37.2855 13.6076 36.2745 13.6076Z" fill="#FF7C77"/>
</svg>
