<svg width="40" height="40" viewBox="0 0 40 40" fill="none" xmlns="http://www.w3.org/2000/svg">
<g clip-path="url(#clip0)">
<path d="M39.872 16.8413L33.4665 7.07376C33.322 6.8536 33.0766 6.72095 32.8133 6.72095H7.21696C6.95423 6.72095 6.70915 6.85298 6.56462 7.07243L0.148834 16.8109C0.118287 16.853 0.0918031 16.8984 0.0696937 16.947C-0.0569469 17.2263 -0.0085094 17.5537 0.193522 17.7843L3.44548 21.4974C3.72977 21.822 4.22321 21.8546 4.54774 21.5704C4.87227 21.2861 4.90493 20.7926 4.62071 20.4681L2.50376 18.0509H13.0116L18.2919 36.078L12.3251 29.2651C12.0409 28.9405 11.5473 28.9078 11.2228 29.192C10.8983 29.4763 10.8656 29.9699 11.1498 30.2943L19.4147 39.7311C19.563 39.9005 19.7773 39.9977 20.0023 39.9977C20.2275 39.9977 20.4416 39.9005 20.5899 39.731L29.3891 29.6817C29.6734 29.357 29.6407 28.8635 29.316 28.5794C28.9913 28.2951 28.4978 28.3278 28.2138 28.6525L21.713 36.077L26.993 18.0508H37.4965L32.6384 23.5992C32.3541 23.9238 32.3869 24.4174 32.7116 24.7015C32.8598 24.8313 33.0432 24.895 33.2259 24.895C33.4432 24.895 33.6595 24.8048 33.8138 24.6284L39.8065 17.7842C40.0376 17.5203 40.0644 17.1347 39.872 16.8413ZM2.23219 16.4885L7.2154 8.92439L12.1759 16.4885H2.23219ZM8.66337 8.28337H18.5558L13.6096 15.8256L8.66337 8.28337ZM20.0023 8.92665L24.9613 16.4885H15.0433L20.0023 8.92665ZM20.0023 36.3595L14.6396 18.0509H25.3649L20.0023 36.3595ZM26.4077 15.8452L21.4488 8.28337H31.3669L26.4077 15.8452ZM27.8542 16.4885L32.8133 8.92665L37.7722 16.4885H27.8542Z" fill="#FF7C77"/>
<path d="M12.2804 25.5483C10.2653 25.5483 8.62585 23.9088 8.62585 21.8937C8.62585 21.4623 8.27609 21.1125 7.84468 21.1125C7.41328 21.1125 7.06351 21.4623 7.06351 21.8937C7.06351 23.9088 5.42406 25.5483 3.40898 25.5483C2.97765 25.5483 2.62781 25.898 2.62781 26.3294C2.62781 26.7608 2.97765 27.1106 3.40898 27.1106C5.42406 27.1106 7.06351 28.75 7.06351 30.7651C7.06351 31.1965 7.41335 31.5463 7.84468 31.5463C8.27601 31.5463 8.62585 31.1965 8.62585 30.7651C8.62585 28.75 10.2653 27.1106 12.2804 27.1106C12.7118 27.1106 13.0616 26.7608 13.0616 26.3294C13.0616 25.898 12.7118 25.5483 12.2804 25.5483ZM7.84468 28.0217C7.41882 27.3356 6.83851 26.7554 6.1525 26.3294C6.83851 25.9036 7.41875 25.3233 7.84468 24.6372C8.27054 25.3233 8.85085 25.9035 9.53687 26.3294C8.85085 26.7554 8.27062 27.3355 7.84468 28.0217Z" fill="#FF7C77"/>
<path d="M39.2188 3.12688C37.9267 3.12688 36.8753 2.07556 36.8753 0.783369C36.8753 0.351963 36.5255 0.00219727 36.0942 0.00219727C35.6628 0.00219727 35.313 0.351963 35.313 0.783369C35.313 2.07556 34.2617 3.12688 32.9695 3.12688C32.5381 3.12688 32.1883 3.47665 32.1883 3.90806C32.1883 4.33946 32.5381 4.68923 32.9695 4.68923C34.2617 4.68923 35.313 5.74056 35.313 7.03274C35.313 7.46415 35.6628 7.81392 36.0942 7.81392C36.5255 7.81392 36.8753 7.46415 36.8753 7.03274C36.8753 5.74056 37.9267 4.68923 39.2188 4.68923C39.6502 4.68923 40 4.33946 40 3.90806C40 3.47665 39.6502 3.12688 39.2188 3.12688ZM36.0942 4.69165C35.8713 4.39493 35.6073 4.13095 35.3106 3.90806C35.6073 3.68517 35.8713 3.42118 36.0942 3.12446C36.317 3.42118 36.581 3.68517 36.8777 3.90806C36.581 4.13087 36.317 4.39493 36.0942 4.69165Z" fill="#FF7C77"/>
<path d="M31.4674 26.2008C31.3222 26.0547 31.1206 25.9719 30.9152 25.9719C30.7097 25.9719 30.509 26.0547 30.3629 26.2008C30.2176 26.3461 30.134 26.5477 30.134 26.7531C30.134 26.9585 30.2175 27.16 30.3629 27.3054C30.5083 27.4507 30.7097 27.5343 30.9152 27.5343C31.1207 27.5343 31.3222 27.4507 31.4674 27.3054C31.6127 27.16 31.6964 26.9585 31.6964 26.7531C31.6964 26.5477 31.6128 26.3461 31.4674 26.2008Z" fill="#FF7C77"/>
</g>
<defs>
<clipPath id="clip0">
<rect width="40" height="40" fill="white"/>
</clipPath>
</defs>
</svg>
