<svg width="80" height="80" viewBox="0 0 80 80" fill="none" xmlns="http://www.w3.org/2000/svg">
<path d="M71.5637 3.88669H19.833C15.3435 3.88669 11.6909 7.50511 11.6909 11.9383L11.3575 57.4899H1.26202C0.546562 57.4899 3.8147e-06 58.1225 3.8147e-06 58.838V65.107C3.8147e-06 70.9755 4.69636 75.775 10.3644 76.0381V76.1134H53.9271V76.0286C54.251 76.0419 54.4471 76.1134 54.6698 76.1134H54.7008C60.7458 76.078 65.6186 71.1507 65.587 65.1057V25.2632H78.738C79.4534 25.2632 80 24.6154 80 23.9006V12.3982C80.0082 7.72335 76.2386 3.92022 71.5637 3.88669V3.88669ZM10.9312 73.5223H10.9223C6.31389 73.5223 2.5911 69.7135 2.5911 65.1057V60.081H43.7247V65.0842C43.7146 68.0004 44.8665 70.8003 46.9256 72.8651C47.1445 73.0852 47.3735 73.1984 47.6075 73.5223H10.9312ZM62.9959 65.1044C62.9959 69.7135 59.3092 73.5223 54.6989 73.5223H54.6723C50.0392 73.4888 46.305 69.7179 46.3158 65.0848V58.838C46.3196 58.1124 45.7458 57.5152 45.0202 57.4899H13.9486L14.282 11.9472C14.282 8.93413 16.7719 6.47778 19.833 6.47778H65.4472C63.9708 8.09721 62.9959 10.1462 62.9959 12.433V65.1044ZM77.4089 12.421V22.6721H65.587V12.4305C65.587 9.1878 68.2844 6.47778 71.5258 6.47778H71.5618C74.8115 6.51004 77.4241 9.16123 77.4089 12.4115V12.421Z" fill="#FF7C77"/>
<path d="M30.422 35.7756L37.1015 40.3423C37.5373 40.6427 38.1136 40.6427 38.5495 40.3423L45.2088 35.7768C47.5222 34.1985 49.2308 30.8989 49.2308 28.101V18.8614C49.2447 18.373 48.9752 17.9201 48.54 17.698L38.3698 12.6955C38.013 12.5184 37.5943 12.5184 37.2375 12.6955L27.0863 17.6841C26.6511 17.9061 26.3822 18.3591 26.3968 18.8474V28.101C26.3968 30.8989 28.1092 34.1985 30.422 35.7756ZM28.9879 19.6559L37.8138 15.3011L46.6397 19.6679V28.101C46.6397 30.0525 45.3606 32.5348 43.7469 33.6349L37.7986 37.7031L31.8738 33.6355C30.26 32.5342 28.9879 30.0525 28.9879 28.101V19.6559Z" fill="#FF7C77"/>
<path d="M35.6225 30.0569C35.8641 30.3036 36.1943 30.4435 36.5397 30.4453H36.5429C36.887 30.4441 37.2166 30.3062 37.4589 30.062L42.6126 24.9064C43.1193 24.4003 43.1193 23.5792 42.6133 23.0731C42.1078 22.5664 41.2867 22.5664 40.7806 23.0725L36.5473 27.3052L34.8551 25.5965C34.351 25.0879 33.5305 25.0841 33.0219 25.5883C32.5133 26.0925 32.5101 26.913 33.0137 27.4216L35.6225 30.0569Z" fill="#FF7C77"/>
<path d="M53.9271 44.0486H22.834C22.1185 44.0486 21.5384 44.6287 21.5384 45.3441C21.5384 46.0596 22.1185 46.6397 22.834 46.6397H53.9271C54.6426 46.6397 55.2227 46.0596 55.2227 45.3441C55.2227 44.6287 54.6426 44.0486 53.9271 44.0486Z" fill="#FF7C77"/>
<path d="M53.9271 50.0405H22.834C22.1185 50.0405 21.5384 50.6206 21.5384 51.336C21.5384 52.0515 22.1185 52.6316 22.834 52.6316H53.9271C54.6426 52.6316 55.2227 52.0515 55.2227 51.336C55.2227 50.6206 54.6426 50.0405 53.9271 50.0405Z" fill="#FF7C77"/>
</svg>
