<svg width="60" height="60" viewBox="0 0 60 60" fill="none" xmlns="http://www.w3.org/2000/svg">
<path d="M58.8993 1.9634C58.7926 1.55275 58.4723 1.232 58.0619 1.12453L58.0459 1.12031C52.2669 -0.391469 46.1651 -0.364398 40.3997 1.19883C35.4402 2.5435 30.8405 4.99575 26.9627 8.34348C23.2637 7.43418 19.377 7.47484 15.697 8.4704C11.9016 9.497 8.42603 11.5092 5.64575 14.2892L0.343258 19.592C-0.114379 20.0496 -0.114379 20.7917 0.343258 21.2494L7.13457 28.0407L0.343258 34.832C-0.114379 35.2897 -0.114379 36.0317 0.343258 36.4895C0.572135 36.7182 0.872031 36.8327 1.17193 36.8327C1.47182 36.8327 1.77184 36.7182 2.00059 36.4895L8.7919 29.6982L10.6551 31.5614L7.5179 34.6988C7.06027 35.1564 7.06027 35.8985 7.5179 36.3562L9.60932 38.4477C6.4184 42.0532 4.62711 46.7886 4.66286 51.6183L4.68161 54.1372C4.68641 54.7776 5.20429 55.2956 5.84474 55.3004L8.36345 55.319C8.41091 55.3194 8.45814 55.3195 8.5056 55.3195C13.2859 55.3195 17.9641 53.5322 21.5341 50.3726L23.7186 52.5571C23.9383 52.7768 24.2365 52.9003 24.5473 52.9003C24.8581 52.9003 25.1562 52.7768 25.3759 52.5571L28.5132 49.4197L38.7321 59.6386C38.961 59.8674 39.2609 59.9819 39.5608 59.9819C39.8607 59.9819 40.1607 59.8674 40.3895 59.6386L45.8242 54.2041C48.5675 51.4607 50.566 48.0345 51.6037 44.2963C52.6374 40.5727 52.6938 36.6234 51.7685 32.8718C55.0561 29.0267 57.4682 24.4808 58.8001 19.5838C60.3655 13.8286 60.3997 7.7356 58.8993 1.9634ZM7.30321 15.9467C11.9132 11.3368 18.5019 9.25875 24.8705 10.3046L8.7919 26.3833L2.82926 20.4208L7.30321 15.9467ZM8.50619 52.9755C8.4647 52.9755 8.42251 52.9754 8.38103 52.9751L7.0169 52.965L7.00671 51.6008C6.97553 47.3946 8.51791 43.2695 11.2699 40.1079L19.8739 48.7118C16.7435 51.4368 12.6691 52.9755 8.50619 52.9755ZM24.5475 50.0707L22.3895 47.9127C22.3895 47.9127 22.3895 47.9127 22.3894 47.9126L22.3893 47.9125L12.0695 37.5929C12.0694 37.5927 12.0693 37.5925 12.0691 37.5924C12.0688 37.5923 12.0687 37.5922 12.0686 37.5919L10.004 35.5273L12.3126 33.2188L26.8561 47.7622L24.5475 50.0707ZM44.1672 52.5465L39.5612 57.1524L33.5986 51.1899L49.8081 34.9804C50.8503 41.3443 48.7633 47.9502 44.1672 52.5465ZM48.3042 33.1695L31.9412 49.5324L31.7536 49.3448C31.7533 49.3446 31.7532 49.3445 31.753 49.3442L10.4492 28.0406L13.7111 24.7788L29.4028 40.4706C29.6317 40.6994 29.9316 40.8139 30.2315 40.8139C30.5314 40.8139 30.8314 40.6994 31.0601 40.4706C31.5178 40.013 31.5178 39.2709 31.0601 38.8132L15.3685 23.1213L26.7879 11.702C34.6156 3.87434 46.0575 0.658107 56.7974 3.22392C59.3349 13.9441 56.1137 25.3599 48.3042 33.1695Z" fill="white"/>
<path d="M37.8645 10.6758C34.8015 10.6758 31.9218 11.8687 29.756 14.0345C27.59 16.2004 26.3972 19.0801 26.3972 22.1431C26.3972 25.2063 27.59 28.0859 29.756 30.2517C31.9219 32.4176 34.8016 33.6105 37.8646 33.6105C40.9277 33.6105 43.8074 32.4176 45.9733 30.2517C50.4444 25.7806 50.4444 18.5056 45.9733 14.0344C43.8072 11.8687 40.9275 10.6758 37.8645 10.6758ZM28.7958 23.1363C30.279 22.8112 31.8397 23.2493 32.9411 24.3509L35.724 27.1337C36.8078 28.2175 37.2507 29.7557 36.9507 31.2217C34.8589 31.015 32.9191 30.1006 31.4132 28.5945C29.9264 27.1076 29.0177 25.1976 28.7958 23.1363ZM35.338 22.5107C35.338 21.9161 35.5695 21.3569 35.9899 20.9365L36.5908 20.3357C37.0112 19.9152 37.5703 19.6838 38.1649 19.6838C38.7595 19.6838 39.3185 19.9154 39.739 20.3358C40.1595 20.7563 40.391 21.3152 40.391 21.91C40.391 22.5047 40.1594 23.0636 39.739 23.4841C39.739 23.4841 39.739 23.4841 39.739 23.4842L39.1384 24.0848C38.2705 24.9528 36.8585 24.9529 35.9904 24.0851L35.9898 24.0845C35.5694 23.6641 35.338 23.1052 35.338 22.5107ZM44.3159 28.5945C42.9454 29.965 41.2154 30.8437 39.3389 31.1469C39.5148 29.7045 39.2258 28.2439 38.5171 26.9777C39.3525 26.8009 40.148 26.3899 40.7956 25.7423L41.3962 25.1416V25.1417C42.2595 24.2786 42.7348 23.1309 42.7348 21.9102C42.7348 20.6895 42.2595 19.5419 41.3964 18.6789C40.5332 17.8156 39.3856 17.3402 38.1649 17.3402C36.9442 17.3402 35.7965 17.8156 34.9335 18.6787L34.3327 19.2794C33.6995 19.9127 33.2761 20.6993 33.0948 21.5551C31.8046 20.8323 30.3156 20.547 28.8478 20.7452C29.1393 18.8393 30.0242 17.0811 31.4133 15.6921C33.1365 13.9688 35.4276 13.0197 37.8645 13.0197C40.3015 13.0197 42.5927 13.9688 44.3159 15.6921C47.8731 19.2491 47.8731 25.0373 44.3159 28.5945Z" fill="white"/>
<path d="M33.5463 41.7849C33.2381 41.7849 32.9358 41.9092 32.7178 42.1284C32.4999 42.3462 32.3745 42.6486 32.3745 42.9568C32.3745 43.2651 32.4999 43.5675 32.7178 43.7853C32.9358 44.0033 33.2381 44.1287 33.5463 44.1287C33.8545 44.1287 34.1569 44.0034 34.3749 43.7853C34.5928 43.5675 34.7182 43.2651 34.7182 42.9568C34.7182 42.6486 34.5928 42.3462 34.3749 42.1284C34.1569 41.9092 33.8545 41.7849 33.5463 41.7849Z" fill="white"/>
<path d="M19.5001 55.1184L16.6248 57.9937C16.1671 58.4513 16.1671 59.1934 16.6248 59.6511C16.8536 59.8799 17.1535 59.9944 17.4534 59.9944C17.7533 59.9944 18.0533 59.8799 18.2821 59.6511L21.1574 56.7758C21.6151 56.3182 21.6151 55.5761 21.1574 55.1184C20.6998 54.6607 19.9577 54.6607 19.5001 55.1184Z" fill="white"/>
</svg>
