<svg width="60" height="60" viewBox="0 0 60 60" fill="none" xmlns="http://www.w3.org/2000/svg">
<g clip-path="url(#clip0)">
<path d="M1.47198 37.3909C1.80084 37.6197 2.1484 37.8204 2.51098 37.9909C2.94298 38.2119 3.66698 38.5819 3.71798 38.8409C3.78089 39.1828 3.73978 39.5356 3.59998 39.8539C3.45098 40.1739 3.29498 40.4489 3.15998 40.6859C2.79398 41.3329 2.18098 42.4169 3.10498 43.1719C3.32098 43.3719 3.69398 43.6609 4.03398 43.9219C3.78368 44.3595 3.67047 44.8622 3.70898 45.3649C3.76184 45.7606 3.97659 46.1166 4.30198 46.3479C4.52398 46.5049 4.76098 46.6409 4.99498 46.7739C5.58598 47.1109 5.81698 47.2679 5.89498 47.5809C5.95054 47.9834 5.91639 48.3932 5.79498 48.7809C5.73598 49.0479 5.67898 49.3159 5.64498 49.5809C5.54567 50.4922 5.65827 51.4142 5.97398 52.2749C6.42368 53.8634 7.86031 54.9702 9.51098 54.9999C9.78657 54.9991 10.0613 54.9699 10.331 54.9129C13.1878 54.2357 16.0028 53.3933 18.762 52.3899C21.015 53.7119 22.438 57.7319 22.809 59.2409C22.9197 59.687 23.3203 60.0001 23.78 59.9999L48.88 59.9299C49.1981 59.9293 49.4969 59.7774 49.6848 59.5207C49.8728 59.2641 49.9274 58.9333 49.832 58.6299C49.5847 57.9523 49.2438 57.3128 48.819 56.7299C48.5792 56.3842 48.363 56.0227 48.172 55.6479C47.7194 54.732 47.3418 53.7809 47.043 52.8039C46.4797 50.8924 46.0868 48.9347 45.869 46.9539C45.8362 46.5904 45.608 46.2736 45.2735 46.1274C44.939 45.9812 44.5515 46.0289 44.2625 46.2517C43.9734 46.4746 43.8287 46.8373 43.885 47.1979C44.1162 49.2974 44.5335 51.3722 45.132 53.3979C45.461 54.4728 45.876 55.5195 46.373 56.5279C46.6011 56.9808 46.8601 57.4174 47.148 57.8349L47.215 57.9349L24.536 57.9999C23.8721 55.6277 22.6672 53.4418 21.016 51.6139L21.916 51.2989C22.586 51.0649 23.091 50.8889 23.35 50.8059C27.634 49.4509 29.776 47.4999 29.718 45.0059C29.7188 44.7394 29.6104 44.4842 29.418 44.2998C29.2257 44.1154 28.9662 44.0178 28.7 44.0299C28.148 44.043 27.7111 44.5009 27.724 45.0529C27.748 46.0819 26.905 47.5829 22.748 48.8979C22.477 48.9849 21.955 49.1669 21.262 49.4089C20.519 49.6689 19.574 49.9989 18.532 50.3529H18.525C15.7108 51.3845 12.8393 52.2526 9.92498 52.9529C8.99246 53.1326 8.08428 52.5444 7.86698 51.6199C7.65334 51.051 7.57295 50.4407 7.63198 49.8359C7.65798 49.6259 7.70598 49.4179 7.75198 49.2089C7.95574 48.5172 7.98563 47.7859 7.83898 47.0799C7.54714 46.1626 6.8719 45.417 5.98798 45.0359L5.77998 44.9169C5.88795 44.6989 6.01689 44.4919 6.16498 44.2989C6.33273 44.0863 6.40712 43.8148 6.37112 43.5464C6.33512 43.278 6.19182 43.0357 5.97398 42.8749C5.73398 42.6989 5.16798 42.2749 4.75398 41.9409C4.80198 41.8539 4.85398 41.7579 4.90398 41.6709C5.06098 41.3959 5.23998 41.0759 5.41498 40.7059C5.73142 40.0049 5.82464 39.2236 5.68198 38.4679C5.44198 37.2479 4.27398 36.6499 3.42098 36.2139C3.13414 36.0781 2.85917 35.9186 2.59898 35.7369C2.38455 35.5928 2.18371 35.4295 1.99898 35.2489C1.99898 35.0979 2.16098 34.7319 2.92298 33.8029C4.71382 31.4983 6.24852 29.0056 7.49998 26.3689C7.73609 25.9556 7.86885 25.4915 7.88698 25.0159C7.78368 24.0107 7.25102 23.0993 6.42598 22.5159C6.02098 22.1449 5.63998 21.7949 5.59598 21.4719C5.60266 21.2349 5.65565 21.0015 5.75198 20.7849C5.91498 20.3559 6.10298 19.9359 6.29198 19.5149C6.70203 18.6694 7.02954 17.7863 7.26998 16.8779L7.36998 16.4519C7.58205 15.4521 7.85522 14.4662 8.18798 13.4999C8.97627 11.3241 10.1968 9.33045 11.776 7.63888C13.689 5.61488 16.7 4.18288 20.74 3.37988C23.8302 2.70148 26.9659 2.24962 30.122 2.02788C31.696 1.94266 33.2747 2.03221 34.829 2.29488C35.3663 2.37541 35.8695 2.01225 35.9625 1.47697C36.0554 0.9417 35.704 0.430152 35.171 0.324882C33.4696 0.0357315 31.7412 -0.0628773 30.018 0.0308817C26.7641 0.25657 23.5311 0.72048 20.345 1.41888C15.836 2.31888 12.559 3.89988 10.322 6.26388C8.55739 8.15205 7.19302 10.3777 6.31098 12.8069C5.95084 13.8522 5.65496 14.9185 5.42498 15.9999L5.32498 16.4219C5.11155 17.2062 4.8253 17.9688 4.46998 18.6999C4.26998 19.1559 4.06198 19.6119 3.88298 20.0839C3.65274 20.6096 3.56149 21.1857 3.61798 21.7569C3.81977 22.6523 4.33737 23.445 5.07598 23.9899C5.56498 24.4389 5.88598 24.7549 5.88998 25.0299C5.85378 25.1822 5.79621 25.3287 5.71898 25.4649C4.52098 27.9888 3.05236 30.3751 1.33898 32.5819C0.615976 33.4629 -0.141025 34.4899 0.0199754 35.5169C0.231784 36.3116 0.755303 36.9873 1.47198 37.3909Z" fill="white"/>
<path d="M11.167 17.7928L11.267 17.3478C11.4423 16.5164 11.665 15.6957 11.934 14.8898C12.5363 13.2203 13.4696 11.6897 14.678 10.3898C15.974 9.16777 17.5604 8.29664 19.287 7.85877C19.6356 7.76053 19.9039 7.48147 19.9882 7.12925C20.0726 6.77702 19.96 6.4067 19.6937 6.16115C19.4275 5.91561 19.0493 5.83322 18.705 5.94577C16.6444 6.48128 14.7566 7.53898 13.224 9.01677C11.8314 10.5138 10.7555 12.2767 10.061 14.1998C9.76097 15.0874 9.51354 15.992 9.32 16.9088L9.22 17.3418C9.0952 17.8794 9.42953 18.4164 9.967 18.5418C10.0414 18.5592 10.1176 18.568 10.194 18.5678C10.6591 18.5671 11.0624 18.2459 11.167 17.7928Z" fill="white"/>
<path d="M9 22C9.55229 22 10 21.5523 10 21C10 20.4477 9.55229 20 9 20C8.44772 20 8 20.4477 8 21C8 21.5523 8.44772 22 9 22Z" fill="white"/>
<path d="M27 20.21C26.9315 23.6192 28.1363 26.9315 30.379 29.5C31.0849 30.2335 31.8546 30.9028 32.679 31.5C34.142 32.631 35.528 33.712 35.896 35.216C34.7535 35.6682 34.0022 36.7713 34 38V40C34.0052 41.2668 34.8056 42.3937 36 42.816V43C36 45.2091 37.7908 47 40 47C42.2091 47 44 45.2091 44 43V42.816C45.1943 42.3937 45.9947 41.2668 46 40V38C45.9971 36.7703 45.244 35.6669 44.1 35.216C44.467 33.716 45.854 32.631 47.317 31.5C48.1412 30.9025 48.9108 30.2332 49.617 29.5C51.8606 26.9317 53.0667 23.6196 53 20.21C52.9721 13.0074 47.2012 7.1433 40 7C32.7987 7.1433 27.0279 13.0074 27 20.21ZM37 22H36C35.4477 22 35 21.5523 35 21C35 20.4477 35.4477 20 36 20C36.5523 20 37 20.4477 37 21V22ZM41 35H39V24H41V35ZM40 45C38.8954 45 38 44.1046 38 43H42C42 44.1046 41.1046 45 40 45ZM44 40C44 40.5523 43.5523 41 43 41H37C36.4477 41 36 40.5523 36 40V38C36 37.4477 36.4477 37 37 37H43C43.5523 37 44 37.4477 44 38V40ZM51 20.241C51.0622 23.1446 50.0417 25.9675 48.137 28.16C47.5097 28.8031 46.8282 29.391 46.1 29.917C44.9209 30.7384 43.8753 31.7364 43 32.876V24H44C45.6568 24 47 22.6569 47 21C47 19.3431 45.6568 18 44 18C42.3431 18 41 19.3431 41 21V22H39V21C39 19.3431 37.6568 18 36 18C34.3431 18 33 19.3431 33 21C33 22.6569 34.3431 24 36 24H37V32.876C36.1263 31.737 35.0824 30.7393 33.905 29.918C33.1764 29.3916 32.4946 28.8034 31.867 28.16C29.9604 25.9684 28.9383 23.1452 29 20.241C29.1 14.147 34.132 9 40 9C45.868 9 50.905 14.147 51 20.241ZM43 22V21C43 20.4477 43.4477 20 44 20C44.5523 20 45 20.4477 45 21C45 21.5523 44.5523 22 44 22H43Z" fill="white"/>
<path d="M56 21H59C59.5522 21 60 20.5523 60 20C60 19.4477 59.5522 19 59 19H56C55.4477 19 55 19.4477 55 20C55 20.5523 55.4477 21 56 21Z" fill="white"/>
<path d="M51.313 9.6868C51.5785 9.68701 51.8332 9.58159 52.021 9.3938L54.142 7.2718C54.4019 7.02073 54.5062 6.64892 54.4147 6.2993C54.3232 5.94967 54.0501 5.67662 53.7005 5.58511C53.3509 5.49359 52.9791 5.59785 52.728 5.8578L50.606 7.9788C50.3194 8.2647 50.2334 8.69521 50.3882 9.06926C50.5431 9.44332 50.9081 9.68712 51.313 9.6868Z" fill="white"/>
<path d="M40 5C40.5522 5 41 4.55228 41 4V1C41 0.447715 40.5522 0 40 0C39.4477 0 39 0.447715 39 1V4C39 4.55228 39.4477 5 40 5Z" fill="white"/>
<path d="M29.394 9.3938C29.5817 9.20624 29.6872 8.95171 29.6872 8.6863C29.6872 8.42089 29.5817 8.16637 29.394 7.9788L27.272 5.8578C27.0209 5.59785 26.6491 5.49359 26.2994 5.58511C25.9498 5.67662 25.6768 5.94967 25.5853 6.2993C25.4937 6.64893 25.598 7.02073 25.858 7.2718L27.979 9.3938C28.1665 9.58158 28.421 9.68709 28.6865 9.68709C28.9519 9.68709 29.2064 9.58158 29.394 9.3938Z" fill="white"/>
<path d="M21 19C20.4477 19 20 19.4477 20 20C20 20.5523 20.4477 21 21 21H24C24.5523 21 25 20.5523 25 20C25 19.4477 24.5523 19 24 19H21Z" fill="white"/>
</g>
<defs>
<clipPath id="clip0">
<rect width="60" height="60" fill="white"/>
</clipPath>
</defs>
</svg>
