<svg width="1836" height="1032" viewBox="0 0 1836 1032" fill="none" xmlns="http://www.w3.org/2000/svg">
<path d="M25.3281 598.578C25.3281 600.641 25.5312 602.188 25.9375 603.219C26.3438 604.219 27.0156 604.922 27.9531 605.328C28.9219 605.734 30.3438 605.953 32.2188 605.984V608C24.8438 607.75 20.2969 607.625 18.5781 607.625C16.8281 607.625 11.3281 607.75 2.07812 608V605.984C4.57812 605.953 6.48438 605.688 7.79688 605.188C9.14062 604.688 10.0938 603.797 10.6562 602.516C11.2188 601.234 11.5 599.344 11.5 596.844V554.422C11.5 552.203 11.1875 550.578 10.5625 549.547C9.9375 548.484 8.90625 547.781 7.46875 547.438C6.03125 547.094 3.84375 546.922 0.90625 546.922V544.906C10.5312 543.75 18.6719 541.812 25.3281 539.094V598.578Z" fill="black" fill-opacity="0.02"/>
<path d="M1683.73 478.672C1688.92 478.672 1693.36 479.891 1697.05 482.328C1700.77 484.766 1703.59 488.391 1705.53 493.203C1707.47 497.984 1708.44 503.859 1708.44 510.828C1708.44 518.516 1707.19 525.281 1704.69 531.125C1702.22 536.938 1698.77 541.438 1694.33 544.625C1689.89 547.781 1684.83 549.359 1679.14 549.359C1674.3 549.359 1670.23 548.422 1666.95 546.547C1665.45 545.734 1664.19 544.625 1663.16 543.219C1662.16 541.812 1661.66 540.297 1661.66 538.672C1661.66 537.297 1661.98 536.078 1662.64 535.016C1663.3 533.922 1664.22 533.062 1665.41 532.438C1666.59 531.812 1667.94 531.5 1669.44 531.5C1671.59 531.5 1673.33 532.125 1674.64 533.375C1675.98 534.594 1676.66 536.266 1676.66 538.391C1676.66 539.953 1676.14 541.422 1675.11 542.797C1674.08 544.141 1672.61 545.109 1670.7 545.703C1671.58 546.359 1672.69 546.844 1674.03 547.156C1675.38 547.469 1676.7 547.625 1678.02 547.625C1682.7 547.625 1686.52 544.953 1689.45 539.609C1692.42 534.266 1693.91 525.219 1693.91 512.469V511.203C1691.59 519.109 1686.45 523.062 1678.48 523.062C1675.11 523.062 1671.94 522.266 1668.97 520.672C1666 519.047 1663.61 516.625 1661.8 513.406C1659.98 510.188 1659.08 506.297 1659.08 501.734C1659.08 496.797 1660.14 492.594 1662.27 489.125C1664.42 485.656 1667.36 483.047 1671.08 481.297C1674.8 479.547 1679.02 478.672 1683.73 478.672ZM1682.14 520.531C1683.52 520.531 1684.97 520.078 1686.5 519.172C1688.06 518.266 1689.52 516.719 1690.86 514.531C1692.2 512.312 1693.17 509.375 1693.77 505.719C1693.08 488.969 1689.58 480.594 1683.27 480.594C1680.33 480.594 1677.97 482.281 1676.19 485.656C1674.44 489 1673.56 494.297 1673.56 501.547C1673.56 508.016 1674.31 512.797 1675.81 515.891C1677.34 518.984 1679.45 520.531 1682.14 520.531Z" fill="black" fill-opacity="0.02"/>
<path d="M750.594 138.734C754.812 142.016 758.047 144.656 760.297 146.656C762.578 148.656 764.547 150.984 766.203 153.641C767.891 156.297 768.734 159.156 768.734 162.219C768.734 165.719 767.656 168.844 765.5 171.594C763.344 174.344 760.359 176.5 756.547 178.062C752.734 179.594 748.453 180.359 743.703 180.359C739.422 180.359 735.484 179.734 731.891 178.484C728.297 177.203 725.406 175.328 723.219 172.859C721.062 170.391 719.984 167.406 719.984 163.906C719.984 159.75 721.5 156.141 724.531 153.078C727.594 149.984 731.719 147.391 736.906 145.297C734.094 143.078 731.719 141.016 729.781 139.109C727.844 137.172 726.266 135.062 725.047 132.781C723.859 130.469 723.266 127.984 723.266 125.328C723.266 122.016 724.25 119.188 726.219 116.844C728.188 114.469 730.812 112.688 734.094 111.5C737.375 110.281 740.984 109.672 744.922 109.672C748.797 109.672 752.266 110.234 755.328 111.359C758.391 112.453 760.781 114.016 762.5 116.047C764.25 118.078 765.125 120.438 765.125 123.125C765.125 126.25 763.906 129.062 761.469 131.562C759.031 134.062 755.406 136.453 750.594 138.734ZM744.172 111.406C741.641 111.406 739.625 112.141 738.125 113.609C736.656 115.047 735.922 116.969 735.922 119.375C735.922 121.625 736.5 123.781 737.656 125.844C738.812 127.875 740.297 129.797 742.109 131.609C743.953 133.391 746.266 135.359 749.047 137.516C750.734 135.797 751.969 133.703 752.75 131.234C753.562 128.734 753.969 126.281 753.969 123.875C753.969 120 753.094 116.953 751.344 114.734C749.625 112.516 747.234 111.406 744.172 111.406ZM744.172 178.625C746.453 178.625 748.438 178.188 750.125 177.312C751.844 176.438 753.156 175.219 754.062 173.656C754.969 172.094 755.422 170.297 755.422 168.266C755.422 165.422 754.641 162.781 753.078 160.344C751.547 157.875 749.734 155.734 747.641 153.922C745.578 152.109 742.531 149.641 738.5 146.516C736.188 148.453 734.5 150.797 733.438 153.547C732.406 156.266 731.891 159.156 731.891 162.219C731.891 167.062 732.875 171.016 734.844 174.078C736.812 177.109 739.922 178.625 744.172 178.625Z" fill="black" fill-opacity="0.05"/>
<path d="M296.789 976.994C321.789 955.021 342.736 930.705 359.631 904.045C376.623 877.385 385.119 849.992 385.119 821.867C385.119 804.484 381.896 792.033 375.451 784.514C369.104 776.994 360.998 773.234 351.135 773.234C345.861 773.234 340.881 774.309 336.193 776.457C331.604 778.508 328.283 781.34 326.232 784.953C332.287 786.516 336.975 789.348 340.295 793.449C343.713 797.551 345.422 802.336 345.422 807.805C345.422 812.199 344.348 816.057 342.199 819.377C340.148 822.697 337.365 825.236 333.85 826.994C330.334 828.752 326.525 829.631 322.424 829.631C317.834 829.631 313.879 828.654 310.559 826.701C307.238 824.65 304.699 821.965 302.941 818.645C301.281 815.324 300.451 811.711 300.451 807.805C300.451 798.527 305.676 789.836 316.125 781.73C321.887 776.75 328.918 772.941 337.219 770.305C345.617 767.668 354.846 766.35 364.904 766.35C377.502 766.35 388.732 768.352 398.596 772.355C408.459 776.359 416.223 782.268 421.887 790.08C427.551 797.795 430.383 807.121 430.383 818.059C430.383 831.926 425.842 845.109 416.76 857.609C407.775 870.109 393.908 885.881 375.158 904.924C356.408 923.869 342.59 938.371 333.703 948.43H406.945C412.609 948.43 417.15 946.867 420.568 943.742C424.084 940.617 426.33 935.295 427.307 927.775H434.191C433.605 932.268 433.312 937.98 433.312 944.914C433.312 957.219 434.045 969.914 435.51 983H352.893C343.811 983 335.998 982.951 329.455 982.854C323.01 982.756 317.346 982.707 312.463 982.707C309.045 982.707 303.82 982.805 296.789 983V976.994Z" fill="black" fill-opacity="0.05"/>
<path d="M1685.4 109.557C1685.4 116.002 1686.04 120.836 1687.3 124.059C1688.57 127.184 1690.67 129.381 1693.6 130.65C1696.63 131.92 1701.07 132.604 1706.93 132.701V139C1683.89 138.219 1669.68 137.828 1664.31 137.828C1658.84 137.828 1641.65 138.219 1612.74 139V132.701C1620.56 132.604 1626.51 131.773 1630.62 130.211C1634.81 128.648 1637.79 125.865 1639.55 121.861C1641.31 117.857 1642.19 111.949 1642.19 104.137V-28.4316C1642.19 -35.3652 1641.21 -40.4434 1639.26 -43.666C1637.3 -46.9863 1634.08 -49.1836 1629.59 -50.2578C1625.1 -51.332 1618.26 -51.8691 1609.08 -51.8691V-58.168C1639.16 -61.7812 1664.6 -67.8359 1685.4 -76.332V109.557Z" fill="black" fill-opacity="0.02"/>
<path d="M1815.19 -77.6504C1831.79 -77.6504 1846.34 -73.3535 1858.84 -64.7598C1871.34 -56.166 1881.01 -43.666 1887.84 -27.2598C1894.78 -10.9512 1898.24 8.48242 1898.24 31.041C1898.24 53.1113 1894.68 72.6426 1887.55 89.6348C1880.42 106.627 1870.51 119.811 1857.81 129.186C1845.21 138.561 1830.91 143.248 1814.89 143.248C1798.29 143.248 1783.69 138.951 1771.09 130.357C1758.59 121.764 1748.88 109.312 1741.94 93.0039C1735.11 76.5977 1731.69 57.1152 1731.69 34.5566C1731.69 12.4863 1735.25 -7.04492 1742.38 -24.0371C1749.51 -41.0293 1759.38 -54.2129 1771.97 -63.5879C1784.67 -72.9629 1799.07 -77.6504 1815.19 -77.6504ZM1814.01 -72.2305C1802 -72.2305 1792.97 -63.2461 1786.91 -45.2773C1780.96 -27.3086 1777.98 -1.08789 1777.98 33.3848C1777.98 67.7598 1781.3 93.7852 1787.94 111.461C1794.58 129.039 1803.96 137.828 1816.06 137.828C1828.08 137.828 1837.06 128.844 1843.02 110.875C1849.07 92.9062 1852.1 66.6855 1852.1 32.2129C1852.1 9.36133 1850.54 -9.87695 1847.41 -25.502C1844.38 -41.127 1839.99 -52.7969 1834.23 -60.5117C1828.56 -68.3242 1821.83 -72.2305 1814.01 -72.2305Z" fill="black" fill-opacity="0.02"/>
<path d="M698.492 561.566C706.76 561.566 714.02 562.738 720.27 565.082C726.585 567.361 731.467 570.714 734.918 575.141C738.368 579.503 740.094 584.711 740.094 590.766C740.094 596.951 738.141 602.615 734.234 607.758C730.393 612.836 725.185 617.198 718.609 620.844C712.034 624.424 704.677 627.159 696.539 629.047C705.979 629.372 714.573 631.065 722.32 634.125C730.068 637.12 736.22 641.449 740.777 647.113C745.4 652.712 747.711 659.418 747.711 667.23C747.711 675.694 745.009 683.083 739.605 689.398C734.267 695.714 727.138 700.531 718.219 703.852C709.365 707.172 699.794 708.832 689.508 708.832C678.18 708.832 668.642 706.618 660.895 702.191C654.254 698.285 650.934 693.142 650.934 686.762C650.934 682.66 652.301 679.307 655.035 676.703C657.835 674.099 661.578 672.797 666.266 672.797C670.888 672.797 674.664 674.066 677.594 676.605C680.589 679.145 682.086 682.53 682.086 686.762C682.086 690.342 680.947 693.37 678.668 695.844C676.454 698.318 673.59 700.043 670.074 701.02C671.311 701.996 673.362 702.875 676.227 703.656C679.091 704.438 682.249 704.828 685.699 704.828C692.6 704.828 698.46 703.201 703.277 699.945C708.16 696.625 711.806 692.1 714.215 686.371C716.689 680.642 717.926 674.132 717.926 666.84C717.926 660.004 716.884 653.982 714.801 648.773C712.783 643.565 709.885 639.464 706.109 636.469C702.333 633.409 697.874 631.651 692.73 631.195C692.275 631.456 691.428 631.944 690.191 632.66C688.954 633.311 687.848 633.799 686.871 634.125C685.96 634.451 685.048 634.613 684.137 634.613C682.965 634.613 681.988 634.353 681.207 633.832C680.491 633.311 680.133 632.562 680.133 631.586C680.133 629.177 682.053 627.973 685.895 627.973C686.741 627.973 687.652 628.07 688.629 628.266C689.671 628.396 690.484 628.493 691.07 628.559C703.635 622.699 709.918 611.436 709.918 594.77C709.918 585.59 708.095 578.461 704.449 573.383C700.868 568.305 695.888 565.766 689.508 565.766C686.122 565.766 682.9 566.384 679.84 567.621C676.845 568.793 674.534 570.518 672.906 572.797C676.878 574.034 680.003 576.02 682.281 578.754C684.56 581.423 685.699 584.516 685.699 588.031C685.699 591.026 684.983 593.63 683.551 595.844C682.184 597.992 680.296 599.652 677.887 600.824C675.543 601.996 672.939 602.582 670.074 602.582C665.647 602.582 662.132 601.182 659.527 598.383C656.988 595.518 655.719 592.003 655.719 587.836C655.719 584.451 656.63 581.293 658.453 578.363C660.276 575.434 662.75 572.862 665.875 570.648C669.586 567.719 674.273 565.473 679.938 563.91C685.602 562.348 691.786 561.566 698.492 561.566Z" fill="black" fill-opacity="0.02"/>
<path d="M1476.46 238.598C1466.11 253.767 1458.04 266.625 1452.25 277.172C1446.52 287.719 1442.06 298.819 1438.87 310.473C1435.68 322.126 1434.15 335.049 1434.28 349.242C1434.28 351.326 1434.41 354.06 1434.67 357.445C1434.93 360.831 1435.06 363.272 1435.06 364.77C1435.06 368.936 1433.82 372.322 1431.35 374.926C1428.87 377.53 1425.2 378.832 1420.31 378.832C1415.43 378.832 1411.78 377.432 1409.38 374.633C1407.03 371.768 1405.86 368.22 1405.86 363.988C1405.86 352.79 1408.46 341.104 1413.67 328.93C1418.88 316.755 1425.16 305.232 1432.52 294.359C1439.94 283.487 1448.99 271.182 1459.67 257.445H1402.34C1396.88 257.445 1392.84 258.617 1390.23 260.961C1387.63 263.24 1385.97 267.243 1385.25 272.973H1380.66C1381.12 268.09 1381.35 262.686 1381.35 256.762C1381.35 250.837 1380.86 243.383 1379.88 234.398C1389.52 234.789 1405.79 234.984 1428.71 234.984C1447.59 234.984 1463.51 234.789 1476.46 234.398V238.598Z" fill="black" fill-opacity="0.05"/>
<path d="M183.016 284.086H226.18V245.219H183.016V57.1328H176.57L20.125 275.688V284.086H132.625V303.617C132.625 332.719 126.766 336.82 97.0781 337.992V346C110.555 345.219 131.648 344.828 152.156 344.828C175.789 344.828 198.055 345.219 210.555 346V337.992C187.312 336.82 183.016 332.719 183.016 303.617V284.086ZM132.625 245.219H50.9844L132.625 130.57V245.219Z" fill="black" fill-opacity="0.03"/>
<path d="M1410.13 609.656C1409.54 614.637 1409.25 621.521 1409.25 630.311C1409.25 639.197 1409.93 648.816 1411.3 659.168H1311.4L1307 721.57C1319.5 711.512 1335.76 706.482 1355.78 706.482C1369.36 706.482 1381.42 709.021 1391.96 714.1C1402.61 719.178 1410.91 726.551 1416.87 736.219C1422.82 745.789 1425.8 757.166 1425.8 770.35C1425.8 784.803 1422.24 797.4 1415.11 808.143C1408.08 818.787 1398.41 826.99 1386.11 832.752C1373.9 838.416 1360.23 841.248 1345.09 841.248C1328.39 841.248 1314.87 837.732 1304.51 830.701C1299.44 827.381 1295.48 823.426 1292.65 818.836C1289.82 814.246 1288.4 809.51 1288.4 804.627C1288.4 798.084 1290.5 792.664 1294.7 788.367C1299 783.973 1304.66 781.775 1311.69 781.775C1318.04 781.775 1323.21 783.68 1327.22 787.488C1331.32 791.199 1333.37 796.424 1333.37 803.162C1333.37 814.979 1326.97 823.279 1314.18 828.064C1316.53 830.213 1319.94 832.02 1324.44 833.484C1329.03 834.852 1333.91 835.535 1339.08 835.535C1351.88 835.535 1361.94 830.945 1369.26 821.766C1376.68 812.586 1380.39 796.18 1380.39 772.547C1380.39 760.438 1378.83 749.988 1375.71 741.199C1372.58 732.41 1368.14 725.721 1362.38 721.131C1356.71 716.541 1350.02 714.246 1342.31 714.246C1328.83 714.246 1316.77 718.982 1306.12 728.455L1300.71 727.137L1309.05 623.426C1313.06 624.207 1317.55 624.598 1322.53 624.598H1382C1389.04 624.598 1394.21 623.523 1397.53 621.375C1400.95 619.129 1403.15 615.223 1404.12 609.656H1410.13Z" fill="black" fill-opacity="0.02"/>
<path d="M1719.22 894.879C1737.78 894.879 1754.87 899.111 1770.49 907.574C1786.28 915.875 1798.89 928.408 1808.33 945.172C1817.94 961.936 1822.74 982.2 1822.74 1005.96C1822.74 1031.68 1817.12 1053.57 1805.89 1071.64C1794.82 1089.7 1779.69 1103.29 1760.48 1112.41C1741.28 1121.52 1719.71 1126.08 1695.79 1126.08C1652.98 1126.08 1620.59 1112 1598.62 1083.84C1576.64 1055.69 1565.66 1014.43 1565.66 960.064C1565.66 919.212 1572.01 883.567 1584.7 853.131C1597.56 822.532 1615.71 799.013 1639.14 782.574C1662.58 766.135 1689.76 757.916 1720.69 757.916C1745.43 757.916 1765.61 762.799 1781.23 772.564C1799.63 783.469 1808.82 797.141 1808.82 813.58C1808.82 820.742 1807.11 827.171 1803.7 832.867C1800.28 838.401 1795.48 842.796 1789.29 846.051C1783.27 849.306 1776.43 850.934 1768.78 850.934C1757.39 850.934 1748.19 847.678 1741.2 841.168C1734.2 834.658 1730.7 826.275 1730.7 816.021C1730.7 807.07 1733.38 799.176 1738.75 792.34C1744.12 785.341 1751.77 780.214 1761.7 776.959C1757.15 773.541 1751.37 771.018 1744.37 769.391C1737.53 767.763 1730.86 766.949 1724.35 766.949C1699.28 766.949 1679.26 780.784 1664.29 808.453C1649.32 836.122 1641.67 884.218 1641.34 952.74C1647.69 932.558 1657.78 917.91 1671.62 908.795C1685.61 899.518 1701.48 894.879 1719.22 894.879ZM1697.25 1116.07C1706.69 1116.07 1715.15 1112.49 1722.64 1105.33C1730.13 1098 1736.07 1086.29 1740.46 1070.17C1745.02 1053.9 1747.3 1032.98 1747.3 1007.43C1747.3 973.736 1743.23 948.753 1735.09 932.477C1727.12 916.201 1716.21 908.062 1702.38 908.062C1695.05 908.062 1687.32 910.341 1679.18 914.898C1671.21 919.293 1663.72 926.943 1656.72 937.848C1649.89 948.753 1644.92 963.238 1641.83 981.305C1643.29 1030.46 1649.07 1065.21 1659.16 1085.55C1669.42 1105.9 1682.11 1116.07 1697.25 1116.07Z" fill="black" fill-opacity="0.05"/>
</svg>
