<svg width="60" height="60" viewBox="0 0 60 60" fill="none" xmlns="http://www.w3.org/2000/svg">
<path d="M44.0292 5.01074H42.0254C41.5065 5.01074 41.0859 5.43121 41.0859 5.95023C41.0859 6.46914 41.5064 6.88973 42.0254 6.88973H44.0292C44.5481 6.88973 44.9687 6.46926 44.9687 5.95023C44.9687 5.43121 44.5482 5.01074 44.0292 5.01074Z" fill="#FF7C77"/>
<path d="M38.0168 5.01074H15.9708C15.452 5.01074 15.0313 5.43121 15.0313 5.95023C15.0313 6.46914 15.4519 6.88973 15.9708 6.88973H38.0168C38.5357 6.88973 38.9563 6.46926 38.9563 5.95023C38.9563 5.43121 38.5358 5.01074 38.0168 5.01074Z" fill="#FF7C77"/>
<path d="M56.5785 6.59768C54.3962 5.21416 51.4499 4.87021 48.8911 5.62725C48.9616 4.50166 48.9836 3.58396 48.9874 2.94881C48.9906 2.43072 48.7914 1.94322 48.4262 1.57572C48.0587 1.206 47.5684 1.00244 47.0456 1.00244H12.9544C12.4315 1.00244 11.9413 1.206 11.5739 1.57561C11.2087 1.94299 11.0095 2.43049 11.0126 2.94869C11.0164 3.58385 11.0384 4.50166 11.1089 5.62713C8.55012 4.8701 5.60367 5.21416 3.42164 6.59756C1.21512 7.99643 0 10.2577 0 12.9647C0 17.4072 2.52047 21.4273 7.49145 24.9131C11.4189 27.6672 15.8563 29.384 18.2401 30.3063C18.8343 30.5362 19.3474 30.7348 19.5589 30.8406C20.5877 31.3551 20.3059 32.2387 20.1409 32.5865C19.9088 33.0505 20.097 33.6149 20.561 33.8469C20.6959 33.9144 20.8392 33.9464 20.9804 33.9464C21.3251 33.9464 21.6568 33.756 21.8215 33.4269C21.8573 33.3553 22.1712 32.7037 22.1712 31.8795C22.1712 31.796 22.1672 31.714 22.161 31.6327C23.4936 32.7102 24.938 33.6231 26.4929 34.368C26.8134 34.5215 27.0253 34.8549 27.0512 35.2299C25.8901 35.6242 25.0521 36.7241 25.0521 38.0168C25.0521 39.3115 25.8926 40.4128 27.0563 40.8059V46.0962H23.9873C22.9167 46.0962 22.0458 46.9671 22.0458 48.0378V50.1046H21.9832C20.9126 50.1046 20.0416 50.9755 20.0416 52.0462V57.0566C20.0416 58.1272 20.9126 58.9982 21.9832 58.9982H38.0166C39.0872 58.9982 39.9581 58.1272 39.9581 57.0566V52.0462C39.9581 50.9755 39.0872 50.1046 38.0166 50.1046H37.954V48.0378C37.954 46.9671 37.083 46.0962 36.0124 46.0962H32.9435V40.8059C34.1072 40.4128 34.9477 39.3115 34.9477 38.0168C34.9477 36.7241 34.1096 35.6241 32.9487 35.2295C32.9746 34.8545 33.1864 34.5211 33.5071 34.3676C35.0619 33.6226 36.5064 32.7097 37.8388 31.6323C37.8326 31.7135 37.8286 31.7956 37.8286 31.879C37.8286 32.7032 38.1425 33.3549 38.1783 33.4265C38.3434 33.7567 38.6777 33.9492 39.024 33.9492C39.1644 33.9492 39.3069 33.9177 39.4406 33.8508C39.9047 33.6187 40.0949 33.0585 39.8627 32.5944C39.6937 32.2384 39.4118 31.3548 40.4407 30.8404C40.6522 30.7346 41.1654 30.536 41.7595 30.3061C44.1434 29.3838 48.5807 27.6669 52.5082 24.9129C57.4795 21.4274 60 17.4073 60 12.9647C60 10.2577 58.7849 7.99643 56.5785 6.59768ZM18.918 28.5542C16.6088 27.6606 12.3103 25.9975 8.57027 23.3747C4.13027 20.2613 1.87898 16.7588 1.87898 12.9648C1.87898 10.3494 3.26496 8.92162 4.4277 8.18463C6.37055 6.95287 9.08297 6.76361 11.2768 7.67932C11.5607 10.5001 12.1397 14.0772 13.3092 17.7414C14.6999 22.0981 16.6322 25.7309 19.0847 28.6185C19.0297 28.5973 18.9761 28.5765 18.918 28.5542ZM36.0125 47.9752C36.047 47.9752 36.0751 48.0033 36.0751 48.0378V50.1046H35.0104C34.4914 50.1046 34.0709 50.5251 34.0709 51.0441C34.0709 51.563 34.4913 51.9836 35.0104 51.9836H38.0166C38.051 51.9836 38.0791 52.0118 38.0791 52.0462V57.0566C38.0791 57.0911 38.0509 57.1192 38.0166 57.1192H21.9833C21.9487 57.1192 21.9207 57.091 21.9207 57.0566V52.0462C21.9207 52.0117 21.9487 51.9836 21.9833 51.9836H31.0021C31.521 51.9836 31.9416 51.5631 31.9416 51.0441C31.9416 50.5252 31.5211 50.1046 31.0021 50.1046H23.9249V48.0378C23.9249 48.0033 23.9529 47.9752 23.9875 47.9752H36.0125ZM28.9352 46.0963V40.9606H31.0646V46.0963H28.9352ZM33.0689 38.0169C33.0689 38.604 32.5912 39.0817 32.0041 39.0817H28.0079C28.0038 39.0817 28 39.0811 27.9957 39.0811C27.9937 39.0811 27.9918 39.0813 27.9898 39.0813C27.4055 39.0781 26.9311 38.6019 26.9311 38.0169C26.9311 37.4298 27.4087 36.9522 27.9959 36.9522H32.0018C32.0027 36.9522 32.0034 36.9523 32.0041 36.9523C32.0045 36.9523 32.0048 36.9523 32.0054 36.9523C32.592 36.9529 33.0689 37.4303 33.0689 38.0169ZM32.6955 32.6733C31.7738 33.1149 31.1561 34.0405 31.0747 35.0733H28.9255C28.8441 34.0405 28.2266 33.1149 27.3049 32.6733C21.6202 29.9497 17.5137 24.7336 15.0994 17.1699C13.1475 11.0556 12.9052 5.17971 12.8917 2.93709C12.8917 2.93006 12.8916 2.91529 12.9067 2.90006C12.9192 2.88752 12.9353 2.88131 12.9545 2.88131H47.0457C47.0651 2.88131 47.0811 2.88775 47.0936 2.90006C47.1087 2.91529 47.1087 2.92994 47.1086 2.93709C47.0951 5.17959 46.8526 11.0556 44.901 17.1699C42.4867 24.7336 38.3801 29.9497 32.6955 32.6733ZM51.4297 23.3747C47.6897 25.9974 43.3911 27.6605 41.082 28.554C41.0241 28.5764 40.9704 28.5973 40.9157 28.6184C43.368 25.7309 45.3004 22.0979 46.6909 17.7414C47.8604 14.0773 48.4393 10.5001 48.7232 7.67932C50.9168 6.76338 53.6295 6.95264 55.5723 8.18463C56.7352 8.92162 58.1211 10.3494 58.1211 12.9648C58.1211 16.7588 55.8697 20.2613 51.4297 23.3747Z" fill="#FF7C77"/>
</svg>
