<svg width="60" height="60" viewBox="0 0 60 60" fill="none" xmlns="http://www.w3.org/2000/svg">
<g clip-path="url(#clip0)">
<path d="M52.3517 6.39077C48.9123 4.18224 44.7269 3.45765 40.7456 4.38089C35.9783 5.50278 32.0062 8.78149 30.0004 13.2489C27.9946 8.78103 24.0216 5.50232 19.2543 4.38089C15.2721 3.45903 11.0866 4.1859 7.64908 6.39672C3.99824 8.72931 1.44412 12.4378 0.567566 16.681C-2.86997 32.7225 9.89469 45.6876 22.9871 52.4771L29.5404 55.8767C29.8287 56.0263 30.172 56.0263 30.4604 55.8767L37.0137 52.4771C50.1056 45.6904 62.8708 32.7225 59.4319 16.68C58.5576 12.4351 56.0039 8.72381 52.3517 6.39077ZM36.0928 50.702L30.0004 53.8608L23.908 50.702C11.4697 44.2545 -0.678369 32.0414 2.52344 17.0998C3.28922 13.3812 5.52476 10.13 8.72291 8.08437C11.7091 6.16145 15.3462 5.52841 18.8062 6.32944C23.8408 7.53784 27.7836 11.4482 29.0332 16.4727C29.149 16.9121 29.5463 17.2179 30.0004 17.2179C30.4545 17.2179 30.8518 16.9121 30.9671 16.4727C32.2176 11.4473 36.1628 7.53601 41.1996 6.32944C44.6578 5.53024 48.2921 6.16191 51.2779 8.08162C54.4765 10.1281 56.712 13.3803 57.4774 17.0998C60.6792 32.0414 48.5311 44.2545 36.0928 50.702Z" fill="#FF7C77"/>
<path d="M17.9104 10.2272C18.4451 10.3425 18.9733 10.007 19.096 9.47373C19.2186 8.94048 18.89 8.40768 18.3581 8.27815C17.5337 8.08773 16.6897 7.99115 15.8433 7.99023C10.292 8.11519 5.5701 12.0745 4.47933 17.5197C4.36353 18.0593 4.70774 18.5912 5.24786 18.707C5.78798 18.8224 6.3194 18.4786 6.4352 17.9385C7.32457 13.4134 11.2336 10.1109 15.8433 9.99005C16.5391 9.99096 17.2325 10.0706 17.9104 10.2272Z" fill="#FF7C77"/>
<path d="M20.0013 22.9889C19.7587 22.9907 19.5171 23.0223 19.2822 23.0827C19.1367 22.9152 19.0076 22.734 18.8964 22.5417C18.6492 22.0478 18.0487 21.8469 17.5543 22.094C17.06 22.3408 16.8595 22.9418 17.1062 23.4356C17.2486 23.7048 17.4161 23.9593 17.6065 24.1968C17.4793 24.3616 17.3699 24.5392 17.2792 24.7269C17.071 24.6033 16.8787 24.4541 16.7084 24.282C16.3162 23.903 15.6923 23.908 15.3069 24.2939C14.921 24.6798 14.9155 25.3032 15.2945 25.6955C15.9985 26.4567 16.9671 26.919 18.0011 26.9885C18.5535 26.9885 19.0012 26.5409 19.0012 25.9889C19.0012 25.4364 19.4489 24.9887 20.0013 24.9887C20.5534 24.9887 21.001 25.4364 21.001 25.9889C21.001 26.5409 21.4487 26.9885 22.0011 26.9885C22.5532 26.9885 23.0008 26.5409 23.0008 25.9889C23.0008 24.3319 21.6579 22.9889 20.0013 22.9889Z" fill="#FF7C77"/>
<path d="M35.023 30.001C34.4843 30.0111 34.0417 30.429 34 30.9659C33.99 31.1728 33.7931 32.9877 30.0004 32.9877C26.2255 32.9877 26.0127 31.1879 26.0008 30.9691C25.9953 30.4166 25.5435 29.9731 24.991 29.9786C24.439 29.9836 23.9955 30.4358 24.001 30.9879C24.001 31.0281 24.0696 34.9875 30.0004 34.9875C35.9307 34.9875 35.9998 31.0281 35.9998 30.9879C35.9985 30.4473 35.5636 30.0083 35.023 30.001Z" fill="#FF7C77"/>
<path d="M15.2945 31.2817L14.2944 32.2818C14.0349 32.5326 13.9305 32.9043 14.022 33.254C14.1136 33.6037 14.3864 33.877 14.7361 33.9681C15.0858 34.0596 15.4575 33.9557 15.7083 33.6957L16.7084 32.6956C17.0874 32.3033 17.0819 31.6799 16.6961 31.294C16.3107 30.9082 15.6868 30.9027 15.2945 31.2817Z" fill="#FF7C77"/>
<path d="M19.2941 31.2817L18.2945 32.2818C18.0345 32.5326 17.9301 32.9043 18.0217 33.254C18.1132 33.6037 18.386 33.877 18.7357 33.9681C19.0854 34.0596 19.4571 33.9557 19.7079 33.6957L20.7081 32.6956C21.0871 32.3033 21.0816 31.6799 20.6957 31.294C20.3103 30.9082 19.6864 30.9027 19.2941 31.2817Z" fill="#FF7C77"/>
<path d="M44.7063 31.2817C44.314 30.9027 43.6901 30.9082 43.3043 31.294C42.9189 31.6799 42.9134 32.3033 43.2924 32.6956L44.292 33.6957C44.6848 34.0747 45.3082 34.0692 45.6941 33.6834C46.0795 33.2975 46.085 32.6741 45.706 32.2818L44.7063 31.2817Z" fill="#FF7C77"/>
<path d="M40.7067 31.2817C40.3144 30.9027 39.6905 30.9082 39.3046 31.294C38.9192 31.6799 38.9137 32.3033 39.2927 32.6956L40.2924 33.6957C40.6847 34.0747 41.3086 34.0692 41.6944 33.6834C42.0798 33.2975 42.0853 32.6741 41.7063 32.2818L40.7067 31.2817Z" fill="#FF7C77"/>
<path d="M6.00218 21.9889C6.00218 22.5414 5.55452 22.9891 5.0025 22.9891C4.45002 22.9891 4.00237 22.5414 4.00237 21.9889C4.00237 21.4369 4.45002 20.9893 5.0025 20.9893C5.55452 20.9893 6.00218 21.4369 6.00218 21.9889Z" fill="#FF7C77"/>
<path d="M44.7063 24.282C44.3158 23.8915 43.6828 23.8915 43.2924 24.282C43.1216 24.4541 42.9298 24.6038 42.7216 24.7278C42.631 24.5397 42.5216 24.3621 42.3943 24.1968C42.5847 23.9593 42.7518 23.7048 42.8941 23.4356C43.1413 22.9418 42.9408 22.3408 42.4465 22.094C41.9521 21.8469 41.3511 22.0478 41.1044 22.5417C40.9937 22.7344 40.8646 22.9157 40.7186 23.0827C39.8233 22.8525 38.8721 23.0512 38.1438 23.6201C37.4151 24.1891 36.9927 25.0642 37 25.9889C37 26.5409 37.4476 26.9885 37.9997 26.9885C38.5521 26.9885 38.9998 26.5409 38.9998 25.9889C38.9998 25.4364 39.4475 24.9887 39.9995 24.9887C40.552 24.9887 40.9996 25.4364 40.9996 25.9889C40.9996 26.5409 41.4473 26.9885 41.9993 26.9885C43.0338 26.919 44.0023 26.4567 44.7063 25.6955C45.0967 25.305 45.0967 24.6724 44.7063 24.282Z" fill="#FF7C77"/>
</g>
<defs>
<clipPath id="clip0">
<rect width="60" height="60" fill="white"/>
</clipPath>
</defs>
</svg>
