<svg width="60" height="60" viewBox="0 0 60 60" fill="none" xmlns="http://www.w3.org/2000/svg">
<g clip-path="url(#clip0)">
<path d="M59.808 25.2621L50.1998 10.6108C49.9831 10.2805 49.6149 10.0815 49.22 10.0815H10.8255C10.4314 10.0815 10.0638 10.2796 9.84695 10.6088L0.223282 25.2164C0.177462 25.2796 0.137735 25.3478 0.104571 25.4207C-0.0853898 25.8395 -0.0127336 26.3306 0.290313 26.6766L5.16824 32.2462C5.59469 32.7331 6.33485 32.7821 6.82164 32.3557C7.30844 31.9293 7.35742 31.189 6.93109 30.7023L3.75567 27.0764H19.5175L27.4379 54.1171L18.4877 43.8978C18.0613 43.4108 17.3209 43.3619 16.8343 43.7882C16.3475 44.2146 16.2985 44.9549 16.7248 45.4416L29.1221 59.5968C29.3445 59.8508 29.6659 59.9966 30.0036 59.9966C30.3413 59.9966 30.6625 59.8508 30.8849 59.5967L44.0838 44.5226C44.5102 44.0357 44.4611 43.2954 43.9741 42.8692C43.487 42.4428 42.7468 42.4919 42.3207 42.9789L32.5695 54.1156L40.4895 27.0763H56.2448L48.9577 35.399C48.5312 35.8859 48.5804 36.6262 49.0674 37.0524C49.2897 37.2471 49.5648 37.3426 49.8388 37.3426C50.1648 37.3426 50.4892 37.2073 50.7208 36.9427L59.7098 26.6765C60.0564 26.2806 60.0966 25.7022 59.808 25.2621ZM3.34832 24.7329L10.8231 13.3867L18.2639 24.7329H3.34832ZM12.9951 12.4252H27.8337L20.4145 23.7386L12.9951 12.4252ZM30.0034 13.3901L37.4419 24.7329H22.565L30.0034 13.3901ZM30.0034 54.5393L21.9595 27.0764H38.0474L30.0034 54.5393ZM39.6116 23.768L32.1732 12.4252H47.0504L39.6116 23.768ZM41.7814 24.7329L49.22 13.3901L56.6583 24.7329H41.7814Z" fill="#FF7C77"/>
<path d="M18.4206 38.322C15.398 38.322 12.9388 35.8628 12.9388 32.8402C12.9388 32.1931 12.4141 31.6685 11.767 31.6685C11.1199 31.6685 10.5953 32.1931 10.5953 32.8402C10.5953 35.8628 8.13609 38.322 5.11347 38.322C4.46648 38.322 3.94171 38.8467 3.94171 39.4938C3.94171 40.1409 4.46648 40.6655 5.11347 40.6655C8.13609 40.6655 10.5953 43.1247 10.5953 46.1473C10.5953 46.7944 11.12 47.3191 11.767 47.3191C12.414 47.3191 12.9388 46.7944 12.9388 46.1473C12.9388 43.1247 15.398 40.6655 18.4206 40.6655C19.0677 40.6655 19.5923 40.1409 19.5923 39.4938C19.5923 38.8467 19.0677 38.322 18.4206 38.322ZM11.767 42.0322C11.1282 41.003 10.2578 40.1327 9.22874 39.4938C10.2578 38.855 11.1281 37.9846 11.767 36.9554C12.4058 37.9845 13.2763 38.8549 14.3053 39.4938C13.2763 40.1327 12.4059 41.0029 11.767 42.0322Z" fill="#FF7C77"/>
<path d="M58.8283 4.68996C56.89 4.68996 55.313 3.11297 55.313 1.17469C55.313 0.527578 54.7882 0.00292969 54.1412 0.00292969C53.4942 0.00292969 52.9695 0.527578 52.9695 1.17469C52.9695 3.11297 51.3925 4.68996 49.4542 4.68996C48.8072 4.68996 48.2824 5.21461 48.2824 5.86172C48.2824 6.50883 48.8072 7.03348 49.4542 7.03348C51.3925 7.03348 52.9695 8.61047 52.9695 10.5487C52.9695 11.1959 53.4942 11.7205 54.1412 11.7205C54.7882 11.7205 55.313 11.1959 55.313 10.5487C55.313 8.61047 56.89 7.03348 58.8283 7.03348C59.4753 7.03348 60 6.50883 60 5.86172C60 5.21461 59.4753 4.68996 58.8283 4.68996ZM54.1412 7.03711C53.8069 6.59203 53.4109 6.19605 52.9658 5.86172C53.4109 5.52738 53.8069 5.13141 54.1412 4.68633C54.4756 5.13141 54.8715 5.52738 55.3166 5.86172C54.8715 6.19594 54.4754 6.59203 54.1412 7.03711Z" fill="#FF7C77"/>
<path d="M47.2011 39.3014C46.9832 39.0822 46.6809 38.958 46.3728 38.958C46.0645 38.958 45.7635 39.0822 45.5444 39.3014C45.3264 39.5193 45.201 39.8217 45.201 40.1298C45.201 40.4378 45.3263 40.7402 45.5444 40.9582C45.7624 41.1761 46.0645 41.3015 46.3728 41.3015C46.681 41.3015 46.9832 41.1761 47.2011 40.9582C47.4191 40.7402 47.5446 40.4378 47.5446 40.1298C47.5446 39.8217 47.4192 39.5193 47.2011 39.3014Z" fill="#FF7C77"/>
</g>
<defs>
<clipPath id="clip0">
<rect width="60" height="60" fill="white"/>
</clipPath>
</defs>
</svg>
