<svg width="60" height="60" viewBox="0 0 60 60" fill="none" xmlns="http://www.w3.org/2000/svg">
<path d="M49.512 31.7124C49.0298 31.7124 48.6389 32.1033 48.6389 32.5856C48.6389 33.1969 48.1415 33.6943 47.5302 33.6943C46.9189 33.6943 46.4215 33.1969 46.4215 32.5856C46.4215 32.1032 46.0305 31.7124 45.5483 31.7124C45.0661 31.7124 44.6751 32.1033 44.6751 32.5856C44.6751 34.1599 45.956 35.4406 47.5302 35.4406C49.1043 35.4406 50.3852 34.1597 50.3852 32.5856C50.3852 32.1031 49.9943 31.7124 49.512 31.7124Z" fill="#FF7C77"/>
<path d="M57.7083 31.8548L55.2506 31.0675C54.9359 30.9666 54.6878 30.7154 54.5871 30.3953C54.0691 28.7485 53.2875 27.2024 52.2639 25.7999C51.7973 25.1607 51.2786 24.5503 50.7118 23.9691C51.0744 22.3785 51.2715 20.5784 51.246 19.0232C51.2094 16.7984 50.7648 15.4935 49.8868 15.0337C49.414 14.7857 47.9749 14.0324 40.1858 17.598C40.0014 17.6824 39.8291 17.7863 39.6696 17.9054C39.1445 17.7643 38.6078 17.6337 38.0678 17.5165C38.0027 17.5024 37.9357 17.4898 37.8702 17.476C38.5014 16.0972 38.8699 14.5996 38.9392 13.0537C38.9607 12.5718 38.5877 12.1638 38.1059 12.1423C37.6253 12.1184 37.2159 12.4937 37.1945 12.9755C37.0807 15.5174 36.0263 17.9091 34.2255 19.7099C33.1497 20.7858 31.8899 21.5674 30.5473 22.0596C28.2189 21.7328 25.8472 21.7328 23.5188 22.0596C22.1761 21.5674 20.9164 20.7858 19.8405 19.7099C17.9194 17.7888 16.8613 15.2344 16.8613 12.5174C16.8613 9.80033 17.9194 7.24611 19.8405 5.32494C21.7617 3.40365 24.3162 2.34557 27.033 2.34557C29.7499 2.34557 32.3044 3.40365 34.2255 5.32494C34.9976 6.09697 35.6355 6.97799 36.1218 7.94326C36.3387 8.37404 36.8638 8.54748 37.2945 8.33045C37.7252 8.11365 37.8986 7.58854 37.6816 7.15787C37.1118 6.02596 36.3645 4.99389 35.4606 4.0899C33.2095 1.83885 30.2166 0.599121 27.0332 0.599121C23.8498 0.599121 20.8568 1.83885 18.6057 4.0899C16.3547 6.34107 15.115 9.33393 15.115 12.5173C15.115 15.7007 16.3547 18.6937 18.6057 20.9447C19.2551 21.5941 19.9615 22.1525 20.7087 22.6203C20.7089 22.6203 20.7091 22.6202 20.7094 22.6202C20.1664 22.7613 19.6276 22.9197 19.0948 23.0978C18.6374 23.2508 18.3906 23.7454 18.5435 24.2029C18.6963 24.6603 19.1912 24.9071 19.6485 24.7543C24.4105 23.1623 29.6558 23.1623 34.4179 24.7543C34.5097 24.785 34.603 24.7995 34.6948 24.7995C35.06 24.7995 35.4006 24.5684 35.5228 24.2029C35.6757 23.7455 35.4289 23.2508 34.9716 23.0978C34.4387 22.9197 33.8999 22.7612 33.357 22.6202C33.3572 22.6202 33.3574 22.6203 33.3577 22.6203C34.105 22.1525 34.8112 21.5941 35.4606 20.9447C36.035 20.3703 36.5421 19.743 36.9824 19.0763C37.2231 19.1231 37.462 19.172 37.6975 19.2231C38.0111 19.2912 38.3232 19.3644 38.6326 19.4411C38.6229 19.4791 38.6129 19.5169 38.6048 19.5555C38.179 21.5764 38.2066 23.3637 38.687 24.8676C39.1187 26.2194 39.8979 27.3145 41.0026 28.1227C42.3047 29.0752 43.8766 29.4867 45.3006 29.4867C46.3723 29.4867 47.3603 29.2535 48.0859 28.8425C48.9067 28.3776 49.5943 27.398 50.1387 25.9273C50.3903 26.221 50.6287 26.5218 50.8535 26.8298C51.7649 28.0783 52.4606 29.4543 52.9214 30.9194C53.192 31.7799 53.8637 32.457 54.7181 32.7309L57.1758 33.5181C57.8207 33.7247 58.2539 34.3183 58.2539 34.9954V39.0706C58.2539 39.7477 57.8207 40.3413 57.1758 40.5479L53.2161 41.8162C52.5826 42.0193 52.0465 42.4546 51.7065 43.0422C50.1509 45.7307 47.705 47.9555 44.4366 49.6549C44.059 49.8514 43.7974 50.2028 43.7187 50.6193L42.4505 57.3345C42.4154 57.5196 42.2534 57.6537 42.065 57.6537H37.9416C37.7532 57.6537 37.5912 57.5194 37.5561 57.3345L36.8537 53.6233C36.7154 52.8931 36.0306 52.4081 35.2935 52.5197C33.5173 52.7883 31.687 52.9244 29.8539 52.9244C28.49 52.9244 27.1437 52.8483 25.8519 52.6982C25.1377 52.6161 24.4723 53.103 24.3388 53.8082L23.6713 57.3345C23.6362 57.5196 23.4742 57.6537 23.2859 57.6537H19.1624C18.9741 57.6537 18.812 57.5194 18.7765 57.3317L17.5554 50.9893C17.4768 50.5806 17.2201 50.2332 16.8509 50.036C11.2793 47.0616 8.33438 42.0924 8.33438 35.6658C8.33438 32.4188 9.04477 29.5476 10.4457 27.1317C11.7531 24.8771 13.6625 23.013 16.121 21.5909C16.5384 21.3494 16.6811 20.8153 16.4396 20.3977C16.1982 19.9803 15.6641 19.8379 15.2466 20.0791C10.4795 22.8367 7.6043 27.0911 6.8127 32.4946V32.4945C6.72867 32.4869 6.64453 32.4796 6.56074 32.471C6.57598 31.888 6.47051 31.2997 6.24082 30.7287C5.73422 29.4694 4.69359 28.5605 3.58957 28.4132C2.71957 28.2967 1.89164 28.6661 1.31707 29.4253C0.483984 30.5261 0.619805 31.3973 0.880313 31.9342C1.32012 32.8405 2.45063 33.4815 4.32668 33.8845C4.27512 33.9617 4.2184 34.0393 4.15629 34.1172C3.04781 35.5074 1.74187 35.8148 0.893906 35.8437C0.3975 35.8605 0 36.259 0 36.7558V36.76C0 37.25 0.386602 37.6496 0.876094 37.672C0.938789 37.6749 1.0043 37.6764 1.0725 37.6764C2.14547 37.6764 3.86754 37.2807 5.52199 35.2061C5.7832 34.8787 5.99602 34.5332 6.15961 34.1763C6.32438 34.1949 6.4827 34.2108 6.63434 34.2249C6.63434 34.2246 6.63434 34.2243 6.63445 34.224C6.60469 34.6972 6.58816 35.1773 6.58816 35.6658C6.58816 39.3019 7.455 42.5439 9.16441 45.3022C10.7406 47.8451 12.9973 49.9273 15.874 51.4932L17.0611 57.6591C17.252 58.6679 18.1357 59.4001 19.1624 59.4001H23.2859C24.3125 59.4001 25.1962 58.6679 25.3871 57.6591L25.9907 54.4707C27.2441 54.6035 28.5418 54.6707 29.8538 54.6707C31.6537 54.6707 33.4516 54.5453 35.2038 54.2978L35.84 57.6594C36.0311 58.6681 36.9148 59.4002 37.9413 59.4002H42.0648C43.0915 59.4002 43.9752 58.668 44.1662 57.6589L45.401 51.1209C48.8895 49.2762 51.5189 46.853 53.2179 43.9168C53.3404 43.7051 53.5289 43.5499 53.7487 43.4794L57.7083 42.2111C59.079 41.7718 60 40.5098 60 39.0704V34.9952C60 33.5559 59.079 32.2939 57.7083 31.8548ZM49.3685 21.477C49.0324 24.3512 48.1309 26.8097 47.225 27.3228C46.1954 27.906 43.8183 28.0187 42.0335 26.7131C40.2466 25.406 39.6519 23.0554 40.3134 19.9155C40.3134 19.9154 40.3134 19.9154 40.3134 19.9154C40.3799 19.6 40.6039 19.3272 40.9127 19.1859C45.2843 17.1848 47.8046 16.5303 48.741 16.5303C48.8823 16.5303 48.9875 16.5452 49.0576 16.5726C49.3389 16.8724 49.7078 18.5764 49.3685 21.477ZM2.45168 31.1717C2.36133 30.9854 2.57461 30.6578 2.70984 30.479C2.92418 30.1959 3.12164 30.138 3.27082 30.138C3.30234 30.138 3.33176 30.1406 3.35871 30.1442C3.7602 30.1978 4.3227 30.6396 4.6207 31.3803C4.6909 31.5547 4.78207 31.8435 4.8034 32.2038C3.59461 31.9533 2.65547 31.5923 2.45168 31.1717Z" fill="#FF7C77"/>
<path d="M27.881 11.5168V8.39207C28.9586 8.46906 29.3589 8.9616 29.7283 8.9616C30.1901 8.9616 30.4056 8.37672 30.4056 8.08422C30.4056 7.32988 28.9278 7.00668 27.881 6.97586V6.56008C27.881 6.37539 27.6501 6.20605 27.4192 6.20605C27.1574 6.20605 26.9727 6.37539 26.9727 6.56008V7.00645C25.5103 7.16043 24.048 7.93012 24.048 9.86969C24.048 11.8401 25.5873 12.3943 26.9727 12.8868V16.5043C25.4025 16.3811 24.987 15.3036 24.479 15.3036C24.0941 15.3036 23.7709 15.8116 23.7709 16.1811C23.7709 16.9353 25.064 17.9666 26.9727 17.9975V18.4746C26.9727 18.6593 27.1575 18.8287 27.4192 18.8287C27.6502 18.8287 27.881 18.6593 27.881 18.4746V17.9513C29.5436 17.7203 30.6826 16.6736 30.6826 14.7802C30.6826 12.6868 29.2203 12.0093 27.881 11.5168ZM27.0651 11.2244C26.2492 10.9165 25.5873 10.5933 25.5873 9.71594C25.5873 8.91543 26.203 8.53059 27.0651 8.42289V11.2244ZM27.7886 16.4734V13.2255C28.5428 13.5487 29.1431 13.9797 29.1431 14.9494C29.1431 15.827 28.6198 16.3196 27.7886 16.4734Z" fill="#FF7C77"/>
</svg>
