<svg width="60" height="60" viewBox="0 0 60 60" fill="none" xmlns="http://www.w3.org/2000/svg">
<g clip-path="url(#clip0)">
<path d="M48.6342 18.5958L51.3782 10.5035C51.6048 9.83496 51.4325 9.09553 50.9332 8.59619C50.4338 8.09738 49.6949 7.92455 49.0264 8.15171L40.9341 10.8957L34.0857 5.78491C33.5196 5.3632 32.7636 5.29852 32.1344 5.61933C31.5057 5.93963 31.1129 6.58954 31.1223 7.29534L31.2314 15.8394L24.2547 20.7732C23.6783 21.181 23.3833 21.8806 23.4936 22.5776C23.6043 23.2751 24.101 23.8489 24.7748 24.0585L28.2396 25.1353L1.2724 52.1025C-0.424305 53.8033 -0.424305 56.5561 1.2724 58.2564L1.28326 58.2673C2.98411 59.9573 5.73174 59.9526 7.42689 58.257L34.3946 31.2898L35.4719 34.7541C35.6789 35.4299 36.2543 35.9277 36.9528 36.0358C37.0506 36.0513 37.1489 36.0591 37.2483 36.0591C37.849 36.0591 38.412 35.7667 38.7566 35.2746L43.691 28.2979L52.2351 28.4071C52.9409 28.4164 53.5908 28.0237 53.9111 27.395C54.2314 26.7658 54.1672 26.0093 53.745 25.4437L48.6342 18.5958ZM5.92837 56.7584C5.05647 57.6303 3.64333 57.6303 2.77195 56.7584L2.76367 56.7502C1.90058 55.8767 1.9042 54.4708 2.77092 53.6015L11.6342 44.7382L14.7912 47.8951L5.92837 56.7584ZM16.2907 46.3966L13.1338 43.2397L30.5267 25.8463L32.9349 26.5945L33.6836 29.0032L16.2907 46.3966ZM43.5787 26.1774C42.9681 26.1692 42.3932 26.462 42.0409 26.9608L37.3368 33.6126L34.9182 25.8328C34.7371 25.2497 34.2807 24.7933 33.6976 24.6122L25.9173 22.1936L32.5696 17.4895C33.0679 17.1371 33.3607 16.5617 33.353 15.9517L33.249 7.80502L39.7786 12.6778C40.2681 13.0426 40.9056 13.1435 41.4836 12.9479L49.1992 10.3312L46.5825 18.0473C46.3864 18.6253 46.4878 19.2628 46.8526 19.7518L51.7254 26.2814L43.5787 26.1774Z" fill="#FF7C77"/>
<path d="M16.4729 12.067L17.767 12.4245L17.4094 13.7192C17.2537 14.2837 17.5854 14.8669 18.1494 15.0226C18.7134 15.1784 19.2971 14.8472 19.4528 14.2832L19.8104 12.9885L21.105 13.3461C21.669 13.5019 22.2527 13.1707 22.4085 12.6062C22.5642 12.0421 22.233 11.4585 21.6685 11.3027L20.3739 10.9452L20.7319 9.65051C20.8877 9.0865 20.5565 8.50282 19.992 8.34707C19.428 8.19132 18.8443 8.52248 18.6885 9.0865L18.331 10.3811L17.0363 10.0236C16.4723 9.86784 15.8887 10.199 15.7329 10.763C15.5772 11.3276 15.9083 11.9107 16.4723 12.0665L16.4729 12.067Z" fill="#FF7C77"/>
<path d="M50.0467 46.098L49.3844 45.9154L49.5671 45.2531C49.7228 44.689 49.3917 44.1054 48.8271 43.9496C48.2631 43.7939 47.6794 44.125 47.5237 44.6896L47.341 45.3519L46.6787 45.1692C46.1162 45.0181 45.5372 45.3493 45.3825 45.9107C45.2278 46.4722 45.5548 47.0532 46.1152 47.2121L46.7775 47.3948L46.5949 48.0571C46.4898 48.4234 46.5897 48.8182 46.8562 49.0904C47.1227 49.3631 47.5154 49.4713 47.8838 49.374C48.2522 49.2767 48.5405 48.989 48.6383 48.6206L48.8209 47.9583L49.4832 48.1414C50.0462 48.2941 50.6273 47.9629 50.7825 47.4004C50.9378 46.8375 50.6087 46.2553 50.0467 46.098Z" fill="#FF7C77"/>
<path d="M59.2262 16.8478L57.9942 16.5078L58.3336 15.2758C58.4894 14.7118 58.1582 14.1281 57.5942 13.9723C57.0297 13.8171 56.4465 14.1483 56.2908 14.7123L55.9508 15.9443L54.7188 15.6044C54.3534 15.5019 53.9612 15.6033 53.6901 15.8693C53.4195 16.1353 53.3118 16.5259 53.4081 16.8928C53.5038 17.2602 53.7889 17.5479 54.1553 17.6477L55.3873 17.9872L55.0473 19.2192C54.8921 19.7838 55.2233 20.3669 55.7873 20.5227C56.3513 20.6784 56.935 20.3473 57.0907 19.7827L57.4307 18.5512L58.6622 18.8907C59.2257 19.0438 59.8068 18.7127 59.962 18.1497C60.1173 17.5872 59.7882 17.0051 59.2257 16.8478H59.2262Z" fill="#FF7C77"/>
<path d="M39.8128 4.10366L40.6836 4.34375L40.4435 5.21461C40.3411 5.58045 40.4425 5.97267 40.7085 6.24329C40.9744 6.51392 41.3651 6.62155 41.732 6.52582C42.0994 6.42957 42.3871 6.14446 42.4869 5.77811L42.727 4.90725L43.5984 5.14735C43.9668 5.2586 44.3663 5.16132 44.6421 4.89328C44.9184 4.62576 45.0276 4.2294 44.9277 3.85787C44.8279 3.48635 44.535 3.19813 44.1619 3.10499L43.2905 2.86438L43.5306 1.993C43.6838 1.43002 43.3526 0.848928 42.7902 0.693695C42.2272 0.538461 41.6451 0.867556 41.4878 1.4295L41.2477 2.30036L40.3763 2.06027C40.0104 1.95781 39.6182 2.05872 39.3476 2.3252C39.077 2.59117 38.9693 2.98184 39.0651 3.34871C39.1613 3.71609 39.4464 4.00379 39.8128 4.10314V4.10366Z" fill="#FF7C77"/>
</g>
<defs>
<clipPath id="clip0">
<rect width="60" height="60" fill="white"/>
</clipPath>
</defs>
</svg>
