<svg width="143" height="24" viewBox="0 0 143 24" fill="none" xmlns="http://www.w3.org/2000/svg">
	<path d="M4.65171 9.0745C5.04892 8.07335 5.60189 7.3494 6.31062 6.90275C7.02715 6.44841 7.83324 6.22119 8.72889 6.22119C9.84261 6.22119 10.6877 6.51771 11.264 7.11065C11.56 7.43418 11.7702 7.8346 11.8948 8.31211C12.0272 8.78183 12.0934 9.41726 12.0934 10.2182V16.5371C12.0934 16.9761 12.1518 17.3188 12.2687 17.5652C12.3933 17.8117 12.5841 17.985 12.8411 18.0851C13.1059 18.1852 13.4642 18.2353 13.9159 18.2353V18.732C12.4517 18.6704 11.4937 18.6395 11.042 18.6395C10.5981 18.6395 9.70632 18.6704 8.36673 18.732V18.2353C8.76393 18.2353 9.07158 18.1852 9.28965 18.0851C9.51551 17.985 9.67906 17.8117 9.7803 17.5652C9.88935 17.3188 9.94387 16.9761 9.94387 16.5371V9.6983C9.94387 9.12842 9.89713 8.65092 9.80367 8.26588C9.718 7.88083 9.53108 7.56894 9.24291 7.33018C8.96254 7.09143 8.54976 6.97205 8.00457 6.97205C7.35036 6.97205 6.76624 7.16073 6.25221 7.53808C5.74597 7.91543 5.35267 8.43533 5.07229 9.09767C4.79191 9.75222 4.65171 10.48 4.65171 11.281V16.5371C4.65171 16.9761 4.70234 17.3188 4.80359 17.5652C4.91262 17.8117 5.08007 17.985 5.30593 18.0851C5.5318 18.1852 5.84333 18.2353 6.24053 18.2353V18.732C4.90094 18.6704 4.00528 18.6395 3.55357 18.6395C3.10185 18.6395 2.14389 18.6704 0.679688 18.732V18.2353C1.13141 18.2353 1.48577 18.1852 1.74279 18.0851C2.00759 17.985 2.1984 17.8117 2.31523 17.5652C2.43984 17.3188 2.50215 16.9761 2.50215 16.5371V9.13227C2.50215 8.40063 2.36585 7.8693 2.09327 7.53808C1.82846 7.20696 1.35727 7.04135 0.679688 7.04135V6.54462C1.17814 6.59085 1.67269 6.61392 2.16336 6.61392C3.17583 6.61392 4.00528 6.50618 4.65171 6.29049V9.0745ZM25.3647 15.8902C25.1778 16.4447 24.8779 16.9645 24.4652 17.4497C24.0601 17.9272 23.55 18.3161 22.9347 18.6165C22.3272 18.9168 21.6457 19.067 20.8903 19.067C19.7532 19.067 18.768 18.8128 17.9347 18.3046C17.1091 17.7886 16.4782 17.0685 16.0421 16.1443C15.6059 15.2125 15.3879 14.1421 15.3879 12.9329C15.3879 11.5621 15.6098 10.3722 16.0538 9.36333C16.4977 8.3545 17.1247 7.58047 17.9347 7.04135C18.7524 6.49455 19.7065 6.22119 20.7969 6.22119C22.2299 6.22119 23.3319 6.65247 24.103 7.51501C24.8818 8.36987 25.2713 9.67139 25.2713 11.4196H17.7945C17.74 11.8278 17.7127 12.3322 17.7127 12.9329C17.7127 13.9726 17.884 14.8814 18.2267 15.6592C18.5772 16.437 19.0328 17.0338 19.5935 17.4497C20.1543 17.8656 20.7462 18.0735 21.3693 18.0735C22.9737 18.0735 24.1459 17.2841 24.8857 15.7054L25.3647 15.8902ZM22.9698 10.9691C23.0009 10.1835 22.9347 9.46349 22.7711 8.80884C22.6076 8.15419 22.3506 7.63439 22.0001 7.24935C21.6496 6.86421 21.2174 6.67169 20.7034 6.67169C20.2127 6.67169 19.761 6.82961 19.3482 7.14535C18.9355 7.4534 18.585 7.93091 18.2968 8.57777C18.0164 9.21704 17.8373 10.014 17.7594 10.9691H22.9698Z" fill="#FF7C77"/>
	<path d="M31.054 9.0747C31.4513 8.07355 32.0043 7.3496 32.713 6.90295C33.4295 6.4486 34.2356 6.22138 35.1313 6.22138C36.245 6.22138 37.09 6.5179 37.6663 7.11084C37.9623 7.43437 38.1726 7.83479 38.2972 8.3123C38.4296 8.78202 38.4958 9.41745 38.4958 10.2184V16.5373C38.4958 16.9763 38.5542 17.319 38.6711 17.5654C38.7957 17.8119 38.9865 17.9852 39.2435 18.0853C39.5083 18.1854 39.8666 18.2355 40.3183 18.2355V18.7322C38.8541 18.6706 37.8961 18.6397 37.4444 18.6397C37.0005 18.6397 36.1087 18.6706 34.7691 18.7322V18.2355C35.1663 18.2355 35.4739 18.1854 35.692 18.0853C35.9178 17.9852 36.0814 17.8119 36.1827 17.5654C36.2917 17.319 36.3462 16.9763 36.3462 16.5373V9.69849C36.3462 9.12862 36.2995 8.65111 36.206 8.26607C36.1204 7.88103 35.9335 7.56913 35.6453 7.33038C35.3649 7.09162 34.9521 6.97225 34.4069 6.97225C33.7528 6.97225 33.1686 7.16092 32.6546 7.53827C32.1483 7.91563 31.7551 8.43552 31.4746 9.09786C31.1943 9.75241 31.054 10.4802 31.054 11.2811V16.5373C31.054 16.9763 31.1047 17.319 31.206 17.5654C31.315 17.8119 31.4824 17.9852 31.7083 18.0853C31.9341 18.1854 32.2457 18.2355 32.6429 18.2355V18.7322C31.3033 18.6706 30.4077 18.6397 29.956 18.6397C29.5043 18.6397 28.5462 18.6706 27.0821 18.7322V18.2355C27.5338 18.2355 27.8882 18.1854 28.1452 18.0853C28.41 17.9852 28.6008 17.8119 28.7176 17.5654C28.8422 17.319 28.9045 16.9763 28.9045 16.5373V9.13246C28.9045 8.40082 28.7683 7.86949 28.4956 7.53827C28.2308 7.20715 27.7597 7.04155 27.0821 7.04155V6.54482C27.5805 6.59105 28.0751 6.61411 28.5657 6.61411C29.5782 6.61411 30.4077 6.50637 31.054 6.29068V9.0747ZM52.246 16.1792C52.246 16.9108 52.3785 17.4422 52.6432 17.7733C52.9158 18.0969 53.3909 18.2585 54.0685 18.2585V18.7553C53.5701 18.7091 53.0755 18.686 52.5848 18.686C51.5567 18.686 50.7273 18.7976 50.0965 19.021V16.2254C49.7071 17.1958 49.1619 17.912 48.4609 18.3741C47.7678 18.8362 47.0045 19.0672 46.1712 19.0672C45.0964 19.0672 44.2669 18.7669 43.6828 18.1662C43.3946 17.8581 43.1882 17.4576 43.0636 16.9647C42.9468 16.4718 42.8884 15.8403 42.8884 15.0702V9.13246C42.8884 8.40082 42.756 7.86949 42.4912 7.53827C42.2264 7.20715 41.7552 7.04155 41.0776 7.04155V6.54482C41.576 6.59105 42.0706 6.61411 42.5613 6.61411C43.566 6.61411 44.3954 6.50637 45.0496 6.29068V15.59C45.0496 16.1908 45.0847 16.676 45.1548 17.0456C45.2249 17.4153 45.3923 17.7195 45.6572 17.9582C45.9219 18.1892 46.323 18.3048 46.8604 18.3048C47.4757 18.3048 48.0287 18.1161 48.5194 17.7387C49.01 17.3614 49.3955 16.8453 49.6759 16.1908C49.9563 15.5361 50.0965 14.8122 50.0965 14.019V9.13246C50.0965 8.40082 49.9602 7.86949 49.6875 7.53827C49.4228 7.20715 48.9516 7.04155 48.274 7.04155V6.54482C48.7725 6.59105 49.267 6.61411 49.7577 6.61411C50.7702 6.61411 51.5996 6.50637 52.246 6.29068V16.1792ZM73.6599 16.5373C73.6599 16.9763 73.7183 17.319 73.8352 17.5654C73.9598 17.8119 74.1506 17.9852 74.4076 18.0853C74.6724 18.1854 75.0307 18.2355 75.4824 18.2355V18.7322C74.0182 18.6706 73.0603 18.6397 72.6085 18.6397C72.1646 18.6397 71.2728 18.6706 69.9332 18.7322V18.2355C70.3305 18.2355 70.6381 18.1854 70.8561 18.0853C71.082 17.9852 71.2455 17.8119 71.3468 17.5654C71.4559 17.319 71.5104 16.9763 71.5104 16.5373V9.69849C71.5104 9.09786 71.4753 8.61267 71.4052 8.243C71.3352 7.86565 71.1677 7.56144 70.9029 7.33038C70.6381 7.09162 70.2331 6.97225 69.6879 6.97225C69.0805 6.97225 68.5314 7.16092 68.0407 7.53827C67.55 7.91563 67.1645 8.43168 66.8841 9.08623C66.6038 9.74088 66.4636 10.4648 66.4636 11.2581V16.5373C66.4636 16.9763 66.522 17.319 66.6389 17.5654C66.7635 17.8119 66.9543 17.9852 67.2113 18.0853C67.4683 18.1854 67.8226 18.2355 68.2744 18.2355V18.7322C66.8101 18.6706 65.8561 18.6397 65.4122 18.6397C64.9605 18.6397 64.0647 18.6706 62.7252 18.7322V18.2355C63.1224 18.2355 63.4339 18.1854 63.6598 18.0853C63.8856 17.9852 64.0492 17.8119 64.1505 17.5654C64.2517 17.319 64.3023 16.9763 64.3023 16.5373V9.69849C64.3023 9.09786 64.2672 8.61267 64.1971 8.243C64.1271 7.86565 63.9596 7.56144 63.6948 7.33038C63.43 7.09162 63.029 6.97225 62.4915 6.97225C61.8763 6.97225 61.3233 7.16477 60.8326 7.54981C60.3419 7.92726 59.9564 8.44706 59.6761 9.1094C59.3957 9.76395 59.2555 10.4879 59.2555 11.2811V16.5373C59.2555 16.9763 59.3061 17.319 59.4073 17.5654C59.5164 17.8119 59.6839 17.9852 59.9098 18.0853C60.1356 18.1854 60.4471 18.2355 60.8443 18.2355V18.7322C59.5047 18.6706 58.6091 18.6397 58.1573 18.6397C57.7056 18.6397 56.7477 18.6706 55.2834 18.7322V18.2355C55.7351 18.2355 56.0895 18.1854 56.3465 18.0853C56.6114 17.9852 56.8022 17.8119 56.9191 17.5654C57.0437 17.319 57.1059 16.9763 57.1059 16.5373V9.13246C57.1059 8.40082 56.9696 7.86949 56.697 7.53827C56.4323 7.20715 55.961 7.04155 55.2834 7.04155V6.54482C55.7819 6.59105 56.2765 6.61411 56.7671 6.61411C57.7796 6.61411 58.6091 6.50637 59.2555 6.29068V9.0747C59.6449 8.1044 60.1901 7.38814 60.891 6.92601C61.5919 6.45629 62.3553 6.22138 63.1808 6.22138C64.2633 6.22138 65.0929 6.5179 65.6692 7.11084C66.0663 7.54212 66.3117 8.17755 66.4052 9.01693C66.8023 8.02347 67.3514 7.31115 68.0524 6.87988C68.7533 6.44082 69.5322 6.22138 70.3889 6.22138C71.4714 6.22138 72.3008 6.5179 72.8773 7.11084C73.1654 7.42659 73.3679 7.83095 73.4847 8.32383C73.6015 8.80903 73.6599 9.44052 73.6599 10.2184V16.5373ZM86.9312 15.8904C86.7443 16.4449 86.4444 16.9647 86.0317 17.4499C85.6266 17.9274 85.1165 18.3163 84.5012 18.6167C83.8937 18.917 83.2123 19.0672 82.4568 19.0672C81.3197 19.0672 80.3345 18.813 79.5012 18.3048C78.6756 17.7888 78.0448 17.0687 77.6087 16.1445C77.1725 15.2127 76.9544 14.1422 76.9544 12.9331C76.9544 11.5623 77.1764 10.3724 77.6203 9.36353C78.0642 8.35469 78.6912 7.58066 79.5012 7.04155C80.3189 6.49474 81.273 6.22138 82.3634 6.22138C83.7964 6.22138 84.8985 6.65266 85.6695 7.51521C86.4483 8.37007 86.8378 9.67158 86.8378 11.4197H79.361C79.3065 11.828 79.2792 12.3324 79.2792 12.9331C79.2792 13.9728 79.4505 14.8816 79.7933 15.6593C80.1437 16.4372 80.5994 17.034 81.1601 17.4499C81.7209 17.8658 82.3127 18.0737 82.9358 18.0737C84.5402 18.0737 85.7124 17.2843 86.4523 15.7056L86.9312 15.8904ZM84.5363 10.9692C84.5674 10.1837 84.5012 9.46368 84.3377 8.80903C84.1741 8.15438 83.9171 7.63458 83.5666 7.24954C83.2162 6.8644 82.784 6.67188 82.2699 6.67188C81.7792 6.67188 81.3275 6.8298 80.9148 7.14554C80.502 7.4536 80.1514 7.9311 79.8633 8.57797C79.5829 9.21724 79.4038 10.0142 79.3259 10.9692H84.5363ZM92.6205 9.248C92.7996 8.75511 93.0567 8.2776 93.3916 7.81557C93.7342 7.35344 94.1393 6.97225 94.6065 6.67188C95.0739 6.37152 95.5684 6.22138 96.0902 6.22138C96.5108 6.22138 96.8846 6.30606 97.2117 6.47552C97.5467 6.63728 97.8076 6.86056 97.9945 7.14554C98.1814 7.43053 98.2748 7.74243 98.2748 8.08124C98.2748 8.49713 98.1502 8.85142 97.901 9.144C97.6518 9.42898 97.3208 9.57143 96.908 9.57143C96.5576 9.57143 96.2577 9.46368 96.0085 9.248C95.7592 9.02462 95.6346 8.72435 95.6346 8.3469C95.6346 7.83095 95.9072 7.40352 96.4524 7.06471C96.3433 6.91063 96.1759 6.83365 95.95 6.83365C95.3192 6.83365 94.7507 7.0724 94.2444 7.54981C93.7381 8.02732 93.341 8.61651 93.0527 9.31729C92.7646 10.0182 92.6205 10.6727 92.6205 11.2811V16.2947C92.6205 17.0263 92.8308 17.5347 93.2514 17.8196C93.6719 18.0969 94.3068 18.2355 95.1556 18.2355V18.7322C93.193 18.6706 91.9663 18.6397 91.4756 18.6397C91.0551 18.6397 90.1127 18.6706 88.6485 18.7322V18.2355C89.1002 18.2355 89.4546 18.1854 89.7116 18.0853C89.9764 17.9852 90.1672 17.8119 90.2841 17.5654C90.4087 17.319 90.471 16.9763 90.471 16.5373V9.13246C90.471 8.40082 90.3347 7.86949 90.062 7.53827C89.7973 7.20715 89.3261 7.04155 88.6485 7.04155V6.54482C89.147 6.59105 89.6416 6.61411 90.1322 6.61411C91.1447 6.61411 91.9741 6.50637 92.6205 6.29068V9.248ZM104.677 6.22138C105.729 6.22138 106.659 6.4486 107.469 6.90295C108.287 7.35729 108.93 8.06586 109.396 9.02846C109.872 9.98348 110.109 11.1926 110.109 12.6558C110.109 14.1191 109.872 15.3282 109.396 16.2831C108.93 17.2382 108.287 17.9428 107.469 18.3972C106.659 18.8439 105.729 19.0672 104.677 19.0672C103.625 19.0672 102.691 18.8439 101.874 18.3972C101.063 17.9428 100.42 17.2382 99.9455 16.2831C99.4782 15.3282 99.2445 14.1191 99.2445 12.6558C99.2445 11.1926 99.4782 9.98348 99.9455 9.02846C100.42 8.06586 101.063 7.35729 101.874 6.90295C102.691 6.4486 103.625 6.22138 104.677 6.22138ZM104.677 6.69505C103.719 6.69505 102.959 7.18015 102.399 8.15054C101.846 9.12093 101.569 10.6227 101.569 12.6558C101.569 14.6813 101.846 16.1792 102.399 17.1495C102.959 18.1122 103.719 18.5936 104.677 18.5936C105.635 18.5936 106.39 18.1122 106.943 17.1495C107.504 16.1792 107.784 14.6813 107.784 12.6558C107.784 10.6227 107.504 9.12093 106.943 8.15054C106.39 7.18015 105.635 6.69505 104.677 6.69505ZM115.495 16.5373C115.495 16.9763 115.553 17.319 115.67 17.5654C115.794 17.8119 115.986 17.9852 116.243 18.0853C116.507 18.1854 116.866 18.2355 117.318 18.2355V18.7322C115.853 18.6706 114.887 18.6397 114.42 18.6397C113.953 18.6397 112.987 18.6706 111.523 18.7322V18.2355C111.974 18.2355 112.329 18.1854 112.586 18.0853C112.85 17.9852 113.042 17.8119 113.158 17.5654C113.283 17.319 113.345 16.9763 113.345 16.5373V3.02148C113.345 2.28985 113.209 1.76231 112.936 1.43885C112.672 1.10769 112.2 0.942112 111.523 0.942112V0.445382C112.021 0.491585 112.515 0.514692 113.006 0.514692C114.035 0.514692 114.864 0.403024 115.495 0.179688V16.5373ZM124.163 6.22138C125.215 6.22138 126.145 6.4486 126.956 6.90295C127.773 7.35729 128.415 8.06586 128.883 9.02846C129.358 9.98348 129.595 11.1926 129.595 12.6558C129.595 14.1191 129.358 15.3282 128.883 16.2831C128.415 17.2382 127.773 17.9428 126.956 18.3972C126.145 18.8439 125.215 19.0672 124.163 19.0672C123.112 19.0672 122.177 18.8439 121.359 18.3972C120.549 17.9428 119.906 17.2382 119.432 16.2831C118.964 15.3282 118.731 14.1191 118.731 12.6558C118.731 11.1926 118.964 9.98348 119.432 9.02846C119.906 8.06586 120.549 7.35729 121.359 6.90295C122.177 6.4486 123.112 6.22138 124.163 6.22138ZM124.163 6.69505C123.205 6.69505 122.446 7.18015 121.885 8.15054C121.332 9.12093 121.056 10.6227 121.056 12.6558C121.056 14.6813 121.332 16.1792 121.885 17.1495C122.446 18.1122 123.205 18.5936 124.163 18.5936C125.121 18.5936 125.877 18.1122 126.429 17.1495C126.99 16.1792 127.271 14.6813 127.271 12.6558C127.271 10.6227 126.99 9.12093 126.429 8.15054C125.877 7.18015 125.121 6.69505 124.163 6.69505ZM139.876 16.133C140.71 16.133 141.383 16.3063 141.897 16.6528C142.419 16.9994 142.68 17.5577 142.68 18.3278C142.68 19.0826 142.43 19.8335 141.932 20.5805C141.442 21.3275 140.69 21.9475 139.677 22.4404C138.673 22.9332 137.442 23.1797 135.986 23.1797C135.152 23.1797 134.366 23.095 133.626 22.9256C132.894 22.7638 132.302 22.5173 131.85 22.1862C131.399 21.8628 131.172 21.47 131.172 21.0079C131.172 20.4688 131.457 19.9452 132.026 19.4368C132.602 18.9362 133.318 18.4973 134.175 18.1199H134.093C133.485 18.1199 132.933 17.9929 132.435 17.7387C131.944 17.4846 131.698 17.0109 131.698 16.3178C131.698 15.7787 131.924 15.2666 132.376 14.7814C132.827 14.2962 133.599 13.811 134.689 13.3258C133.988 13.0563 133.442 12.6404 133.054 12.0782C132.664 11.5161 132.469 10.8075 132.469 9.95272C132.469 8.70503 132.87 7.77318 133.673 7.15708C134.482 6.53328 135.554 6.22138 136.886 6.22138C137.509 6.22138 138.073 6.29068 138.579 6.42928C138.735 5.55136 139.015 4.85057 139.421 4.32683C139.849 3.80319 140.394 3.54127 141.056 3.54127C141.454 3.54127 141.761 3.6568 141.979 3.88787C142.205 4.11893 142.318 4.41545 142.318 4.77743C142.318 5.10086 142.208 5.37037 141.991 5.58606C141.773 5.80164 141.5 5.90949 141.172 5.90949C140.768 5.90949 140.476 5.79011 140.296 5.55136C140.118 5.30491 139.985 4.92756 139.899 4.4193C139.666 4.6272 139.452 5.01224 139.257 5.57442C139.14 5.92102 139.058 6.2483 139.011 6.55635C139.736 6.81827 140.3 7.23407 140.706 7.80404C141.111 8.36622 141.313 9.08239 141.313 9.95272C141.313 10.7921 141.123 11.4929 140.741 12.0552C140.359 12.6097 139.838 13.0216 139.175 13.2912C138.513 13.5607 137.75 13.6955 136.886 13.6955C136.239 13.6955 135.651 13.6223 135.121 13.4761C134.475 13.8149 133.977 14.1306 133.626 14.4233C133.283 14.7083 133.111 15.0163 133.111 15.3474C133.111 15.6093 133.201 15.8056 133.381 15.9366C133.56 16.0676 133.852 16.133 134.257 16.133H139.876ZM136.886 6.63728C136.177 6.63728 135.636 6.89141 135.262 7.39967C134.895 7.90025 134.712 8.75126 134.712 9.95272C134.712 11.1541 134.895 12.0089 135.262 12.5172C135.636 13.0178 136.177 13.2681 136.886 13.2681C137.601 13.2681 138.143 13.0178 138.51 12.5172C138.883 12.0166 139.07 11.1618 139.07 9.95272C139.07 8.74358 138.883 7.88872 138.51 7.38814C138.143 6.88757 137.601 6.63728 136.886 6.63728ZM134.759 18.1199C134.245 18.3817 133.844 18.7322 133.556 19.1712C133.276 19.6101 133.135 20.0569 133.135 20.5112C133.135 21.0195 133.307 21.4431 133.649 21.782C133.992 22.1208 134.432 22.3711 134.97 22.5328C135.507 22.6945 136.059 22.7754 136.629 22.7754C137.337 22.7754 138.03 22.6484 138.708 22.3941C139.385 22.1477 139.942 21.7703 140.378 21.2621C140.815 20.7615 141.033 20.1531 141.033 19.4368C141.033 19.1288 140.978 18.8823 140.869 18.6975C140.768 18.505 140.585 18.3625 140.32 18.2701C140.055 18.17 139.685 18.1199 139.21 18.1199H134.759Z" fill="black"/>
</svg>