<svg width="30" height="30" viewBox="0 0 30 30" fill="none" xmlns="http://www.w3.org/2000/svg">
<g clip-path="url(#clip0)">
<path d="M7.78434 8.79162C7.89566 8.90288 8.04525 8.96323 8.19871 8.96323C8.24857 8.96323 8.29878 8.95691 8.34823 8.94384C9.02815 8.76431 9.72804 8.71246 10.4285 8.79015C10.7503 8.82554 11.0398 8.59392 11.0754 8.27225C11.1109 7.95063 10.8791 7.66101 10.5575 7.62538C9.82671 7.54441 9.09641 7.58027 8.38163 7.73167L1.00028 0.350146C0.771477 0.121458 0.400467 0.121399 0.171604 0.350146C-0.0572013 0.578951 -0.0572013 0.949961 0.171604 1.17882L7.78434 8.79162Z" fill="white"/>
<path d="M29.8284 12.2765C29.5995 12.0478 29.2287 12.0478 28.9997 12.2765L27.3424 13.9339C27.1947 14.0815 27.1368 14.2965 27.1903 14.4984C27.7066 16.4461 27.1434 18.54 25.7206 19.9628L24.6513 21.032C24.555 20.8181 24.4195 20.6176 24.244 20.4421L19.0875 15.2857C19.4006 15.1198 19.6906 14.9065 19.9482 14.6488L20.9516 13.6454C21.1804 13.4166 21.1804 13.0456 20.9516 12.8167C20.7227 12.588 20.3518 12.588 20.1229 12.8167L19.1196 13.8201C18.6626 14.2771 18.0552 14.5286 17.4091 14.5286H15.4035C15.2481 14.5286 15.0991 14.5904 14.9892 14.7003L13.4537 16.2358C13.0277 16.6618 12.3343 16.6618 11.9083 16.2358C11.4825 15.81 11.4823 15.1174 11.9074 14.6914C11.9077 14.691 11.908 14.6907 11.9083 14.6904L16.1783 10.4205C17.6011 8.99754 19.6949 8.43435 21.6428 8.95073C21.8446 9.00422 22.0594 8.94639 22.2069 8.79891L29.8281 1.18677C30.0571 0.958081 30.0573 0.58713 29.8286 0.358149C29.6 0.129109 29.2289 0.128934 29 0.357621L21.6102 7.73874C19.3575 7.26144 16.9859 7.95559 15.3497 9.59185L14.5897 10.3518C14.5882 10.3533 14.5867 10.3548 14.5852 10.3563L11.0796 13.8618C10.1967 14.7447 10.1967 16.1815 11.0796 17.0644C11.5211 17.5059 12.1011 17.7266 12.681 17.7266C13.2609 17.7266 13.8408 17.5059 14.2823 17.0644L15.6462 15.7006H17.4092C17.5479 15.7006 17.6852 15.6918 17.821 15.6764L23.4154 21.2708C23.571 21.4263 23.6566 21.6332 23.6566 21.8532C23.6566 22.0731 23.5709 22.28 23.4154 22.4356C23.2598 22.5911 23.053 22.6768 22.833 22.6768C22.6131 22.6768 22.4062 22.5911 22.2507 22.4355L20.1314 20.3162L18.1808 18.3657C17.9519 18.1369 17.581 18.1369 17.3521 18.3657C17.1233 18.5945 17.1233 18.9655 17.3521 19.1943L19.3027 21.1449L21.422 23.2642C21.5775 23.4198 21.6633 23.6266 21.6633 23.8465C21.6633 24.0666 21.5775 24.2733 21.422 24.429C21.2664 24.5845 21.0596 24.6702 20.8396 24.6702C20.6197 24.6702 20.4128 24.5845 20.2573 24.4289L16.1865 20.3582C15.9576 20.1294 15.5867 20.1294 15.3578 20.3582C15.129 20.587 15.129 20.958 15.3578 21.1868L17.3087 23.1377C17.3089 23.1379 17.3091 23.1381 17.3092 23.1383L19.4286 25.2575C19.7497 25.5787 19.7497 26.1013 19.4286 26.4224C19.2731 26.578 19.0662 26.6636 18.8462 26.6636C18.6263 26.6636 18.4194 26.578 18.2639 26.4224L18.2571 26.4157L16.1445 24.303L14.3367 22.4952C14.1078 22.2665 13.7369 22.2665 13.508 22.4952C13.2792 22.724 13.2792 23.095 13.508 23.3239L15.3158 25.1317L17.4285 27.2443C17.584 27.3999 17.6698 27.6068 17.6698 27.8267C17.6698 28.0467 17.584 28.2536 17.4285 28.4091C17.1074 28.7303 16.5848 28.7302 16.2637 28.4091L15.2164 27.3617C15.4496 26.666 15.2901 25.8666 14.7371 25.3135C14.3604 24.9368 13.8598 24.7293 13.3271 24.729C13.3266 24.2187 13.1321 23.7085 12.7436 23.32C12.3549 22.9313 11.8443 22.7369 11.3337 22.7366C11.3334 22.2259 11.1389 21.7154 10.7502 21.3266C10.3617 20.9381 9.85153 20.7437 9.34125 20.7431C9.34095 20.2105 9.13342 19.7098 8.75678 19.3332C7.97873 18.5553 6.71277 18.5553 5.93472 19.3332L5.05723 20.2107C4.96507 20.3029 4.88421 20.402 4.8139 20.5062L4.26517 19.9575C2.84061 18.533 2.278 16.4371 2.79678 14.4876C2.85051 14.2857 2.79262 14.0704 2.64479 13.9226L1.00032 12.2785C0.771401 12.0497 0.400509 12.0498 0.171645 12.2786C-0.0571011 12.5075 -0.0570425 12.8784 0.171762 13.1073L1.58449 14.5196C1.10474 16.7745 1.79842 19.1481 3.43644 20.7861L4.39267 21.7424C4.4208 21.7705 4.45121 21.7951 4.48308 21.8163C4.52626 22.2606 4.71757 22.693 5.05706 23.0326C5.43369 23.4093 5.93437 23.6168 6.46703 23.6171C6.46756 24.1274 6.66203 24.6376 7.0505 25.0261C7.43897 25.4146 7.94914 25.609 8.45943 25.6095C8.45972 26.1421 8.66725 26.6428 9.04389 27.0195C9.43242 27.408 9.94241 27.6024 10.4528 27.6029C10.4531 28.1355 10.6606 28.6362 11.0373 29.0129C11.4263 29.4019 11.9373 29.5964 12.4483 29.5964C12.9594 29.5964 13.4703 29.4019 13.8593 29.0129L14.5347 28.3375L15.4348 29.2376C15.8239 29.6266 16.3348 29.8211 16.8459 29.8211C17.3569 29.8211 17.8679 29.6266 18.2569 29.2376C18.6437 28.8508 18.838 28.3433 18.8402 27.8352C18.8421 27.8352 18.8441 27.8353 18.846 27.8353C19.379 27.8353 19.8801 27.6278 20.257 27.2508C20.6455 26.8623 20.8399 26.3522 20.8404 25.8419C21.3731 25.8416 21.8738 25.634 22.2504 25.2574C22.6271 24.8808 22.8346 24.3801 22.8349 23.8475C23.3452 23.847 23.8554 23.6525 24.2439 23.264C24.4281 23.0797 24.5682 22.8679 24.6651 22.6419C24.7124 22.6158 24.7571 22.5832 24.7972 22.5431L26.549 20.7913C28.1852 19.1551 28.8793 16.7838 28.4022 14.5309L29.8282 13.105C30.0573 12.8764 30.0573 12.5054 29.8284 12.2765ZM5.88574 21.0394L6.76322 20.1619C6.92377 20.0013 7.1347 19.9211 7.34558 19.9211C7.55645 19.9211 7.76739 20.0013 7.92799 20.1619C8.08349 20.3174 8.16922 20.5243 8.16922 20.7442C8.16922 20.9642 8.08349 21.171 7.92793 21.3266L7.05044 22.2041C6.89488 22.3596 6.68805 22.4454 6.46809 22.4454C6.24813 22.4454 6.0413 22.3596 5.88574 22.2041C5.56459 21.883 5.56459 21.3605 5.88574 21.0394ZM7.87918 23.0328L8.75667 22.1553H8.75661C9.0777 21.8342 9.60023 21.8341 9.92149 22.1552C10.2426 22.4764 10.2426 22.9989 9.92149 23.32L9.04407 24.1976C8.72286 24.5187 8.20033 24.5187 7.87918 24.1975C7.55803 23.8764 7.55803 23.3539 7.87918 23.0328ZM9.63134 25.6086C9.63134 25.3886 9.71706 25.1818 9.87263 25.0263L10.7501 24.1487C11.0712 23.8276 11.5937 23.8276 11.9149 24.1488C12.236 24.4699 12.236 24.9924 11.9149 25.3135L11.0375 26.191C10.7162 26.5121 10.1937 26.5121 9.87263 26.191C9.71706 26.0355 9.63134 25.8286 9.63134 25.6086ZM13.0308 28.1844C12.7097 28.5055 12.1873 28.5055 11.866 28.1844C11.7105 28.0288 11.6248 27.822 11.6248 27.6021C11.6248 27.3821 11.7105 27.1753 11.8661 27.0197L12.7436 26.1422C12.7436 26.1422 12.7436 26.1422 12.7436 26.1422C12.8991 25.9867 13.106 25.9009 13.3259 25.9009C13.5459 25.9009 13.7527 25.9867 13.9083 26.1422C14.2294 26.4633 14.2294 26.9858 13.9083 27.307L13.0308 28.1844Z" fill="white"/>
<path d="M12.9963 9.6208C13.1504 9.6208 13.3016 9.55817 13.4106 9.44912C13.5202 9.34014 13.5823 9.18897 13.5823 9.03487C13.5823 8.88077 13.5202 8.72959 13.4106 8.62067C13.3016 8.51168 13.151 8.44893 12.9963 8.44893C12.8422 8.44893 12.6911 8.51162 12.5821 8.62067C12.4732 8.72959 12.4104 8.88077 12.4104 9.03487C12.4104 9.18897 12.4731 9.34014 12.5821 9.44912C12.6911 9.55817 12.8422 9.6208 12.9963 9.6208Z" fill="white"/>
</g>
<defs>
<clipPath id="clip0">
<rect width="30" height="30" fill="white"/>
</clipPath>
</defs>
</svg>
