<svg width="30" height="30" viewBox="0 0 30 30" fill="none" xmlns="http://www.w3.org/2000/svg">
<path d="M20.2734 18.6914C19.9499 18.6914 19.6875 18.9537 19.6875 19.2773V23.3203C19.6875 24.9357 18.3732 26.25 16.7578 26.25H10.4316C10.1081 26.25 9.84586 26.5121 9.84562 26.8355L9.8448 28.0005L8.44629 26.602C8.35576 26.3942 8.14857 26.25 7.90893 26.25H4.10156C2.48613 26.25 1.17188 24.9357 1.17188 23.3203V14.2969C1.17188 12.6814 2.48613 11.3672 4.10156 11.3672H10.0195C10.3431 11.3672 10.6055 11.1049 10.6055 10.7812C10.6055 10.4576 10.3431 10.1953 10.0195 10.1953H4.10156C1.83996 10.1953 0 12.0353 0 14.2969V23.3203C0 25.5819 1.83996 27.4219 4.10156 27.4219H7.60887L10.0154 29.8284C10.1275 29.9405 10.2773 30 10.4298 30C10.5052 30 10.5813 29.9854 10.6537 29.9555C10.8727 29.8649 11.0154 29.6514 11.0156 29.4145L11.017 27.4219H16.7578C19.0194 27.4219 20.8594 25.5819 20.8594 23.3203V19.2773C20.8594 18.9537 20.597 18.6914 20.2734 18.6914Z" fill="white"/>
<path d="M21.4837 0H20.0007C15.3048 0 11.4844 3.82043 11.4844 8.51637C11.4844 13.2123 15.3048 17.0327 20.0007 17.0327H21.4836C22.2166 17.0327 22.942 16.9396 23.6452 16.7556L25.8358 18.945C25.9479 19.057 26.0977 19.1165 26.2501 19.1165C26.3256 19.1165 26.4018 19.1019 26.4743 19.0719C26.6932 18.9812 26.8359 18.7675 26.8359 18.5306V15.1406C27.7634 14.3895 28.5339 13.4406 29.0746 12.3807C29.6887 11.1768 30 9.87668 30 8.51637C30 3.82043 26.1796 0 21.4837 0ZM25.8974 14.3868C25.7505 14.4975 25.6641 14.6708 25.6641 14.8549V17.1166L24.2302 15.6835C24.1187 15.5721 23.969 15.512 23.816 15.512C23.7585 15.512 23.7005 15.5205 23.6439 15.5379C22.9465 15.7522 22.2197 15.8609 21.4837 15.8609H20.0007C15.9509 15.8609 12.6562 12.5661 12.6562 8.51637C12.6562 4.4666 15.951 1.17188 20.0007 1.17188H21.4837C25.5335 1.17188 28.8281 4.4666 28.8281 8.51637C28.8281 10.8444 27.76 12.9841 25.8974 14.3868Z" fill="white"/>
<path d="M23.3809 6.41145C23.2963 5.18479 22.3075 4.19597 21.0808 4.11142C20.3854 4.06366 19.7217 4.29821 19.2138 4.77241C18.7128 5.24005 18.4255 5.9011 18.4255 6.58612C18.4255 6.90974 18.6879 7.17206 19.0115 7.17206C19.335 7.17206 19.5974 6.90974 19.5974 6.58612C19.5974 6.21938 19.7452 5.87948 20.0134 5.62911C20.2814 5.37897 20.6317 5.25517 21.0003 5.2806C21.6464 5.32513 22.1673 5.84597 22.2118 6.49208C22.2568 7.14464 21.8287 7.72132 21.1939 7.86335C20.6795 7.97843 20.3203 8.42538 20.3203 8.9502V10.3579C20.3203 10.6815 20.5827 10.9439 20.9063 10.9439C21.2299 10.9439 21.4922 10.6815 21.4922 10.3579V8.99702C22.6728 8.71179 23.465 7.63143 23.3809 6.41145Z" fill="white"/>
<path d="M21.3205 12.2613C21.2115 12.1523 21.0604 12.0896 20.9062 12.0896C20.7521 12.0896 20.601 12.1523 20.492 12.2613C20.383 12.3703 20.3203 12.5215 20.3203 12.6756C20.3203 12.8303 20.3831 12.9814 20.492 13.0904C20.601 13.1994 20.7521 13.2615 20.9062 13.2615C21.0604 13.2615 21.2115 13.1994 21.3205 13.0904C21.4295 12.9808 21.4922 12.8303 21.4922 12.6756C21.4922 12.5215 21.4294 12.3703 21.3205 12.2613Z" fill="white"/>
<path d="M16.1133 18.1641H3.75C3.42645 18.1641 3.16406 18.4264 3.16406 18.75C3.16406 19.0736 3.42645 19.3359 3.75 19.3359H16.1133C16.4369 19.3359 16.6992 19.0736 16.6992 18.75C16.6992 18.4264 16.4368 18.1641 16.1133 18.1641Z" fill="white"/>
<path d="M16.5275 21.617C16.4186 21.508 16.2674 21.4453 16.1133 21.4453C15.9592 21.4453 15.808 21.508 15.699 21.617C15.59 21.726 15.5273 21.8771 15.5273 22.0312C15.5273 22.1854 15.59 22.3365 15.699 22.4455C15.808 22.5545 15.9592 22.6172 16.1133 22.6172C16.2674 22.6172 16.4186 22.5545 16.5275 22.4455C16.6365 22.3365 16.6992 22.1859 16.6992 22.0312C16.6992 21.8771 16.6365 21.726 16.5275 21.617Z" fill="white"/>
<path d="M13.8086 21.4453H3.75C3.42645 21.4453 3.16406 21.7076 3.16406 22.0312C3.16406 22.3549 3.42645 22.6172 3.75 22.6172H13.8086C14.1322 22.6172 14.3946 22.3549 14.3946 22.0312C14.3946 21.7076 14.1322 21.4453 13.8086 21.4453Z" fill="white"/>
<path d="M12.3047 14.8828H3.75C3.42645 14.8828 3.16406 15.1451 3.16406 15.4688C3.16406 15.7924 3.42645 16.0547 3.75 16.0547H12.3047C12.6283 16.0547 12.8906 15.7924 12.8906 15.4688C12.8906 15.1451 12.6282 14.8828 12.3047 14.8828Z" fill="white"/>
</svg>
