<svg width="30" height="30" viewBox="0 0 30 30" fill="none" xmlns="http://www.w3.org/2000/svg">
<path d="M22.2363 26.6601C22.092 26.6601 21.9502 26.7188 21.848 26.8209C21.7459 26.9234 21.687 27.065 21.687 27.2094C21.687 27.3538 21.7455 27.4956 21.848 27.5977C21.9502 27.6998 22.092 27.7587 22.2363 27.7587C22.3807 27.7587 22.5227 27.6998 22.6245 27.5977C22.7269 27.4956 22.7857 27.3538 22.7857 27.2094C22.7857 27.065 22.7269 26.9231 22.6245 26.8209C22.5223 26.7188 22.3807 26.6601 22.2363 26.6601Z" fill="white"/>
<path d="M28.9282 26.867L24.8445 21.7359C24.7621 21.6326 24.6447 21.5622 24.5144 21.5382C24.4962 21.5346 22.6523 21.189 20.1052 20.3606C18.3987 19.8054 16.9897 19.8089 15.918 20.371C15.5115 20.5844 15.2109 20.851 14.9922 21.1073C14.7739 20.851 14.4731 20.5844 14.0668 20.371C12.9949 19.8089 11.5863 19.8054 9.8793 20.3606C7.33236 21.189 5.48821 21.5346 5.47018 21.538C5.33972 21.562 5.22265 21.6326 5.14025 21.7359L1.0566 26.867C0.925111 27.0322 0.900049 27.2576 0.991372 27.4478C1.08304 27.6376 1.2753 27.7585 1.48627 27.7585H13.2003C13.4354 28.521 14.147 29.0768 14.986 29.0768C15.8253 29.0768 16.5368 28.521 16.772 27.7585H20.0209C20.324 27.7585 20.5702 27.5123 20.5702 27.2092C20.5702 26.9057 20.324 26.6598 20.0209 26.6598H16.6778L15.5982 25.5801C15.736 25.3029 16.0733 24.7735 16.7655 24.4104C17.8329 23.8508 19.3172 23.8738 21.1777 24.4789C24.0655 25.4182 26.2216 25.8778 26.8341 26L27.3592 26.6598H24.4702C24.1668 26.6598 23.9208 26.9057 23.9208 27.2092C23.9208 27.5123 24.1668 27.7585 24.4702 27.7585H28.4984C28.7093 27.7585 28.9016 27.6376 28.9931 27.4478C29.0847 27.2576 29.0595 27.0322 28.9282 26.867ZM5.8741 22.5781C6.43063 22.4646 8.06467 22.106 10.2192 21.4053C11.7169 20.918 12.927 20.9296 13.719 21.4384C14.1804 21.7351 14.3792 22.1175 14.4431 22.2669V23.9182C14.2414 23.7469 14.0057 23.5823 13.7295 23.4376C12.3904 22.735 10.6198 22.7341 8.46721 23.4342C6.7355 23.9974 5.25612 24.3874 4.24006 24.6311L5.8741 22.5781ZM3.1507 26C3.76301 25.8778 5.91908 25.4182 8.8071 24.4791C10.6531 23.8784 12.1296 23.8515 13.1954 24.3982C13.8998 24.7596 14.2409 25.2857 14.3825 25.5701L13.293 26.6598H2.62559L3.1507 26ZM14.986 27.9782C14.5878 27.9782 14.2592 27.6742 14.2204 27.2862L14.9854 26.5211L15.7518 27.2876C15.7123 27.675 15.3841 27.9782 14.986 27.9782ZM21.5176 23.4343C19.365 22.7341 17.5944 22.7352 16.2555 23.4376C15.9791 23.5823 15.7432 23.7471 15.5417 23.9182V22.2655C15.6107 22.1041 15.8485 21.6482 16.4282 21.344C17.2168 20.9305 18.3707 20.9518 19.7654 21.4053C21.9201 22.106 23.554 22.4646 24.1107 22.5781L25.7449 24.6317C24.7297 24.3881 23.251 23.9982 21.5176 23.4343Z" fill="white"/>
<path d="M3.90682 19.5744C3.97085 19.8217 4.19384 19.986 4.43829 19.986C4.48378 19.986 4.53012 19.9804 4.5763 19.9683C4.87001 19.8923 5.04631 19.5926 4.97044 19.2989L2.00413 7.84581C1.92791 7.5521 1.62802 7.37563 1.33465 7.45167C1.04094 7.52772 0.864474 7.82761 0.94052 8.12115L3.90682 19.5744Z" fill="white"/>
<path d="M25.3946 19.9683C25.4406 19.9804 25.4869 19.986 25.5324 19.986C25.7769 19.986 25.9999 19.8217 26.0641 19.5744L29.0304 8.12115C29.1062 7.82761 28.9299 7.52772 28.6361 7.45167C28.3423 7.37563 28.0428 7.5521 27.9666 7.84581L25.0003 19.2989C24.9244 19.5926 25.1007 19.8923 25.3946 19.9683Z" fill="white"/>
<path d="M6.45105 2.74592C6.75437 2.74592 7.00036 2.49975 7.00036 2.1966V1.50154C7.00036 1.19839 6.75437 0.952229 6.45105 0.952229C6.14789 0.952229 5.90173 1.19839 5.90173 1.50154V2.1966C5.90173 2.49975 6.14789 2.74592 6.45105 2.74592Z" fill="white"/>
<path d="M6.45105 6.07568C6.75437 6.07568 7.00036 5.82969 7.00036 5.52636V4.83148C7.00036 4.52816 6.75437 4.28217 6.45105 4.28217C6.14789 4.28217 5.90173 4.52816 5.90173 4.83148V5.52636C5.90173 5.82969 6.14789 6.07568 6.45105 6.07568Z" fill="white"/>
<path d="M7.76868 4.06319H8.46357C8.76689 4.06319 9.01288 3.81737 9.01288 3.51388C9.01288 3.21055 8.76689 2.96456 8.46357 2.96456H7.76868C7.46535 2.96456 7.21936 3.21055 7.21936 3.51388C7.21936 3.81737 7.46535 4.06319 7.76868 4.06319Z" fill="white"/>
<path d="M4.4386 4.06319H5.13348C5.43681 4.06319 5.6828 3.81737 5.6828 3.51388C5.6828 3.21055 5.43681 2.96456 5.13348 2.96456H4.4386C4.13527 2.96456 3.88928 3.21055 3.88928 3.51388C3.88928 3.81737 4.13527 4.06319 4.4386 4.06319Z" fill="white"/>
<path d="M21.0261 13.009C21.0261 12.7057 20.7803 12.4597 20.4768 12.4597C20.1735 12.4597 19.9275 12.7057 19.9275 13.009V13.7039C19.9275 14.0072 20.1735 14.253 20.4768 14.253C20.7803 14.253 21.0261 14.0072 21.0261 13.7039V13.009Z" fill="white"/>
<path d="M20.4768 15.79C20.1735 15.79 19.9275 16.0358 19.9275 16.339V17.034C19.9275 17.3372 20.1735 17.5833 20.4768 17.5833C20.7803 17.5833 21.0261 17.3372 21.0261 17.034V16.339C21.0261 16.0358 20.7803 15.79 20.4768 15.79Z" fill="white"/>
<path d="M21.7944 14.4722C21.4911 14.4722 21.2451 14.7183 21.2451 15.0215C21.2451 15.325 21.4911 15.5708 21.7944 15.5708H22.4893C22.7926 15.5708 23.0386 15.325 23.0386 15.0215C23.0386 14.7183 22.7926 14.4722 22.4893 14.4722H21.7944Z" fill="white"/>
<path d="M19.1593 14.4722H18.4642C18.1611 14.4722 17.9149 14.7183 17.9149 15.0215C17.9149 15.325 18.1611 15.5708 18.4642 15.5708H19.1593C19.4625 15.5708 19.7086 15.325 19.7086 15.0215C19.7086 14.7183 19.4625 14.4722 19.1593 14.4722Z" fill="white"/>
<path d="M6.50457 9.41769C6.29772 9.44773 6.12588 9.59261 6.06134 9.79156C5.99645 9.99052 6.05053 10.2087 6.20021 10.3546L7.77108 11.8858L7.40012 14.0479C7.36493 14.2539 7.44956 14.4623 7.61865 14.585C7.71444 14.6547 7.82773 14.6899 7.94171 14.6899C8.02926 14.6899 8.11681 14.6691 8.19715 14.6267L10.139 13.606L12.0805 14.6267C12.2653 14.7241 12.4899 14.7079 12.659 14.585C12.828 14.4623 12.9127 14.2539 12.8775 14.0479L12.5067 11.8858L14.0774 10.3546C14.2273 10.2087 14.2812 9.99052 14.2164 9.79156C14.1519 9.59261 13.9801 9.44773 13.773 9.41769L11.6024 9.10234L10.6313 7.13511C10.5389 6.94783 10.3479 6.82887 10.139 6.82887C9.92972 6.82887 9.73866 6.94783 9.64631 7.13511L8.67557 9.10234L6.50457 9.41769ZM9.53267 9.84735L10.1386 8.61946L10.7449 9.84735C10.8249 10.0096 10.9794 10.122 11.1583 10.1479L12.5134 10.3447L11.5329 11.3006C11.4034 11.4268 11.3444 11.6086 11.3749 11.787L11.6063 13.1366L10.3944 12.4993C10.2344 12.4152 10.0432 12.4152 9.8832 12.4993L8.67093 13.1366L8.9025 11.787C8.93323 11.6086 8.87401 11.4268 8.74457 11.3006L7.76405 10.3447L9.11897 10.1479C9.29801 10.122 9.45267 10.0096 9.53267 9.84735Z" fill="white"/>
<path d="M17.5226 5.10871L19.1134 5.60326L19.6078 7.1937C19.6698 7.39352 19.8397 7.54046 20.0464 7.57342C20.0751 7.57788 20.1039 7.57994 20.1324 7.57994C20.3087 7.57994 20.4768 7.49479 20.5806 7.34785L21.5424 5.98813L23.2079 6.00924C23.4156 6.01096 23.6094 5.8956 23.7045 5.70935C23.7992 5.5231 23.7802 5.29908 23.6551 5.13154L22.6587 3.79653L23.1938 2.21896C23.2609 2.02121 23.2098 1.80217 23.062 1.6542C22.9142 1.5064 22.6951 1.45541 22.4972 1.52253L20.9198 2.05743L19.585 1.06111C19.4174 0.93631 19.1934 0.917255 19.0072 1.01201C18.8207 1.10711 18.7045 1.29937 18.7071 1.50863L18.7284 3.17408L17.3687 4.13556C17.1979 4.25641 17.1105 4.46377 17.1431 4.67011C17.1759 4.87679 17.323 5.04674 17.5226 5.10871ZM19.5987 3.90433C19.7462 3.79996 19.833 3.62967 19.8306 3.44874L19.82 2.60743L20.4944 3.11057C20.6391 3.21872 20.828 3.24876 20.9993 3.19056L21.796 2.92054L21.5258 3.71722C21.4677 3.88837 21.4978 4.07719 21.6059 4.22208L22.1091 4.89653L21.2678 4.88572C21.2654 4.88572 21.263 4.88572 21.2606 4.88572C21.0825 4.88572 20.9152 4.97223 20.8122 5.11798L20.3264 5.80479L20.0766 5.00142C20.0229 4.82873 19.8878 4.69346 19.7153 4.6399L18.9117 4.39013L19.5987 3.90433Z" fill="white"/>
<path d="M14.2712 8.44732C14.5747 8.44732 14.8206 8.20116 14.8206 7.898V4.65704C14.8206 4.35354 14.5747 4.10772 14.2712 4.10772C13.9681 4.10772 13.7219 4.35354 13.7219 4.65704V7.898C13.7219 8.20116 13.9679 8.44732 14.2712 8.44732Z" fill="white"/>
<path d="M14.2712 3.1953C14.4156 3.1953 14.5576 3.13642 14.6597 3.03411C14.7618 2.93198 14.8206 2.79035 14.8206 2.64599C14.8206 2.50128 14.7618 2.35966 14.6597 2.25752C14.5576 2.15538 14.4156 2.09667 14.2712 2.09667C14.1269 2.09667 13.9851 2.15521 13.8829 2.25752C13.7808 2.35966 13.7219 2.50128 13.7219 2.64599C13.7219 2.79035 13.7808 2.93198 13.8829 3.03411C13.9851 3.13625 14.1269 3.1953 14.2712 3.1953Z" fill="white"/>
</svg>
