<svg width="30" height="30" viewBox="0 0 30 30" fill="none" xmlns="http://www.w3.org/2000/svg">
<g clip-path="url(#clip0)">
<path d="M29.3385 26.1416L23.9069 20.7099C24.0562 20.4827 24.031 20.1743 23.8311 19.9745C23.6313 19.7747 23.3228 19.7494 23.0956 19.8987L21.6462 18.4493C22.7295 16.841 23.4115 14.9783 23.6088 13.0355C23.879 10.3746 23.2355 7.6774 21.7971 5.44046C21.622 5.16829 21.2595 5.0896 20.9874 5.26456C20.7153 5.43958 20.6366 5.8021 20.8115 6.07421C23.5016 10.2573 22.8975 15.8502 19.375 19.3727C15.2178 23.5299 8.45346 23.5299 4.29617 19.3727C0.138946 15.2155 0.138946 8.45124 4.29617 4.29396C7.8224 0.767728 13.2372 0.143061 17.4639 2.77456C17.7385 2.94548 18.0999 2.86158 18.2709 2.58689C18.4419 2.31226 18.3578 1.95097 18.0832 1.77994C15.8527 0.391264 13.1778 -0.216354 10.5509 0.0688222C7.88387 0.358451 5.36838 1.56478 3.4676 3.46544C-1.14643 8.07953 -1.14643 15.5872 3.4676 20.2012C5.77467 22.5083 8.80508 23.6618 11.8355 23.6618C14.1443 23.6618 16.4526 22.9915 18.4415 21.6525L19.8836 23.0946C19.667 23.3242 19.6704 23.6858 19.8951 23.9105C20.0095 24.0249 20.1594 24.0821 20.3093 24.0821C20.4539 24.0821 20.5982 24.0284 20.7109 23.922L26.1345 29.3456C26.5711 29.7821 27.1449 30 27.7204 30C28.3011 30 28.8835 29.7779 29.3272 29.3342C30.2104 28.4508 30.2156 27.0186 29.3385 26.1416ZM19.6504 21.2045L21.1974 19.6575L22.2585 20.7186L20.7115 22.2656L19.6504 21.2045ZM28.4986 28.5057C28.072 28.9322 27.3832 28.9373 26.963 28.517L21.54 23.094L23.087 21.547L28.51 26.97C28.9302 27.3903 28.9251 28.0792 28.4986 28.5057Z" fill="white"/>
<path d="M20.2174 3.47931L20.2047 3.46659C19.9767 3.23714 19.6057 3.23603 19.3762 3.46407C19.1468 3.69212 19.1456 4.06308 19.3737 4.29259L19.3889 4.30788C19.5034 4.42232 19.6532 4.4795 19.8032 4.4795C19.9531 4.4795 20.1031 4.42232 20.2174 4.30788C20.4462 4.07913 20.4462 3.70817 20.2174 3.47931Z" fill="white"/>
<path d="M11.8354 2.81145C6.86072 2.81145 2.81348 6.85869 2.81348 11.8334C2.81348 16.8081 6.86072 20.8554 11.8354 20.8554C16.8102 20.8554 20.8574 16.8081 20.8574 11.8334C20.8574 6.85869 16.8102 2.81145 11.8354 2.81145ZM11.8354 19.6837C7.50678 19.6837 3.98518 16.1621 3.98518 11.8334C3.98518 7.50475 7.50678 3.98315 11.8354 3.98315C16.1641 3.98315 19.6857 7.50475 19.6857 11.8334C19.6857 16.1621 16.1641 19.6837 11.8354 19.6837Z" fill="white"/>
<path d="M14.0649 11.0721C14.4298 10.5977 14.6476 10.0045 14.6476 9.36108V8.59374C14.6476 7.04317 13.3861 5.78171 11.8355 5.78171C10.285 5.78171 9.02352 7.04317 9.02352 8.59374V9.36108C9.02352 10.0045 9.24119 10.5978 9.60617 11.0721C7.74289 11.4235 6.32861 13.0623 6.32861 15.0262V15.3289C6.32861 15.6525 6.59088 15.9147 6.91443 15.9147H16.7565C17.0801 15.9147 17.3424 15.6525 17.3424 15.3289V15.0262C17.3425 13.0623 15.9282 11.4235 14.0649 11.0721ZM10.1952 8.59374C10.1952 7.68929 10.9311 6.95341 11.8355 6.95341C12.74 6.95341 13.4759 7.68929 13.4759 8.59374V9.36108C13.4759 10.2655 12.74 11.0014 11.8355 11.0014C10.9311 11.0014 10.1952 10.2655 10.1952 9.36108V8.59374ZM7.51426 14.743C7.65687 13.3023 8.87574 12.1731 10.3534 12.1731H13.3177C14.7954 12.1731 16.0143 13.3023 16.1569 14.743H7.51426Z" fill="white"/>
</g>
<defs>
<clipPath id="clip0">
<rect width="30" height="30" fill="white"/>
</clipPath>
</defs>
</svg>
