<svg width="30" height="30" viewBox="0 0 30 30" fill="none" xmlns="http://www.w3.org/2000/svg">
<path d="M15 14.4141C14.6766 14.4141 14.4141 14.6766 14.4141 15C14.4141 15.3234 14.6766 15.5859 15 15.5859C15.3234 15.5859 15.5859 15.3234 15.5859 15C15.5859 14.6766 15.3234 14.4141 15 14.4141Z" fill="white"/>
<path d="M15 19.1016C14.6766 19.1016 14.4141 19.3641 14.4141 19.6875C14.4141 20.0109 14.6766 20.2734 15 20.2734C15.3234 20.2734 15.5859 20.0109 15.5859 19.6875C15.5859 19.3641 15.3234 19.1016 15 19.1016Z" fill="white"/>
<path d="M15 23.9648C14.6766 23.9648 14.4141 24.2273 14.4141 24.5508C14.4141 24.8742 14.6766 25.1367 15 25.1367C15.3234 25.1367 15.5859 24.8742 15.5859 24.5508C15.5859 24.2273 15.3234 23.9648 15 23.9648Z" fill="white"/>
<path d="M26.1318 5.42895C26.1314 5.41816 26.1311 5.40738 26.1301 5.39666C26.1293 5.38728 26.1279 5.37814 26.1267 5.36889C26.1253 5.35922 26.1241 5.34961 26.1223 5.34C26.1204 5.33027 26.1181 5.32084 26.1158 5.31129C26.1137 5.30227 26.1115 5.2933 26.1089 5.28439C26.1062 5.27496 26.1029 5.26576 26.0998 5.2565C26.0967 5.24766 26.0936 5.23881 26.0901 5.23008C26.0865 5.22123 26.0826 5.21268 26.0786 5.20406C26.0746 5.19527 26.0705 5.18654 26.066 5.17793C26.0617 5.16961 26.0569 5.16158 26.0522 5.15355C26.0473 5.14518 26.0424 5.13674 26.037 5.12854C26.0317 5.12039 26.0259 5.11254 26.0201 5.10469C26.0146 5.09713 26.0092 5.08957 26.0034 5.08225C25.9966 5.07387 25.9894 5.06602 25.9823 5.05805C25.9777 5.05295 25.9736 5.04756 25.9689 5.04258L21.2814 0.179297C21.2801 0.177949 21.2787 0.176895 21.2774 0.175547C21.2697 0.167754 21.2616 0.160488 21.2535 0.153164C21.2472 0.147363 21.241 0.141328 21.2345 0.135879C21.2272 0.129727 21.2193 0.124219 21.2116 0.118418C21.2039 0.112559 21.1963 0.106406 21.1884 0.101016C21.1816 0.0963867 21.1743 0.0924023 21.1673 0.0880664C21.1582 0.0823828 21.1491 0.0764062 21.1397 0.0713086C21.132 0.0670898 21.1239 0.0636328 21.116 0.0597656C21.107 0.0553711 21.098 0.0505664 21.0888 0.0466406C21.0786 0.0423047 21.0679 0.0387891 21.0574 0.0349805C21.0502 0.0324023 21.0431 0.0293555 21.0357 0.0270703C21.0251 0.0237305 21.0141 0.0212109 21.0031 0.018457C20.9955 0.016582 20.9881 0.0142383 20.9805 0.0126563C20.9709 0.0106641 20.9612 0.00943359 20.9515 0.00791016C20.9421 0.00644531 20.9328 0.00462891 20.9234 0.00363281C20.9149 0.00269531 20.9063 0.00251953 20.8978 0.00193359C20.8868 0.00123047 20.8758 0.000351562 20.8648 0.000292969C20.8629 0.000234375 20.8612 0 20.8594 0H5.625C4.65574 0 3.86719 0.788555 3.86719 1.75781V28.2422C3.86719 29.2114 4.65574 30 5.625 30H24.375C25.3443 30 26.1328 29.2114 26.1328 28.2422V5.44922C26.1328 5.44236 26.132 5.43574 26.1318 5.42895ZM21.4453 2.03818L24.1683 4.86328H22.0312C21.7082 4.86328 21.4453 4.60043 21.4453 4.27734V2.03818ZM24.9609 28.2422C24.9609 28.5653 24.6981 28.8281 24.375 28.8281H5.625C5.30191 28.8281 5.03906 28.5653 5.03906 28.2422V1.75781C5.03906 1.43473 5.30191 1.17188 5.625 1.17188H20.2734V4.27734C20.2734 5.2466 21.062 6.03516 22.0312 6.03516H24.9609V28.2422Z" fill="white"/>
<path d="M11.8987 13.4138C11.6699 13.185 11.299 13.185 11.0701 13.4139L9.14067 15.3433L8.38311 14.5857C8.15424 14.3569 7.78334 14.3569 7.55442 14.5857C7.32561 14.8146 7.32561 15.1856 7.55442 15.4144L8.72629 16.5863C8.84079 16.7007 8.99067 16.7579 9.14067 16.7579C9.29067 16.7579 9.44055 16.7007 9.55498 16.5863L11.8987 14.2425C12.1275 14.0137 12.1275 13.6427 11.8987 13.4138Z" fill="white"/>
<path d="M22.0312 14.4141H17.3438C17.0202 14.4141 16.7578 14.6764 16.7578 15C16.7578 15.3236 17.0202 15.5859 17.3438 15.5859H22.0312C22.3548 15.5859 22.6172 15.3236 22.6172 15C22.6172 14.6764 22.3548 14.4141 22.0312 14.4141Z" fill="white"/>
<path d="M11.8987 18.1013C11.6699 17.8725 11.299 17.8725 11.0701 18.1014L9.14067 20.0308L8.38311 19.2732C8.15424 19.0444 7.78334 19.0444 7.55442 19.2732C7.32561 19.502 7.32561 19.8731 7.55442 20.1019L8.72629 21.2738C8.84079 21.3882 8.99067 21.4454 9.14067 21.4454C9.29067 21.4454 9.44055 21.3882 9.55498 21.2737L11.8987 18.93C12.1275 18.7012 12.1275 18.3302 11.8987 18.1013Z" fill="white"/>
<path d="M22.0312 19.1016H17.3438C17.0202 19.1016 16.7578 19.3639 16.7578 19.6875C16.7578 20.0111 17.0202 20.2734 17.3438 20.2734H22.0312C22.3548 20.2734 22.6172 20.0111 22.6172 19.6875C22.6172 19.3639 22.3548 19.1016 22.0312 19.1016Z" fill="white"/>
<path d="M11.8987 22.9646C11.6699 22.7358 11.299 22.7358 11.0701 22.9646L9.14067 24.8941L8.38311 24.1365C8.15424 23.9077 7.78334 23.9077 7.55442 24.1365C7.32561 24.3653 7.32561 24.7363 7.55442 24.9652L8.72629 26.1371C8.84079 26.2515 8.99067 26.3086 9.14067 26.3086C9.29067 26.3086 9.44055 26.2515 9.55498 26.137L11.8987 23.7933C12.1275 23.5645 12.1275 23.1935 11.8987 22.9646Z" fill="white"/>
<path d="M22.0312 23.9648H17.3438C17.0202 23.9648 16.7578 24.2272 16.7578 24.5508C16.7578 24.8744 17.0202 25.1367 17.3438 25.1367H22.0312C22.3548 25.1367 22.6172 24.8744 22.6172 24.5508C22.6172 24.2272 22.3548 23.9648 22.0312 23.9648Z" fill="white"/>
<path d="M13.2002 9.9191L12.2588 7.56562C12.2587 7.56527 12.2586 7.56492 12.2584 7.56463L10.8564 4.05979C10.7675 3.83725 10.552 3.69141 10.3124 3.69141C10.0729 3.69141 9.85735 3.83725 9.7684 4.05973L8.36643 7.56457C8.36631 7.56492 8.36614 7.56527 8.36602 7.56556L7.4246 9.91904C7.30448 10.2196 7.45061 10.5605 7.75108 10.6808C8.05143 10.801 8.39245 10.6548 8.51274 10.3543L9.30293 8.3789H11.322L12.1122 10.3543C12.2038 10.5834 12.4238 10.7228 12.6564 10.7228C12.7288 10.7228 12.8024 10.7094 12.8738 10.6808C13.1743 10.5606 13.3204 10.2196 13.2002 9.9191ZM9.77163 7.20703L10.3124 5.85504L10.8532 7.20703H9.77163Z" fill="white"/>
<path d="M16.1719 4.86328H15.5859V4.27734C15.5859 3.95373 15.3236 3.69141 15 3.69141C14.6764 3.69141 14.4141 3.95373 14.4141 4.27734V4.86328H13.8281C13.5046 4.86328 13.2422 5.12561 13.2422 5.44922C13.2422 5.77283 13.5046 6.03516 13.8281 6.03516H14.4141V6.62109C14.4141 6.94471 14.6764 7.20703 15 7.20703C15.3236 7.20703 15.5859 6.94471 15.5859 6.62109V6.03516H16.1719C16.4954 6.03516 16.7578 5.77283 16.7578 5.44922C16.7578 5.12561 16.4954 4.86328 16.1719 4.86328Z" fill="white"/>
</svg>
