<svg width="30" height="30" viewBox="0 0 30 30" fill="none" xmlns="http://www.w3.org/2000/svg">
<path fill-rule="evenodd" clip-rule="evenodd" d="M27.6322 12.1099H7.64167L26.8428 6.54762C26.992 6.50436 27.1179 6.40343 27.193 6.26747C27.2681 6.13129 27.2859 5.97107 27.2426 5.82184L26.2379 2.35313C25.8364 0.967712 24.5464 0 23.1008 0C22.7962 0 22.4927 0.0432587 22.1983 0.128403L4.17045 5.3508C3.33663 5.59227 2.64563 6.14662 2.22426 6.91132C1.80312 7.67601 1.70424 8.55652 1.94571 9.39011L2.92739 12.7789V26.7391C2.92739 28.5372 4.39017 30 6.18804 30H13.2289C13.5525 30 13.8148 29.7377 13.8148 29.4141C13.8148 29.0904 13.5525 28.8281 13.2289 28.8281H6.18827C5.03631 28.8281 4.09926 27.8911 4.09926 26.7391V18.7653H7.10105H7.10242H7.10357H11.6922H11.6936H11.6949H16.2836H16.2849H16.2863H20.8749H20.8763H20.8774H27.0463V26.7391C27.0463 27.8911 26.1092 28.8281 24.9573 28.8281H17.9164C17.593 28.8281 17.3305 29.0904 17.3305 29.4141C17.3305 29.7377 17.593 30 17.9164 30H24.9573C26.7554 30 28.2181 28.5372 28.2181 26.7391V12.6958C28.2181 12.3722 27.9558 12.1099 27.6322 12.1099ZM17.3003 17.5935L19.7898 13.2818H23.0278L20.5385 17.5935H17.3003ZM12.7089 17.5935L15.1984 13.2818H18.4364L15.9471 17.5935H12.7089ZM8.11774 17.5935L10.6071 13.2818H13.8453L11.3557 17.5935H8.11774ZM10.2962 10.0081L6.12739 6.00403L9.25094 5.09926C9.27291 5.1313 9.29854 5.16151 9.32784 5.18967L13.4967 9.19373L10.3731 10.0985C10.3512 10.0665 10.3253 10.036 10.2962 10.0081ZM18.1478 2.63466L22.3167 6.63872L19.1931 7.54349C19.1711 7.51144 19.1455 7.481 19.1162 7.45308L14.9473 3.44902L18.0709 2.54425C18.0929 2.57629 18.1185 2.60651 18.1478 2.63466ZM13.7377 3.91228L17.9066 7.91611L14.783 8.82111C14.761 8.78906 14.7354 8.75862 14.7061 8.7307L10.5373 4.72664L13.6608 3.82187C13.683 3.85368 13.7086 3.88412 13.7377 3.91228ZM22.5245 1.25404C22.7126 1.19957 22.9065 1.17188 23.1008 1.17188C24.028 1.17188 24.855 1.79169 25.1122 2.67929L25.954 5.58495L23.6032 6.26587C23.581 6.23383 23.5554 6.20361 23.5261 6.17546L19.3574 2.17163L22.5245 1.25404ZM3.2508 7.47665C3.52088 6.98616 3.96331 6.63094 4.4966 6.47644L4.84084 6.37665C4.86304 6.40869 4.88868 6.43913 4.91774 6.46706L9.0866 10.4711L3.91318 11.9698L3.07136 9.06418C2.91686 8.53111 2.98072 7.96738 3.2508 7.47665ZM4.09926 13.2818H9.25391L6.76459 17.5935H4.09926V13.2818ZM21.8916 17.5935L24.3809 13.2818H27.0463V17.5935H21.8916Z" fill="white"/>
<path fill-rule="evenodd" clip-rule="evenodd" d="M19.6243 23.7371C19.6243 23.5277 19.5126 23.3343 19.3314 23.2297L14.1836 20.2577C14.0023 20.1531 13.7789 20.1531 13.5977 20.2577C13.4164 20.3623 13.3047 20.5557 13.3047 20.7651V26.7092C13.3047 26.9184 13.4164 27.1118 13.5977 27.2164C13.6883 27.2688 13.7895 27.2951 13.8906 27.2951C13.9918 27.2951 14.093 27.2688 14.1836 27.2164L19.3314 24.2446C19.5126 24.14 19.6243 23.9466 19.6243 23.7371ZM14.4766 25.6943V21.78L17.8665 23.7371L14.4766 25.6943Z" fill="white"/>
<path fill-rule="evenodd" clip-rule="evenodd" d="M15.5726 28.8281C15.2499 28.8281 14.9867 29.0913 14.9867 29.4141C14.9867 29.7368 15.2499 30 15.5726 30C15.8956 30 16.1586 29.7368 16.1586 29.4141C16.1586 29.0913 15.8956 28.8281 15.5726 28.8281Z" fill="white"/>
</svg>
